<svg id="teal" xmlns="http://www.w3.org/2000/svg" viewBox="0 0 288 288"><defs><style>.cls-1{fill:#000000}</style></defs><title>pattern_dark</title><path class="cls-1" d="M200.64 81.14l-.18-1.35a3.86 3.86 0 0 0-1-7.66l-.18-1.35a5.23 5.23 0 1 1 1.35 10.36zM75.2 224a7.46 7.46 0 0 0 2.88-10.14l-1.7.95a5.51 5.51 0 0 1-9.62 5.36l-1.7.95A7.44 7.44 0 0 0 75.2 224zm170.51-45.9a5.61 5.61 0 0 1 7.54-8.31l1.33-1.47a7.59 7.59 0 0 0-10.21 11.24zM82 18.72l-.06-1a3 3 0 0 1-.35-5.93l-.06-1a4 4 0 0 0 .23 8zm198.4 131.81a5.39 5.39 0 0 0-8.5-5.19l.83 1.14a4 4 0 1 1 4.7 6.44l.83 1.14a5.35 5.35 0 0 0 2.14-3.53zm-115.19 20.22a8.14 8.14 0 0 0-11.21-2.44l1.15 1.78a6 6 0 1 1 6.5 10.1l1.15 1.78a8.13 8.13 0 0 0 2.41-11.22zM13.82 33.52a4.14 4.14 0 0 0 1.3-5.71l-.91.57A3.06 3.06 0 0 1 9 31.64l-.91.57a4.14 4.14 0 0 0 5.71 1.3zM269 56.55a4 4 0 0 1 6.21-5l1.1-.87a5.38 5.38 0 0 0-8.4 6.71zM122.52 177.18a6.27 6.27 0 0 1 3.39-11.08 6.22 6.22 0 0 1 4.59 1.41l1.41-1.71a8.49 8.49 0 0 0-10.8 13.09zM238.31 16.83a3.16 3.16 0 0 0-1.44.35 3.19 3.19 0 1 0 1.44-.35m0-1.43a4.62 4.62 0 1 1-2.08.5 4.62 4.62 0 0 1 2.08-.5zM55.93 106.62a2.57 2.57 0 0 0-.27 5.13h.27a2.57 2.57 0 0 0 .26-5.12h-.27m0-1.15h.39a3.72 3.72 0 0 1-.38 7.41h-.39a3.72 3.72 0 0 1 .38-7.41zm203.2-18.34a2.66 2.66 0 0 0-.75.11 2.69 2.69 0 0 0 .75 5.27 2.66 2.66 0 0 0 .75-.11 2.69 2.69 0 0 0-.75-5.27m0-1.2a3.89 3.89 0 1 1-1.08.16 3.89 3.89 0 0 1 1.08-.16zM124.14 14a4 4 0 0 0-1.67 7.69 4 4 0 0 0 1.66.36 4 4 0 0 0 0-8.05m0-1.79a5.82 5.82 0 1 1-5.3 3.41 5.8 5.8 0 0 1 5.3-3.41zm77.27 123.6a3 3 0 0 0-.5 5.87 3.08 3.08 0 0 0 .51 0 3 3 0 1 0 0-5.91m0-1.32a4.28 4.28 0 0 1 0 8.55 4.37 4.37 0 0 1-.73-.06 4.28 4.28 0 0 1 .72-8.49zm-148 7.63a3.48 3.48 0 1 0 2.15.74 3.47 3.47 0 0 0-2.15-.74m0-1.56a5 5 0 1 1-4 1.93 5 5 0 0 1 4-1.93zM20.68 260.3a2.43 2.43 0 1 0 1.94 1 2.4 2.4 0 0 0-1.94-1m0-1.08a3.51 3.51 0 1 1-2.12.72 3.51 3.51 0 0 1 2.12-.72zM138.24 67.51a4.4 4.4 0 1 0 4.14 2.9 4.39 4.39 0 0 0-4.14-2.9m0-2a6.37 6.37 0 1 1-2.18.39 6.37 6.37 0 0 1 2.18-.39zm1.38 186.06a2.51 2.51 0 1 0 1.11.26 2.5 2.5 0 0 0-1.11-.26m0-1.12a3.63 3.63 0 1 1-3.26 2 3.61 3.61 0 0 1 3.26-2zM105.68 49.29l-6 .55 4.07 4.5 6-.56-4.07-4.5m.61-1.56l6.57 7.28-9.76.9-6.57-7.27 9.76-.9zm-90.75 146l-1 6 4.16 4.41 1-6-4.17-4.41m-1-3.2l6.73 7.12-1.66 9.66-6.73-7.12 1.66-9.66zm223.52 65.3l1.65 8.86 8.07 4-1.65-8.86-8.07-4m-3-4l13 6.46 2.66 14.31-13-6.46-2.66-14.31zM56.59 46.2L58 50.66l4.41 1.55L61 47.76l-4.41-1.56m-1.79-1.85l7.12 2.51 2.27 7.21-7.12-2.51-2.27-7.21zm86.88 153.82l-3.89 3.71.63 5.33 3.89-3.71-.63-5.33m1-2.78l1 8.62-6.28 6-1-8.62 6.28-6zm-56.44-52.8l.67 4.82 4.26 2.36-.68-4.77-4.26-2.36m-1.52-2.21l6.88 3.81 1.09 7.76-6.88-3.81-1.08-7.79zm19.21 125.24l-4.46.85-2 4.08 4.46-.85 2-4.08m2-1.52l-3.22 6.59-7.2 1.38 3.22-6.59 7.2-1.38zm45.78-149.69l-9.05.51-5 7.55 9.05-.51 5-7.55m4.34-2.48l-8.12 12.2-14.63.82 8.12-12.19 14.63-.82zM36.18 11.89l-1.38 8.45 5.94 6.17 1.38-8.45-5.94-6.17m-1.4-4.5l9.59 10L42.15 31l-9.59-10 2.22-13.61zM19.84 70.33a2.42 2.42 0 0 1 3.5-1.09 4.47 4.47 0 0 0 6.4-2 2.42 2.42 0 0 1 3.5-1.09 1 1 0 0 0 1-1.77 4.47 4.47 0 0 0-6.4 2 2.42 2.42 0 0 1-3.5 1.09 4.47 4.47 0 0 0-6.4 2 1 1 0 1 0 1.86.87zm201 43.89a2.93 2.93 0 0 0-.87-2.23 3 3 0 0 0-2.25-.83 1.58 1.58 0 0 1-1.71-1.67 2.93 2.93 0 0 0-.87-2.23 3 3 0 0 0-2.25-.83.67.67 0 0 0-.63.71.69.69 0 0 0 .71.63 1.62 1.62 0 0 1 1.24.45 1.61 1.61 0 0 1 .47 1.23 2.92 2.92 0 0 0 3.12 3.06 1.58 1.58 0 0 1 1.71 1.67.67.67 0 0 0 .64.69.67.67 0 0 0 .64-.64zM205.7 243a2.65 2.65 0 0 0 2.63-3 1.43 1.43 0 0 1 1.44-1.62 2.64 2.64 0 0 0 2.63-3 .61.61 0 0 0-1.2.13 1.43 1.43 0 0 1-1.44 1.62 2.65 2.65 0 0 0-2.63 3 1.43 1.43 0 0 1-1.44 1.62.61.61 0 0 0 0 1.21zM50.16 190.83a1 1 0 0 0-.14-1.34 2.25 2.25 0 0 1-.2-3.41 4.16 4.16 0 0 0-.37-6.22 2.25 2.25 0 0 1-.2-3.41 1 1 0 0 0-1.36-1.33 4.16 4.16 0 0 0 .37 6.22 2.26 2.26 0 0 1 .2 3.41 4.16 4.16 0 0 0 .37 6.22 1 1 0 0 0 1.34-.14zm10.4 67.86a1.12 1.12 0 0 0-.34-2.22 2.65 2.65 0 0 1-3.12-2.53 4.9 4.9 0 0 0-5.7-4.62 2.65 2.65 0 0 1-3.12-2.53 1.12 1.12 0 0 0-2.24.13 4.9 4.9 0 0 0 5.7 4.62 2.66 2.66 0 0 1 3.12 2.53 4.92 4.92 0 0 0 1.8 3.59 4.86 4.86 0 0 0 3.09 1.09 5.43 5.43 0 0 0 .8-.06zM15.5 104.63a3.33 3.33 0 0 0 .92-2.56 1.84 1.84 0 0 1 .5-1.41 1.79 1.79 0 0 1 1.39-.54 3.31 3.31 0 0 0 3.46-3.57.76.76 0 1 0-1.52.09 1.8 1.8 0 0 1-1.89 2 3.37 3.37 0 0 0-2.53 1 3.34 3.34 0 0 0-.93 2.56 1.83 1.83 0 0 1-.5 1.41 1.78 1.78 0 0 1-1.39.54.76.76 0 0 0 0 1.52h.12a3.32 3.32 0 0 0 2.37-1.04zm91.06 7.93A.81.81 0 0 0 106 111a1.92 1.92 0 0 1-2.54-1.41 3.55 3.55 0 0 0-4.6-2.59 1.92 1.92 0 0 1-2.54-1.41.81.81 0 0 0-1.58.37 3.55 3.55 0 0 0 4.65 2.58 1.92 1.92 0 0 1 2.54 1.41 3.56 3.56 0 0 0 1.74 2.33 3.51 3.51 0 0 0 1.71.44 3.74 3.74 0 0 0 1.19-.16zM21 148.6a1 1 0 0 0 0-1.39 2.31 2.31 0 0 1 .2-3.5 4.27 4.27 0 0 0 .37-6.39 2.31 2.31 0 0 1 .2-3.5 1 1 0 0 0-1.23-1.52 4.27 4.27 0 0 0-.37 6.39 2.32 2.32 0 0 1-.2 3.5 4.27 4.27 0 0 0-.37 6.39 1 1 0 0 0 1.39 0zm144-98.14a4.13 4.13 0 0 0 2.09-2.65 2.23 2.23 0 0 1 3-1.56 4.1 4.1 0 0 0 5.45-2.84.94.94 0 1 0-1.82-.48 2.22 2.22 0 0 1-3 1.55 4.11 4.11 0 0 0-5.45 2.84 2.22 2.22 0 0 1-3 1.56.94.94 0 0 0-.65 1.77 4.3 4.3 0 0 0 1.49.27 4 4 0 0 0 1.89-.46zm50.24 110.91a.56.56 0 0 0 0-.79l-3.63-3.33a.56.56 0 0 0-.75.82l3.63 3.33a.56.56 0 0 0 .79 0zM96.49 188a.59.59 0 0 0 .05-.83l-3.44-3.89a.59.59 0 0 0-.88.78l3.44 3.89a.59.59 0 0 0 .83.05zM72.09 79.86l6-1.39a.7.7 0 1 0-.31-1.36l-6 1.39a.7.7 0 0 0 .16 1.38zm125.08-53.1l5.71-1.37a.66.66 0 1 0-.31-1.29l-5.71 1.37a.66.66 0 0 0 .15 1.31zM273 249.21a.61.61 0 0 0 .45-.73l-1.25-5.23a.61.61 0 0 0-1.18.28l1.25 5.23a.61.61 0 0 0 .59.47zm-98.2 5.89a.59.59 0 0 0 .3-.78l-2.1-4.76a.59.59 0 0 0-1.08.48l2.08 4.76a.59.59 0 0 0 .78.3zm-2.52-37.1l8.69-.51a1 1 0 0 0-.12-2l-8.69.51a1 1 0 0 0 .06 2zm-56.85 11.84a.52.52 0 0 0 .35-.65l-1.31-4.44a.52.52 0 0 0-1 .29l1.31 4.44a.52.52 0 0 0 .5.38zm163.41-32.11a.86.86 0 0 0-.75-1l-7.58-.91a.86.86 0 1 0-.21 1.71l7.58.91h.1a.86.86 0 0 0 .86-.75zM247 132.89l6.47 6.44 1.58-1.59-8.06-8-8 8.06 1.59 1.58zm-37 62.17l-7.31-4.18-.82 1.44 5.87 3.36-3.36 5.87 1.44.82zm-44.8 81.16l-.86-1.2-4.89 3.5-3.5-4.89-1.2.86 4.35 6.09zM233.95 57.5l-6.42-1.21 1.21-6.42-1.57-.3-1.51 8 8 1.51zm-60.2-48l-1.54-1.3-5.21 6.27-6.27-5.25-1.29 1.54 7.81 6.54zm1.38 90.43l-1.24-7.13-7.13 1.2.25 1.4 5.73-1 1 5.73zm104.13-85.49l-1.23-1-4 5-5-4-1 1.23 6.25 5zM208 275.83l-3.79-7.11-7.11 3.79.75 1.4 5.71-3 3 5.71zm41.73-69.74l-1.54-1.53-6.19 6.29-6.28-6.23-1.53 1.54 7.82 7.75z"/></svg>