<svg id="hello" xmlns="http://www.w3.org/2000/svg" viewBox="0 0 486.2 196.7">
	<path d="M14.7 113.2c0 .2.4.3.5.3l-.5-.3zM78.4 127.2h-.2c0 1.2-1 1.9-1 3 0 .3 0 .6.3.6.4 0 .9-.6 1.2-.9 0-.8.7-1.5.7-2.3-.1-.3-.6-.4-1-.4zM10.5 115.3v.1c0 .1.1.2.2.2s.3 0 .3-.2l-.5-.1z"/>
	<path d="M162 19.4c0 .1.1.2.2.4s.3.4.5.5c-.4.3-.6.8-.7 1.2l-.2 1.2c0 .1-.1.1-.1.2-.5.8-1.2 1.8-1.2 3 0 .3.1.6.2.9l.1.2c.1.2.3.4.4.6v.3c-.1.2-.4.6-.7 1.1l-.1.1-.3.6c-.4-.7-1.1-1.1-1.9-1.1-.7 0-1.5.3-2 .8s-.6 1.3-.4 1.9c.1.3.3.6.5.8-.2.4-.4.8-.4 1.5l-.5.6c-.6.6-.7 1.5-.3 2.2.3.7 1 1.1 1.8 1.1h.2l.7-.1c.4 0 .7-.2 1-.4.5-.4.8-.9.9-1.2.2-.2.4-.4.5-.6v-.1c.1-.1.1-.2.2-.2-.2.5-.1 1.1.1 1.5.3.7 1 1.1 1.8 1.1h.2l1.3-.1c.3 0 .5-.1.7-.2h.1c.3 0 .6-.1.9-.2 0 .1.1.2.2.4l-.1.1c-.2.5-.2 1.1.1 1.6.1.2.2.3.3.5.1.7.5 1.2 1 1.6-.1.2-.1.5-.1.7 0 .6.2 1.2.5 1.7V44.8c-.2.2-.3.5-.3.8-.3.3-.5.7-.6 1.1-.3.4-.5.9-.5 1.4 0 .6.3 1.4.8 2 0 .1-.1.2-.1.3l-.3 1c-.2.3-.3.6-.3.8-.4.3-.6.8-.6 1.3 0 .3 0 .5.1.8-1.1 1-1.4 1.4-1.4 2.2v.4c-.1.2-.3.4-.3.6l-.4 1.2c-.1.4-.1.8 0 1.2v.7l-.1.3c-.3.6-.3 1.3.1 1.9 0 .1-.2.4-.3.6-.2.3-.3.8-.5 1.2-.3.3-.6.8-.7 1.3l-.5.7c-.3.3-.4.7-.4 1.1 0 .1-.1.2-.1.2-.2.4-.4 1-.4 1.7-.3.4-.5.8-.5 1.3v.3c-.3.4-.5.8-.5 1.3-.2.2-.3.5-.4.8-.2.3-.6.9-.6 1.7 0 .7.5 2.1 2.4 2.1h.7c1.1-.1 2.2-.2 3.4-.5.2.1.5.1.7.1h.2c.6-.1 1-.3 1.3-.6h.4c.4 0 .8-.2 1.1-.4h.4c-.5.2-.9.4-1.4.6-1.2.5-2.5 1.1-3.5 1.3-.4.1-.8.3-1.1.7h-1.3H161.6c-.2 0-.4-.1-.6-.1h-.2c-.3 0-.7.1-1.1.4-.1.1-.2.1-.2.2h-.8c-1.6.1-2.3 1.3-2.3 2.3 0 1 .7 1.8 1.7 2 .1 0 .2.1.4.1.1 0 .3.1.5.1 0 .2-.1.3-.1.5 0 1 .7 2 2 2.2-1 1-1.5 2.1-2 3.1-.7.3-1.3.7-1.8 1.1-.1.1-.2.1-.3.2-.7.5-1.1 1.5-.7 2.3.2.5.6 1 1.1 1.2l-1.5.4c-.4.1-.7.3-.9.6h-.3c-.4 0-.8.2-1.1.5h-.4c-.4 0-.7.2-1 .4l-.8.6c-.2.2-.4.4-.6.7l-.3.5c-.3-.2-.7-.3-1.1-.3h-.2c-.2 0-.4.1-.6.1H147.8l-1.4.1c-.9.1-1.7.8-1.8 1.7-.3-.2-.7-.4-1.2-.4h-.2c-.8.1-1.4.5-1.8 1.1-.4.3-.8.9-.9 1.8-.4.4-.5.9-.5 1.4 0 .7.3 1.2.6 1.5l-.1.1c-.5.3-.8.7-.9 1.2l-.1.4c-.6.4-.9.9-1.1 1.1-.2.3-.3.7-.3 1.1 0 .1 0 .3-.1.5-.3.2-.6.5-.8.8-.3.6-.3 1.3.1 1.9l.5.9c.2.4.5.6.9.8-.3.4-.5.8-.6 1.4-.3.1-.6.2-.9.4-.5.4-.7.9-.7 1.5 0 .1-.2.5-.4.7-.4.7-1 1.6-1 2.8-.2-.1-.5-.1-.7-.1h-.2c-.4 0-1.4.2-1.9 1.5-.7.6-.7 1.4-.7 1.6 0 .2 0 .4.1.6-.8.1-1.5.8-1.6 1.6-.8.2-1.3.9-1.4 1.6-.2.3-.4.6-.5.9-.1.1-.3.3-.4.5 0 0 0 .1-.1.1-.2.3-.5.9-.5 1.6 0 1.3 1 2.2 2.3 2.2h.3c.2 0 .5-.1.7-.1-.3.3-.6.8-.8 1.5-.5.5-.9 1.1-1.3 1.7l-.2.2v-1c0-.8-.5-1.5-1.2-1.8l-.5-.2c-.2-.1-.5-.2-.8-.2-.4 0-.8.1-1.1.3-.6.4-.9 1-.9 1.7v1.2c0 1 .7 1.8 1.7 2l.5.1h.3c.4 0 .7-.1 1-.3-.2.6-.3 1.2-.3 1.7-.3.4-.5 1-.6 1.6l-.3.3c.1-.2.1-.4.1-.6 0-1.3-1.1-2.3-2.5-2.3h-.2c-1 .1-1.8 1-1.8 2 0 1.3.8 2.1 1.6 2.3l-.3.3c-.8 1-1.9 2.3-1.9 4.4 0 .3.1.6.2.9-.2.1-.5.3-.6.5-.3-.1-.5-.1-.8-.1h-.2c-.1-.4-.3-.7-.6-1l-.5-.5c-.4-.4-.9-.5-1.3-.5-.5 0-1.1.2-1.5.6l-.5.6c-.3.4-.5.9-.5 1.4-.6.3-1 .9-1 1.6l-.3.6c-.4-.8-1.3-1.1-1.8-1.1h-.2c-.7.1-1.3.5-1.6 1.1v-1.4c.6-.4 1.1-1 1.2-1.9.5-.4.8-1 .8-1.9 0-1.2-1-2.2-2.2-2.2h-.2c-.3 0-.7.1-1.1.4v-.2c0-1.2-.8-2.1-1.9-2.3.1-.4.3-.7.5-1.2.8-2.1 1.3-3.6 1.4-4.4.2-.7.9-1.9 1.2-2.1.5-.3.8-.9.8-1.5l.1-1.5 1.3-2.8c.1-.3.2-.5.2-.8v-.4c.6-.3 1-1 1-1.8v-1.1c.1-.2.2-.5.3-.7.9-.8 1.5-2 1.6-3l.3-.7c.1-.2.2-.5.2-.8v-.1c.2-.3.4-.6.5-.9.1-.3.5-1.4.7-1.8.2-.3.3-.6.4-.9.2-1.1.4-1.5.5-1.6.3-.4.5-.9.5-1.4v-.2c.3-.4.5-.8.5-1.3s.7-2.3.9-2.9c.1-.3.2-.5.2-.7.1-.2.1-.4.1-.6.2-.2.3-.3.4-.5l.7-1.2c.2-.3.2-.6.2-.9 0-1.6-1.1-2.7-2.7-2.7h-.3c-1.8.2-3.5.7-5.1 1.1-.6.2-1.2.4-1.8.5-.4-.6-1.2-1-2-1h-.2c-.6 0-1.1.3-1.4.7-.4-.3-.8-.5-1.3-.5H105.8c-.3-.6-.8-1-1.5-1.1l-.5-.1h-.3c-.4 0-.7.1-1 .3h-.1l-.5-.1h-.3c-.5 0-.9.2-1.3.5-.4.4-.7.9-.7 1.5 0 .2 0 .4.1.6-.6.2-1.1.4-1.6.5-1.1.4-2 .7-3.2.8-.3-.6-.8-1-1.5-1.1l-.5-.1h-.3c-.5 0-.9.2-1.3.5-.4.4-.7.9-.7 1.5s.2 1.3.7 1.8h-.2l-.9-.1h-.1c-.5 0-1 .2-1.4.5-.4.4-.6.9-.6 1.5s.2 1.2.6 1.6c-.2.1-.5.3-.6.5-.4.1-.8.3-1 .6-.4.1-.9.3-1.4.7H85.4c-.3 0-.5.1-.8.2-.4-.3-.9-.5-1.5-.5h-.2c-1 .1-1.8 1-1.8 2 0 .8.3 1.5.9 2l-.3.6-.3-.1c-.2-.1-.5-.2-.8-.2-.4 0-.8.1-1.1.3-.6.4-.9 1-.9 1.7v1c0 .3.1.6.2.9-.3.4-.5.8-.6 1.3-.1.2-.1.4-.1.6 0 1-.4 2.4-.8 3.6-.5 0-.9.2-1.3.5l-1 .9c-.5.4-.7.9-.7 1.5v.1c-.1.2-.3.3-.3.5-.2.2-.4.4-.5.6-.2.1-.4.2-.7.3-.5.3-.8.8-.9 1.3-.4.1-.7.3-1 .5-.4.4-.6.9-.6 1.4 0 1.3 1 2.3 2.3 2.3h.2s0 .1-.1.1v.1c-.8.3-1.3 1-1.3 1.9v.3c-.9.4-1.5 1.1-1.7 2l-.2.2c-.3.4-.5.8-.5 1.4-.2.2-.3.4-.4.6l-.4 1c-.5.3-1.3.9-1.6 2.2l-.4 1.2c-.5.3-.9.8-1 1.5 0 .3-.1.6-.3 1-1 .1-1.5.7-1.7 1.2H62.9c-.9.1-1.6.7-1.8 1.5-.3.1-.6.2-.9.5-.4.4-.6.9-.6 1.5 0 1 .7 2.1 1.8 2.3-.1 0-.1.1-.2.1-.4.4-.7.9-.7 1.5 0 .2 0 .5.1.7-.1.3-.3.6-.3 1l-.3.3-.4.4c-.8.4-1.5 1.1-1.7 1.9l-.2.3c-.2.3-.3.6-.4.9l-.1.1c-.4-.6-1-1-1.7-1-.2 0-.3 0-.5.1-.2 0-.4.1-.6.2-.1-.4-.3-.8-.6-1.1-.4-.3-.9-.5-1.4-.5h-.2c-1.9.2-3.3.9-3.8 2.1v-.5c0-.9-.6-1.7-1.4-1.9-.2-.1-.4-.1-.6-.1-.7 0-1.3.3-1.7.9l-.5.8c-.1.2-.2.5-.3.7v.2c0 .1-.1.1-.1.2-.5.2-.9.5-1.1 1l-.8 1.6c-.1.2-.1.4-.2.6-.1.1-.2.2-.5.4-.5.4-.7.9-.7 1.5 0 1.3.4 2.2 1 2.7-.3.2-.6.5-.8.8l-.4.8-.2.2c-.2-.6-.7-1.1-1.3-1.3-.2-.1-.4-.1-.6-.1-.6 0-1.2.3-1.6.8l-.9 1.3c-.1.2-.3.4-.3.7-.4.3-1.1 1-1.3 2.1-.5 1.4-1.8 3.4-2.7 5-.2.4-.4.7-.6 1v.1c-.2.1-.4.2-.6.4l.2-.5c.2-.4.2-.9 0-1.3.1-.2.3-.6.6-1l.2-.4c.2-.4.2-.8.2-1.3v-.3c0-.1 0-.1.1-.2.1-.3.2-.6.3-1.1.4-.5.7-1.1.9-1.8v-.2c.3-.4.5-.8.5-1.4 0-.1.1-.5.1-.7.1-.3.2-.7.2-1.2.1-.1.1-.3.2-.4.4-.9.8-1.6 1-2.2.4-.6.6-1.3.7-1.7 0-.2.1-.4.1-.5.3-.4.4-.8.4-1.2v-.4c.3-.3.4-.8.4-1.2v-.7c0-.3-.1-1 0-1.3l.3-.6c.3-.8.5-1.4.9-1.7.3-.4.5-.8.5-1.3 0-.1.1-.3.2-.4.2-.4.6-1 .7-1.8l.7-1.6c.3-.4.5-1 .6-1.5.3-.8.4-1.2.5-1.5.6-1.7 1.8-4 3.5-6.3.2-.3.4-.7.4-1.1v-.4c.3-.4.5-.8.5-1.4 0-.5.1-1.1.2-1.7.1-.5.2-1 .2-1.5.3-.7.6-1.4 1-1.9.3-.3.4-.7.4-1.2 0-.1.2-.3.2-.5.3-.5.7-1.2.8-2.1l.9-2c.4-.8.9-2.1 1.1-3 .1-.3.2-.6.3-.8.5-1.2.9-2.4 1.7-3.2.3-.3.6-.8.6-1.3.1-.3.6-1 .9-1.3l.2-.2c.2-.2.3-.5.3-.7.8-.8.6-1.8.5-2-.3-.8-1-1.4-1.9-1.4h-.2c-.5 0-1 .1-1.5.3.4-.2.7-.6.9-1.1.3-.8 0-1.6-.5-2.1l-.4-.4c-.4-.3-.9-.5-1.3-.5-.3 0-.5.1-.8.2-.5.2-.8.6-1 1h-.4c-.7 0-1.3.3-1.7.9-.1.2-.2.4-.2.6v-.3c0-.8-.5-1.7-1.3-2.1 2.1-.2 2.4-1.4 2.4-2.2 0-1.4-1.3-2.3-2.5-2.3h-.2l-2 .2c-.5 0-1 .2-1.5.3-.8 0-1.6.3-2.4.7-.5.3-.9.8-1 1.4-.3-.1-.7-.2-1.1-.2-.3 0-.6 0-.8.1-.4 0-.7.1-1.1.3-.2-.1-.4-.1-.6-.1h-.2c-.7 0-1.3.1-1.9.3-.4.1-.9.2-1.2.2h-.4c-.4 0-.7.1-1 .3l-.4.2h-.4c-.2 0-.4-.1-.7-.1-.6 0-1.1.1-1.7.4h-.1c-.5 0-1.1.1-1.6.1h-.4l.4-.1c.3-.1.6-.2.9-.4.2 0 .4-.1.6-.1.1 0 .3 0 .4-.1l.7-.2c.3-.1.6-.3.9-.5h.4c.4 0 .8-.1 1.2-.4.2-.2.6-.3 1-.4.5-.2 1.1-.4 1.7-.8h.5c.5 0 1-.2 1.3-.5.3 0 .6-.2.9-.4.1-.1.2-.2.3-.2l.6.1h.3c.6 0 1.2-.3 1.6-.8.8-.1 1.5-.4 2.2-.7.1 0 .2-.1.3-.1h.2c.7 0 1.4-.3 1.9-.7 1.3-.2 2.8-.9 4.4-1.7 1-.5 2.4-1.2 2.9-1.2h.3c.3 0 .5-.1.7-.2l1-.5.8.1h.4c.4 0 .8-.1 1.1-.3l.7-.5c1-.1 2.4-.3 3.5-.8h.2c1 0 2.3-.1 3.5-.8l1.8-.3c.8-.1 1.4-.7 1.6-1.4.7-1 1.2-2.2 1.7-3.5.7-.6 1.2-1.6 1.3-2.9.3-.3.5-.7.6-1.2l.5-.8.3-.2c.5-.4.7-.9.7-1.5v-.4l.1-.3c.3-.2.5-.5.6-.9.2-.2.3-.3.4-.5l.5-1c.2-.3.2-.6.2-1 0-.3.6-1.1 1-1.6.5-.7 1.1-1.5 1.4-2.4.1-.1.1-.3.1-.4v-.3c.3-.3.4-.8.5-1.2.3-.3.5-.8.5-1.3 0-.1.1-.2.2-.4.3-.4.6-1 .8-1.8l1.2-2.2c.2-.3.2-.6.2-1 0-.1.2-.4.3-.6.2-.3.4-.7.5-1.1.8-.3 1.3-1 1.3-1.9 0-.2.1-.4.1-.4l.3-.6c.2-.2.4-.6.5-1.1l.3-.5c.7-1.4 1.4-2.9 2.2-4.2 1-.7 1.3-2 1.4-2.6v-.1l.1-.1.1-.1c.3-.3 1.1-1.1 1.1-2.2 0-.2 0-.4-.1-.5.1-.1.2-.1.3-.1.1 0 .2-.1.2-.1.6-.1 1.1-.4 1.5-.9l.6-.9h.1c1-.1 1.8-.9 1.8-1.9 0-.1.2-.3.2-.5.2-.3.4-.8.6-1.3.5-.5.9-1.2.9-2.3v-.2c.4-.3.6-.6.9-.9.3.1.6.2.9.2h.2c.1 0 .2 0 .3-.1H94.2c.2 0 .3 0 .5-.1h.2c.2 0 .3 0 .5-.1l1.6-.4c.6-.2 1.1-.6 1.3-1.1.2.1.5.1.8.1.9 0 1.5-.5 2-1.2h.3c.4 0 .8-.1 1.1-.2.4-.1.7-.3.9-.6.2.1.4.1.6.1h.2c.2 0 .3 0 .5-.1l.3.3c.4.4.4.4.4.5 0 .6.2 1.1.6 1.5.4.3.8.5 1.3.5v.1c.1.3.2.5.3.7-.2.4-.4.8-.4 1.2 0 .7.3 1.2.7 1.5v.1c-.3.7-.2 1.3 0 1.7v.1l-.1.5c-.4.4-.7 1-.8 1.6l-.4.5c-.3.3-.4.8-.4 1.2 0 .1-.2.3-.2.5-.3.6-.8 1.4-.8 2.4 0 .3 0 .8.2 1.2.1.2.2.5.4.6-.2.3-.5.5-.7.9-.1.2-.2.5-.3.7l-.1.6c-.8.7-1.3 1.8-1.4 2.5v.2c-.3.4-.5.9-.5 1.4v.3c-.2.2-.5.4-.7.7-.3-.2-.7-.3-1.1-.3l-.8-.2c-.2-.1-.4-.1-.6-.1-.4 0-.9.1-1.2.4-.5.4-.8 1-.8 1.6v1.6c0 1 .8 1.9 1.8 2h.1c-.1.1-.1.3-.2.5-.3.4-.4.9-.5 1.3-.2.2-.4.4-.6.7l-1-.2c-.2 0-.3-.1-.5-.1-.6 0-1.1.2-1.5.6-.7.7-1 1.7-1 2.8 0 .6.2 1.1.6 1.5.2.2.4.3.7.4-.2.3-.3.7-.3 1 0 .2 0 .4.1.6h-.1c-.9.1-1.8.7-2 1.8 0 0 0 .1-.1.1-.4.8-.9 1.8-.9 3 0 .7.3 1.3.9 1.7l.1.1c.4 1.7 1.7 1.9 2.1 1.9h.2c.4 0 1.6-.3 2-1.9.4.3.9.5 1.5.5h.3c1.4-.1 2.9-.7 4.1-1.2l.8.2h.4c.5 0 1.1-.2 1.4-.6 1.7-.1 3.3-.5 5-.9 1.6-.4 3.1-.7 4.5-.8.4 0 .9-.2 1.2-.5l1.3-1.3 5.6-.6h.3c1.7-.1 4.9-.3 6.1-2l.6-.2c.8-.3 1.3-1 1.3-1.7.3-.4.5-.8.5-1.3 0-.1.1-.5.4-.9.2-.2.3-.5.3-.8l.6-3.2 1.2-1.4c.3-.3.4-.7.5-1.1.1-.3.4-.7.4-1.4.8-.5 1.2-1.3 1.2-2.3 0-.2 0-.4-.1-.7v-.1c.1-.1.1-.2.1-.2l.8-1.7c.6-.2 1.1-.6 1.3-1.2l1.7-4.3c0-.1.1-.2.1-.3.6-.6 1.5-1.3 1.5-2.5 0-.1.1-.1.1-.2l.8-1.6c.5-.5.8-1.2.6-2 0-.1 0-.3-.1-.4.3-.4.5-.9.5-1.4.4-.2.8-.5 1.1-1 .5-.2 1-.4 1.4-.7.4-.3.7-.8.8-1.3 0-.3.1-.5.1-.8.2-1.5.3-2.3.9-2.9l.2-.1c.8-.2 1.4-1 1.4-1.8.1-.4.5-1.3.9-2.3.4.3.8.5 1.3.5h.7c1-.1 1.8-1 1.8-2 0-1.1-.9-2-2-2.1.1-.2.1-.4.1-.6v-.2c.1-.1.1-.2.1-.3l.1-.1c.5-.8 1-1.6 1.1-2.5.6-.6 1.1-1.3 1.1-2.1V31c.5-.5 1.1-1.2 1.9-2.2 2.8-3.3 2.8-3.8 2.8-4.4v-.3l.1-.1.3-.6c.2-.2.5-.6.7-.7l.3-.3c.2-.2.4-.6.5-.9l.2-.7-.2-1.4M51.6 109.5c-.1 0-.1 0 0 0h-.4c-.3 0-.5.1-.8.2-.1 0-.2.1-.4.1h-.2c-1 .1-1.8 1-1.8 2s.7 1.7 1 2c.4.3.9.5 1.3.5.2 0 .3 0 .5-.1s.5-.2.7-.3c.2-.1.5-.2.7-.3.1 0 .2-.1.4-.1.9-.2 1.6-1 1.6-2 0-1.2-.9-2.1-2.2-2.1h-.3s-.1 0-.1.1m17 7.1c-.3.4-.5.8-.5 1.3 0 0 .2 3 2.4 3h.2c.6-.1 1.2-.4 1.6-1 .3-.3.6-.6.8-1.1.4-.3.6-.8.6-1.3.1-.7-.2-1.4-.8-1.8l-1-.8c-.4-.3-.8-.4-1.2-.4-.3 0-.6.1-.9.2-.7.4-1.2 1.1-1.2 1.9m-.9 6.3c-.2.3-.4.6-.5.9-.4.4-.6.9-.6 1.4-.1.2-.3.5-.4.8-.3.3-.4.7-.5 1-.3.3-.5.7-.6 1.1-.3.3-.5.7-.5 1.1-.7.7-1.2 1.7-1.4 2.6-.3.4-.6.8-.6 1.3 0 .1-.1.2-.1.2l-.6 1.5c-.4.4-.7.9-.7 1.5v.1c-.9.2-1.6 1-1.6 2 0 .7.6 2.7 2.4 2.7h.2c.4 0 1-.2 1.4-.7.6-.3.9-.7 1.1-1.1.7-.4 1.1-1 1.1-1.9v-.5-.4c.5-.5 1-1.1 1.3-1.9 0-.1.1-.2.1-.3l.3-.3c.5-.8 1.1-1.8 1.3-3 .2-.3.4-.6.5-.9.3-.3.5-.7.5-1.1.7-.5 1.1-1.4 1.1-2.2v-.1c.2-.2.3-.5.3-.9.3-.3.4-.7.5-1.1.3-.4.4-.9.4-1.5 0-.1 0-.4-.1-.8-.3-.9-1.1-1.5-2-1.5h-.2c-.8.1-1.4.6-1.6.8-.2.4-.4.8-.5 1.2M57.1 144c-.3.3-.5.7-.6 1.1-.2.3-.4.7-.4 1.1l-.3.6c-.3.3-.5.6-.5 1-.2.2-.3.5-.4.8-.3.3-.5.7-.6 1.2-.6.6-1 1.5-1.2 2.4-.2.2-.3.5-.4.8-.1.2-.2.3-.3.5l-.5 1.2c-.4.4-.7.9-.7 1.5-.8.3-1.3 1-1.3 1.9 0 1.3.9 2.6 2.4 2.6h.2c.5 0 .9-.2 1.2-.6.6-.3.9-.7 1.1-1.1.6-.4 1-1 1-1.8v-.4-.4c.4-.4.8-.9 1.1-1.5.1-.1.1-.3.1-.4v-.1c.5-.7 1.1-1.6 1.3-2.8.2-.2.3-.5.4-.7.3-.3.5-.7.6-1.2l.3-.3c.3-.4.5-.9.5-1.4v-.2c.2-.2.3-.5.4-.8.2-.2.4-.5.5-.9.3-.4.5-.9.5-1.6 0-.9-.6-1.7-1.5-1.9l-.4-.1c-.2 0-.3-.1-.5-.1-.4 0-.9.1-1.2.4-.5.4-.7.8-.8 1.2M160.3 31.3c.1.1.2.3.3.4v.1c-.1.2-.2.5-.3.7-.1-.1-.2-.3-.3-.4.1-.3.3-.5.3-.8M91.6 108.2h.6c.1.6.4 1 .9 1.3-.3.1-.6.1-1 .1 0-.3 0-.6-.1-.9-.2-.1-.3-.3-.4-.5M37 115c.1 0 .2 0 .3.1h.4c-.2 0-.4.1-.6.1h-.2v-.2m7 2.3c-.1.6.1 1.3.6 1.7l-.1-.1c.1.1.4.5.8.7-.4.1-.8.2-1.1.3-.4.2-1 .4-1.7.6.3-.5.4-1.2.2-1.7.7-.4 1.1-.8 1.3-1.5M48.1 118.8h.6c-.2.1-.3.1-.5.2-.1.1-.3.2-.4.2.1-.1.2-.2.3-.4m77 22.6c0 .1 0 .2-.1.3h-.1c0-.1.1-.2.2-.3M108.4 153.4c0 .1 0 .3.1.4l-.7 1.2V154.4v-.2l.2-.4c.2-.1.3-.2.4-.4m-56.7 12.9c0 .4.1.9.4 1.2l.3.4.6.6c-.2.2-.4.5-.6.7-.2-.1-.4-.1-.6-.1h-.2c-.4 0-.7.1-.9.2 0-.6.2-1.2.4-1.9.1-.3.2-.6.2-.9.1-.1.2-.2.4-.2M168.3 5.8c-.5.4-2.7 4.7-2.7 4.8l.1.1c0 .7-2.1 2-1.4 2.6-.7.6-3 2.9-3 3.5-.4.2-1.3.9-.8 1.2l-1.3 1.8-.3 1.1c-.3.3-1.7 1.6-1.4 1.8l-.7 1c.1.1.3.4.3.5 0 .5-4.4 5.7-5.2 6.2-.1.5.5.5.5.7 0 .3-.9 1.1-1.2 1.4l.1.4c0 .5-.5 1.3-.8 1.8-.1.1-.3.3-.3.4 0 .3-.4.4-.5.6.1.2.3.5.3.8-.4.6-2.9 6-2.7 6.5l-.7.2c-1.7 1.3-1.7 3.3-2 5.3-.4.3-.9.5-1.4.5-.7.1 0 1-1.2 1.1-.3.5-.7 1.1-1.2 1.5l.5.2-.5.6c0 .5 0 1.2.1 1.7-.4.2-1.4 2.6-1.7 3l.1.2c0 .7-2 1.6-1.4 2.1l-1.7 4.3v-.3c-.5 0-.4.6-.9.6l-1.2 2.5c-.7.1-.3 1.5-.3 1.8 0 1.4-1.2-.2-1.2 2.2 0 .5-.4.8-.4 1.3l-1.6 1.8-.7 3.7c-.4.6-.8 1.4-.8 2-.7.1-.7.8-.5 1.2l-1.4.5c0 1.4-4.3 1.6-5.1 1.6l-6.3.7L114 85c-3.4.3-7.2 1.8-10.4 1.8l-.3.5-1.4-.3c-1.2.5-2.7 1.2-4 1.3h-.1c-.3 0-.4-.1-.4-.5 1-.1.3-3.4 1.2-3.5 1-.1 1.3-.8 1.3-1.7l.5-1.1c.7-.1.7-1.2.5-1.6l.5-1c.5 0 .4-.3.4-.7 0-.3.3-.4.5-.4 0-.5.4-2.4 1-2.4 0-.4-.3-.5-.7-.5-.2 0-.5.1-.6.1-.1-.1-.3-.5-.5-.5-.5 0-.7 1.1-.7 1.6-.8.1-.5 1-.5 1.5l-1.4 2.6.3 1.4c-.1.3-.4 1.7-.7 1.8h-.1c-.4 0-.7-.3-1-.6-.3 1.1-2.3 4.9-3.1 5.9 0 .1 0 .9-.3.9-.4 0 0-1.7-.8-1.7-.1 0-.2 0-.4.1 0-.9.5-1.7.9-2.6 0-.1 0-.4.3-.4s.6.3.8.6c0 .1 0 .4.2.4.3 0 .7-.4.8-.7 0-.2-.1-1.5.4-1.5h.2c0-.8-.5-.7-.5-1.4l1.7-2.1 1-3.1c.1.1.3.4.4.4.3 0 .3-.7.3-.8 0-.5.1-1.2.5-1.6 0-.9 1.3-1.2 1.6-2.1l.4-1.6.5-1c0-.1 0-.7.3-.7.4 0 .2 1.5.2 1.7 0 .4-.1.9-.5 1.2l-.4 1.2 1.4-.4 1.2-.9c.3 0 .4-.2.4-.4 0-.4.1-.5.5-.6l.9-2.7c.5-1.7 2-3.6 2-5.4 0-.1-.1-.2-.2-.2-.1-.1-.2-.3-.5-.3s-.3.5-.3.7l-.4.9h-.5l-.7.4c-.9.1-.4 1.6-1.3 1.7 0 .1 0 .5-.1.5s-.4-.4-.4-.5c.1-.5.7-1.6 1.3-1.7l.3-1.6c.3-.4.5-.7.9-1l.5-1.4c.1-.1.5-.4.5-.6 0-.2-.2-.2-.4-.2s-.5.1-.6.1h-.1c-.4 0-.4-.4-.4-.7 0-1 1-1.8 1-2.8l.8-1v.2c0-.4.1-.8.7-.8l.4-2.5h-.1c-.6 0 0-.8.2-1.1-.4-.2-.5-.7-.5-1.1-.1-.1-.5-.3-.5-.5 0-.3.4-.3.5-.3l.5-1.5-1-.6-.3-1.3h-.1c-.5 0-.8-.4-1.4-.4h-.1c0-2-2-2-2-3.4 0-.1 0-.9-.1-.9-.4 0-.7 1.5-1.3 1.5l-1-1c-.1.4-.7.6-1 .6v.9c-.2.1-.4.1-.6.1-.5 0-1-.1-1.5-.3 0 .4-.5 1.5-.8 1.5-.1 0-.1-.1-.1-.3l-2 .2c-.4.3-.5.8-.5 1.2l-1.6.4c0-.4-.1-.5-.2-.5-.2 0-.4.3-.6.6-.2-.2-.3-.5-.5-.5-.1 0-.2.1-.2.5h-.1c-.6 0-.6-.9-.5-1.3.1-.1.4-.3.4-.6 0-.2-.2-.2-.4-.2h-.2l-.8 1.1c-.9.1-.5 2.1-2 2.3-.4.3-.3 1.2-.3 1.6 0 .5-.1.9-.7 1 0 1.2-1 1.9-1 3l-.8.1c-.5 0-.8.2-.8.7l-.7 1c-.8.1-1.2.6-1.8.7 0 .5-.3.7-.6.7-.1 0-.3 0-.4-.1l.4 1.4h.1c.1 0 .2 0 .2.1 0 .4-.4.7-.7 1-.8.1-.4 2.5-1.4 2.6-1.2 1.8-2.1 3.8-3 5.7 0 .5-.5.6-.5 1.2-.3.4-.4.9-.4 1.5-.5 0-.5.4-1 .5 0 1.2-1 1.9-1 3.1l-1.4 2.6c0 1-1 1.7-1 2.7-.7.1-.5.6-.5 1.1 0 .3-.1.4-.4.4l-.1 1.2c-.5 1.5-2.5 3.1-2.5 4.7l-.5 1c-.8.1-.1.9-.9 1l-.5 1.4v.8l-.5.4L65 92c-.4 0-.3.4-.3.7 0 .3-.3.4-.5.4 0 .7-.1 2.5-1 2.6-.4 1.2-1 3.1-2 4.1v.3l-2.2.3c-.7.6-1.8.7-2.8.7h-.6c-.6.4-2.5.8-3.5.8h-.2l-1.2.8-1.4-.3-1.6.8h-.3c-1.7.2-6 3-7.8 3h-.3c-.2.4-.6.7-1 .7-.1 0-.2 0-.3-.1-1 .3-2.3 1-3.3 1h-.1l-.5.7-1-.2c-.5 0-1 .4-1.4.6H31c-.3 0-.4.2-.3.5h-1.2c-.9.9-2.2.8-3.3 1.6-.2-.1-.6-.2-.8-.2h-.1l-.7.1-.3.7-.7.2-.4-.1c-.1 0 0 .2-.4.2-.1 0-.2 0-.4-.1l-.5.4-1.6.3-1.4.8-.3-.1c-.1 0-.4.2-.4.4h-.5c-.4 0-.9.1-1.3.2-.1 0-.3-.1-.4-.1-.2 0-.3.1-.4.3-.8.2-1.6.4-2.2.8.3.2.8.5.8.8h-.5l-1.8.4c-1.7.4-3.5 1-5.1 1.6-.3 0-1.3.1-1.3.4 0 .1.3.2.3.2l2.2-.1.7-.4 1.8.2c.6-.1 1.1-.3 1.7-.3.2 0 .5 0 .7.1l.7-.3c.2 0 .5.1.7.1 1.3 0 2.9-.5 4.2-.5l.5-.3c.1 0 .9.1.9-.3.1.1.2.1.4.1.6 0 1.4-.2 1.8-.3.4 0 1.2-.2 1.8-.2.3 0 .5 0 .6.1.4-.3.8-.5 1.2-.5.2 0 .3 0 .5.1l1.2-.1.8-.5h.4c1 0 2.1-.5 3-.5h.1l.5.3c.4-.2 1-.5 1.4-.5.1 0 .4-.1.7-.1.3 0 .6.1.6.3v.3l-.8.2-.4-.1c-.1 0-.4.2-.4.3-1.7.9-3.9 1.1-5.9 2.1l-.4-.1c-.3 0 .3.6.3.6-.8.1-1.6.1-2.2.6-.3 0-1.3.2-1.3.5s.3.3.6.3h.2c.5 0 1-.2 1.4-.5.1 0 .2.1.4.1.4 0 .9-.2 1.2-.5l2.2-.1c.4-.1.9-.4 1.3-.4.1 0 .3 0 .4.1.6-.5 1.4-.7 2.1-.7.2 0 .4 0 .6.1l.8-.3c.2.1.4.1.6.1 1 0 2.6-.5 3.6-.5.2 0 .5 0 .6.1.3-.4.7-.6 1-.6h.3c.3 0 .6.1.6.3 0 .7-2.9 1.2-3.5 1.2l-.4-.1c-.1 0 .2.4.4.4l-.3.7-.5-.1c-.5 0-1.4.6-2.2.6h-.1l.1.6 1.3.3c.5-.1.9-.2 1.4-.2h.6l.7-.6 1.4-.1-.5.6-.8.3-.5-.1c-.1 0 .4.2.5.3l1.4 1.3c-.9.6-2 1-3 1l-.4.3c-.1-.1-.2-.1-.3-.1h-.2c-.2 0-.1.1-.3.1-.1 0-.2 0-.4-.1-.3.5-.9.7-1.4.8l.5.1c.4 0 .8-.2 1.2-.5h.3c.5 0 .9-.3 1.5-.3h.3c1.3 0 5.1-1.1 6.2-1.6.3-.2 1.4-.3 1.4-.4l.5.3.5-.6c.2 0 .4.1.6.1.4 0 .9-.1 1.1-.5.7-.3 1.4-.5 2.1-.6.1 0-.3.2-.3.3-.3.2-.3.4-.3.7-.5.7-1.4 1.8-1.4 2.6-1.3 1.3-1.8 3.2-2.5 4.8 0 .4-.9 2.7-1 2.8l-1 2.3c0 1.2-1 1.9-1 3-.7.8-1 1.8-1.4 2.7 0 1-.4 2.3-.4 3.6-.9.1-.5 1.2-.5 1.7-1.4 2.1-3 4.7-3.8 7 0 .3-.8 2.5-.9 2.6l-.9 2c0 1-.9 1.6-.9 2.7-.7.7-1 1.7-1.3 2.5-.7.7-.4 2.4-.4 3.2-.8.1-.4 1.1-.4 1.6-.7.7-.4 2.3-1 2.4 0 .8-1 2.6-1.3 3.2 0 .8-.4 1.6-.4 2.4-.4.2-.5.7-.5 1.1-.1.5-.5 1.1-.9 1.5 0 .9-.4 1.5-.4 2-.8.1-.4.6 0 .8-.1.3-1.9 3-1 3l-.4 1.1c0 .5.4.9.4 1.4l-.8.7.4.5-.7 1.1-.3 1.3h.9v-.9l.3.9-.8 1.1.5.5h.1c.4 0 .7-.4.7-1 .9-.7 2-1.7 2.3-2.9 0-.5.4-.7.4-1.2h.3c.4 0 .7-.4.7-.8 1-1.8 2.9-4.7 3.5-6.6 0-.9 1.3-1.2 1.3-2.1l.9-1.3v1.2c-1.2.6-.8 2.2-1.3 2.3-.2.3-.9 1-.1 1h.1l-.5 1.4c0 .4-.1.8-.4 1.1l-.4.9c-.1.1-.5.4-.5.7 0 .2.2.2.3.2h.1l.1 1.2c-.4.3-.7.7-.2.7h.2l.4.7c0-1 .9-1.6.9-2.6l.9-1.8.4-.3.9-2.2c0-.9 1.3-1.2 1.3-2.1.3-.4.7-.8 1-1.1 0-.3 0-.8.4-.9l.7-1.2c.3 0 .8-.1.9-.5l1-.5.7-1c.1.1.3.4.4.4.3 0 .3-.4.3-.5.4 0 .5-.7.5-1l1.3-2.2h.3c.4 0 .7-.2.7-.6.3-.3.4-.7.4-1.1l1.3-2.1c0-.8 1.7-1.1 2.2-1.1 0 .8-.3 1-.7 1-.3 0-.6-.1-1-.2 0 1.6-.9 3.5-.9 5.2-.4.3-.4.8-.4 1.2l2.1 1.4h.5c0-.9 0-.9.9-1 0 .3-.3 2.2.4 2.2.4 0 .5-.7.5-1h.4c.5 0 .3-1.3.9-1.8 0-.5.4-.7.8-.7h.1l.9-2c0-.8.7-1.2 1.3-1.4l.4-1.2c.4-.2.5-.7.5-1.1l.5-.7c0-.5.4-.9.9-1l.8-.9v.4c0 .2.2.3.5.3h.1l.8-.7v-1l-.5-.1c0-.7.5-1 .5-1.6h.3c.4 0 .7-.2.7-.6l1-1.9c-.3-.1-.7-.5-.7-.7 0-.1.3-.2.4-.2l.7-1.2c0-.5-.2-.6-.6-.6-.3 0-.6.1-.9.1l.4-1.1h.3c.4 0 .7-.4.7-.8 0-.1.2-.2.5-.2h.8c.4-.8.8-1.8.9-2.7h.1c.2 0 .4-.3.6-.5-.1.9-.9 1.5-.9 2.4 0 .1 0 .5.2.5.5 0 .9-.5 1.2-.8 0-.7.5-1.4.5-2l-.9-.4.5-1.6c.4-1.3 1.4-1 1.4-1.7l.5-1.2c.4-.3.5-1 .5-1.3l.7-.7v-.1c0-.5.4-.9.9-1l.9-1v.3c0 .4.1.6.5.6h.1l.9-.9v-1l-.5-.2c0-.7.5-1.1.5-1.7h.3c.4 0 .8-.2.8-.7l1.2-2.1c-.3-.1-.7-.5-.7-.7 0-.3.3-.3.4-.3l.7-1.4c0-.6-.3-.7-.6-.7s-.6.1-.9.1c.4-.3.5-1 .5-1.5l1-.9 1.4.1c.5-1.7 1.4-3.9 1.4-5.7.3-.8.9-1.5 1.6-2 0 .1 0 .5.1.5.4 0 .4-.8.4-.9.7-1.2 1.4-2.5 2-3.7l1-.9c0-.1 0-.8.4-.8.1 0 .1.4.1.5-1.2 1.1-1.8 3.6-2.1 5.1l-.9.1-.5 1.4c0 .9-.5 1.7-.5 2.7 0 .3.1 1.1.5 1.1.5 0 .4-1.2.4-1.5 0-.4.1-.7.7-.7l.9-2.6c1.3-1.3 2.6-4.5 2.9-6.3h-.1c-.1 0-.2 0-.2-.1s.5-.4.7-.4c.4 0 .9-.2 1.2-.6l.7-.1.4-.6 1.3-.1.4-.6 1.2-.1.4-.4c4.4-.4 8.2-2.8 12.8-3.2 1-.1 6.5-1.2 5-2.3.4-.3.8-.7.2-.7h-.2c0-.1 0-.4-.1-.4-.3 0-.3 1.3-.7 1.4-.3 0-.6-.3-.8-.6h-.1c-.4 0-1.7-.1-1.7-.2 0-.4.9-.9 1.4-.9.2 0 .4.1.4.4 3-.3 6-1.8 9.1-2.1h.1c.4 0 .7.2.7.7l-.7 1.2c-.4 0-1 .2-1 .6l.4.9c-.3.8-1.2 3.2-1.2 4.1l-.5.4v1c-.7.7-.9 1.8-1 2.7-.1 0-1 2.4-1 2.6-.4.4-.5 1-.5 1.5l-.4.9c0 .8-.7 2.1-1.4 2.2 0 .4-.1 1.1-.5 1.4v1.8l-1 .5v1.6l-1.4 3.1-.1 1.8c-.8.6-1.7 2.4-2 3.3 0 .9-2.5 7.5-3 7.7l-.5 3.3-1.4 2.2v.8c0 .3.2.3.4.3h.2c.9-.1.8-.2.8-1l.5-.7v-.9h.4c.5 0 .5-.3.5-.8.5-.3 1-.9 1-1.5l.7-1.4h.1c.2 0 .3.1.3.4 0 .8-.7 1.8-1 2.4.3.1.5.3.5.6 0 .1-.4.2-.5.2 0 1.2-1 2-1 3.5 0 .4.1.6.5.6h.1c1.3-.1 1-.5 1-1.5l1-.7c0-.5.1-1.2.5-1.5l1.3.3c.1 0 .2-.1.3-.1 0 0 .1 0 .1.1 0 .3-1 .6-1.2.6v2.9c0 .4 0 1.2-.5 1.2l-.5 1.1c-.3.2-.5.4-.5.7 0 .2.2.2.3.2h.1c0 .4-.1 2.9.6 2.9.3.2.9 1 0 1 0 .8 0 1 .5 1h.6c.5 0 .4-.3.4-.7 0-.3.1-.4.4-.4-.4-.1 1-.6 1.2-.6v-1.4l1.4-2.6c0-.3-.1-.5-.2-.5s-.2.1-.3.2v-.4c0-.1.4-.9.4-.9.1 0 .1.3.1.4l1 .8.4 1.1 1.6-.3v-1.2l.5-.6c0-.1 0-.7.1-.7.3 0 .5 1 .5 1.1 0 .4-.1.8-.5.8 0 .1-1.6 6.1-2.1 6.2 0 1.4-.5 2.8-.5 4.4l.5-.2c0-.5.5-.8.5-1.3.4-.2.5-.7.5-1.1 0-1.2 1.4-2.2 2-3.3l.5-3.2c.7-.1 2.9-3.3 2.9-3.6 0-.1 0-1.2.3-1.2.2 0 .2.6.2.8l1.3.7c.8-.1 1.6-.8 2.2-1.2.1 0 .5 0 .5-.3 0-.4-.3-.8-.5-1l-.1-1.7c-.2 0-.4-.2-.4-.5 0-1.3.7-2.1 1.4-3.1 2-.2 3.1.4 3.1-1.7.9-.1.4-2.1 1.2-2.2 0-.7.3-2.9 1-3 .4-.8 1-1.7 1.7-2.2 0-1.7 1.6-1 1.6-2.6l.5-1.1c1.3-.1 1-2.8 1-3.6l.5-1c.5 0 .4-.3.4-.7 0-.3.3-.4.5-.4l-.1-1 .8-1h.2c.2 0 .4 0 .4.2 0 .3-.4.7-.7.8 0 .4-.9 3.2-1 3.4 0 .5-.5.8-.5 1.4 0 .4.1 1 .5 1.3l1-1c0-.1 0-.5.1-.5.4 0 .4.6.4.7l-.8 1.2v.3c0 .5-.3.8-.8.9l-.8 3.1-.7.8c.4 0 .5.5.5.7h.1c.2 0 .3.1.3.2 0 .5-.7 1.1-.9 1.5 0 .4-.1.9-.5 1.1 0 .4-.1.9-.5 1.1l-.8 2.2.1 1c.9-.1 1-.9 1.2-1.7l.9-.5c0-.4 0-2.2.5-2.4 0-1 .5-3.2 1.4-3.3.1-.5.5-2.7 1.2-2.7 0-.5.1-1.1.4-1.5 0-.4.1-1.1.5-1.4l1-2.7.9-2.7c.1-.3 1.2-5.1 2-5.1l1-2.7c.4-.4.5-1 .5-1.5.7-.1.5-.6.5-1 0-.5.5-.8.5-1.5l.5-.6v-1l1.4-2.6c.5-.4 2.5-3.6 2.5-4.1l.5-1.2 1-2.3c0-.9.5-1.2.5-1.9l.8-1.5.8-.6 1.3-.1.3-.4 1.2-.1.4-.6 3.3-.9c0-.7 1.4-1 2-1.1.3-.3.4-.8.4-1.2l-.9-.7h-.2c-.4 0-.7-.1-1.1-.4l-1.7.1c.7-.4 1.6-1.2 2.3-1.2.7-1.2 1.2-2.5 2.2-3.5l1-.4c0-.7 1.8-1.2 2.3-1.2.7-.4 1.6-1 2.3-1.1l.4-.6 1.2-.1.5-.4c.9-.1 5.6-1.8 5.7-2.3-.2-.1-.5-.2-.7-.2h-.4c-.8.1-.8.6-1.4.6l-.7.6-2 .2-1 .6c-.7.1-2.6 0-3 .8l-3.2.9 1-1.1c.7-.1 1.8-.9 1.8-1.7h-.4-.1c-.4 0-.4-.3-.4-.6l-.5-1c2.1-.4 4.4-1.8 6.5-2.5.5-.2 4.3-1 4.3-1.7.4 0 1-.2 1.3-.6 1-.1 7.6-1.6 7.7-2.1.3 0 1.3-.1 1.3-.5l-.1-.1-2 .2c0-.4-.3-.5-.7-.5-.4 0-1 .2-1.3.2-1.4.1-2.9 0-4.2.9l-.7-.5-2.5.2-.4.6c-1.6 0-3.4.2-5 .7l-1.2-.2-.4.6-1.2.1c-.1.1-.4.6-.5.6-.2 0-.2-.2-.2-.4-1.3.5-2.6.6-4 .7h-.5c-.2 0-.4 0-.4-.1 0-.4.5-.7.5-1.1.4-.3.5-1 .5-1.4l.5-.4V71c.7-.1.5-1 .5-1.3 0-.7.5-1.2.5-1.9l.7-.8c.4 0 .3-.4.3-.7 0-.3.3-.4.5-.4 0-1.2.9-2 .9-3.1.1 0 .7-.3.7-.4 0-.1-.2-.1-.3-.1h-.1l-.5-.5.5-1.1c-.7-.6.5-.7 0-1.2l-.3-.1.4-1.2.8-1c-.1-.1-.4-.4-.4-.6 0-.1 2.1-1.9 2.2-2l-.9-.8c.7-.4.4-.9.8-1.4l.4-1.3c.8-.6 1-1.4 1.8-2 0-1 .3-2.1.5-3.2l.8-1.1c.1 0 .4 0 .4-.3 0-.4-.4-.7-.7-1.1l-2.1 1.5V43c-.3-.2-.5-.6-.5-1 0-.3.1-.4.4-.4l.7-2.5c.7-.1.7-1 .7-1.4 0-.3 0-2.2-.4-2.2-1 .1-2 4.1-2.1 4.1-.1 0-.1-.2-.1-.2 0-.4-.1-.9-.5-1l.5-1.4-.7-.6c0-.5.3-1.1.7-1.4l.7-2.7c.5-.4.1-.9-.3-1.2.7-.4 1-1.1 1.7-1.6-.1-.2-.3-.4-.3-.6 0-.7.4-1.2.8-1.6.3-.5.4-1.1.4-1.6 0-.1 0-.2-.1-.2-.3 0-.4 0-.5.2l-2.3 4.8c-.4.3-.1.5-.1.9s-1.2 1.1-1.4 1.7c-.5.2-.8.9-.7 1.4l-1.2.9c.1-.3.3-.7.3-.9 0-.1 0-.3-.1-.3-.4 0-1 1.1-1.2 1.4l-1.3.1c.3-.3.7-.8.7-1.2l-.1-.5-.5-.2v-.3c0-.4.3-.8.5-1.1l-.1-1c.1-.1.4-.3.4-.6s-.5-.4-.8-.4h-.1c.4-.6 1.4-2 1.2-2.6l1.3-2.5-.1-.2c0-.8 1-1.7.7-2.4l.1-.5s0-.2-.1-.2l-.3.2c-.5 1.5-1.3 2.9-2.2 4.1l-.1-.2c0-.8.8-1.8 1.2-2.5l.3-1.6c.4-.3 1.8-2 1.6-2.4.1 0 .3-.2.3-.3 0-.3-.4-.4-.5-.5h-1.3c.5-1.1 2.1-5.7 2.9-6.3l-.1-.5c0-.4.3-.5.5-.7l-.6-1.4.5-.7h-.1c-.1 0-.1-.3-.1-.3 0-.8.6-2.2 1-3.1zm-10.1 25.1l-.4-.1c.1-.1.3-.2.5-.2.1 0 .2 0 .2.1-.1.2-.2.2-.3.2zm-1.3 4.7l1-1.1v-.4c0-.1 0-.9.3-.9.1 0 .5.5.5.6 0 .1 0 .1-.1.1l-.3.5c-.5.2-.4.8-.8 1.1l-.6.1zm-5.4 3.6c.1-.1.2-.2.3-.2.1 0 .2.1.2.1l-.5.1zm17.7 7.4c-.2 0-.2-.4-.2-.5 0 0 .1-.1.3-.2.1 0 .1.1.1.2 0 .3 0 .5-.2.5zm-.5 1c-.1 0-.3-.4-.3-.5l.5.1c.1.1.1.4-.2.4zm-.5 1.1c-.1 0-.3-.4-.3-.5l.5.1c.1.1.1.4-.2.4zM104 69.2c-.3 0-.4-.1-.4-.5v-.4c.3.2.5.5.5.9h-.1zm-4.8 3.1l-.7-.1v-1.6l1 .3h.2c.2 0 .4 0 .4.2 0 .3-.4.6-.5.7 0 .4-.1.5-.4.5zm-4 7.6c0-.5.1-1.1.5-1.5l1.2.3-.1 1.1-1.6.1zm65.4.9c-.1 0-.3-.4-.3-.5.1 0 .1-.1.3-.2.1 0 .2.1.2.2.1.2.1.5-.2.5zm1.1-.3c-.2 0-.3-.1-.3-.3h1c-.1.1-.4.3-.7.3zm-2.4.8c-.5 0-.9-.2-1.4-.3 0-.3.4-.3.5-.3h.1c.4 0 1.5.1 1.5.4 0 .1-.5.2-.5.2h-.2zm4.2.7v-.1c0-.3 0-.5.4-.6.1 0 .5.1.5.2 0 .4-.6.3-.9.5zm-2.7 1.9c-.3 0-.4-.1-.4-.3h1.6c-.2.2-.8.3-1.2.3zm-13.1 15.7c.3 0 .7-.4 1-.4.3 0 .3.8.3.9h-.1c-.9.1-.8 1.1-.8 1.8l-.5.6s-.7 2-.9 2c-.3 0-.1-1.4-.4-1.5-.1.4-.1.8-.1 1.2-.7.6-.3 2.1-1 2.3 0 .7-.5 1-.5 1.6l-1 .6c0 .9-.9 2.2-.9 3.1l-1 1c0-.8.5-.2.5-1.6 0-.6-.2-.7-.6-.7h-.2l-.5-.5c-.4.6-1 1.5-1.7 1.6l-.5-.9c.8-.1 1-1.5 1-2.2.2-.3.5-.6.7-.6.1 0 .2.1.2.5l.5-2 .3-.2c.1 0 .1.1.1.1l-.4.8 1.2.5.4 1.5c1.4-.1 1.2-3.6 2.5-3.7 0-.3-.1-.7-.5-.7-.3-.2-.5-.6-.5-.9 0-.4.3-.4.5-.4V102l1-.7c0-.7.5-1.2.5-1.9l1.4-.1c-.2.2-.2.3 0 .3zm-5.7 3.9c-.1-.1-.5-.3-.5-.5 0-.3.4-.3.5-.3 0-.5-.3-1.4.5-1.5 0-.3.1-.5.4-.6 0 .1 0 .5-.3.5h-.1v1.4c0 .5-.1 1-.5 1zm-39.2-.2c-.1 0-.3-.4-.3-.5l.5.1c.1.1.1.4-.2.4zm-1.9.2c-.1 0-.3-.4-.3-.5l.5.1c.1.1.1.4-.2.4zm7.5.6c-.2 0-.3-.1-.3-.4h.1c.2 0 .5.1.5.3l-.3.1zm-14.3 3.8l-.1-.9c3.3-.3 4.8-1.9 10-2.3l.4-.6.8-.1.5.5c-2.9.3-7 3-10 3.2h-.1c-.2 0-.5-.1-.5-.3-.5 0-.5.4-1 .5zm-2.2-1.7c-.1 0-.3-.4-.3-.5l.5.1c.1.1.1.4-.2.4zm13.4.3c-.8 0-1.5-.2-2.2-.3l1.3-.2 1.3.5h-.4zm-5.8 1.4c-.1 0-.3 0-.3-.1s.8-.5.9-.5c0-.4.5-.6.9-.6.2 0 1 .1 1 .3-.7.4-1.6.8-2.5.9.1 0 0 0 0 0zm-10.1 1.9c-.1 0-.3-.2-.3-.4l.9.1c-.1.2-.3.3-.6.3zm-37.6 1.8l.1-.1h.1c.1 0 .2 0 .2.1h-.4l-.1.1h-.1c-.1 0-.2-.1-.2-.2h.1c.1 0 .2.1.3.1zm-.9.4c-.1 0-.2 0-.3-.1 0-.1.1-.3.3-.3.1 0 .1.1.1.2v.1c0 .1 0 .1-.1.1zm-.5.3c-.1-.1-.4-.4-.4-.5h.2c.1 0 .3 0 .3.1l-.1.4zm-11.2.4c.4-.2.9-.3 1.3-.4l2-.2c.1 0 .5.1.5.3 0 .3-1 .2-1.2.2l-1.7.4h-.2c-.3 0 0 .5-.6.5h-.1l-.3-.4s-.3-.2-.5-.2c-.1 0-.1 0-.1.1l-.8-.1c.4-.3 1-.4 1.4-.4.1.1.2.2.3.2zm100.6 2.8c-.2 0-.3-.1-.3-.2 0-.5.7-1.1.9-1.4 0-.1.1-1.4.4-1.5.1 0 .1.8.1.9l1 .4-.5 1.1-1 .4s0-.4-.1-.4-.4.5-.5.7c.1 0 .1 0 0 0zm-57.3-.5c-.3 0-.4-.1-.4-.5.2 0 .5.2.5.5h-.1zm-34.1 1.8c-.1 0-.4-.1-.4-.4l.4.4zm22.1 2.1c-.1 0-.4-.9-.4-1 .4-.3.5-1 .5-1.4l1 .8c-.7.3-.3 1.1-1 1.1 0 .1 0 .5-.1.5zm66.3 2.7c-.1-.4-.3-1-.3-1.4 0-1.3 1.4-2.2 1.4-3.5l1.4.3-.8 1.6v.1c0 1.3-2.3.5-.8 1.9-.7.1.1.9-.9 1zm-90.6-3.7c-.1 0-.3-.2-.4-.4l.5.2c.1.1.1.2-.1.2zm34 2.1l-.5-.2v-1l.5.2v1zm59.4 1c-.1 0-.3-.4-.3-.5l.5.1c.1.1.1.3-.2.4zm-6.1 2.5c-.1 0-.5-.2-.5-.3 0-.1.4-.2.5-.2 0-.1 0-.9.3-.9.2 0 .2.6.2.8l-.5.6zm3.3-.7c-.1 0-.3-.4-.3-.5.1 0 .1-.1.3-.2.1 0 .2.1.2.2 0 .2 0 .5-.2.5zm-66.8.9c-.2 0-.2-.4-.2-.5 0 0 .1-.1.3-.2.1 0 .1.1.1.2-.1.2-.1.5-.2.5zm-.6.9c-.1 0-.3-.2-.3-.4.1 0 .3-.2.3-.2.1 0 .2.1.2.2.1.3 0 .4-.2.4.1 0 .1 0 0 0zm-.5 1.1c-.1 0-.3-.4-.3-.5l.5.1c.1.1.1.4-.2.4zm62.5 1.5v-1.4l1-.1v1.2l-1 .3zm-63.4.4c-.1 0-.2-.1-.2-.2s.3-.2.4-.2c0-.1 0-.9.3-.9.2 0 .4.4.4.5-.1.4-.5.8-.9.8zm62.3.2c-.2 0-.4-.2-.4-.5H130.2c.1 0 .2 0 .2.2.1.1.1.3-.1.3.1 0 0 0 0 0zm.8.4c-.1 0-.3-.4-.3-.5l.5.1c.1.1.1.4-.2.4.1 0 0 0 0 0zm-63.6.6c-.1 0-.3-.4-.3-.5.1 0 .1-.1.3-.2.1 0 .2.1.2.2.1.3.1.5-.2.5zm62.2.1c-.1 0-.3-.4-.3-.5l.5.1c.1.1.1.4-.2.4zm-62.7.9c-.1 0-.3-.2-.3-.4.1 0 .3-.2.3-.2.1 0 .2.1.2.2 0 .2-.1.4-.2.4zm61.8.6c-.1 0-.3 0-.3-.2 0-.3.3-.5.4-.8.3.1.5.5.5.7s-.4.3-.5.3h-.1zm-65.1 5.2l.7-1.5c.4 0 .3-.4.3-.7 0-.3.3-.4.5-.4 0-.8.5-2.5 1.6-2.6 0 .9-.5 1.7-1 2.6-.4.2-.5.6-.5 1-.4.5-1.1 1.1-1.6 1.6zm10.7-4.1c-.1 0-.2 0-.2-.2H74.5c.1 0 .2 0 .2.2H74.4zm-1.5 1.3c-.2 0-.2-.2-.2-.4.1 0 .1-.1.3-.2.1 0 .1.1.1.2 0 .3 0 .4-.2.4.1 0 .1 0 0 0zm-1.4 1.5c-.2 0-.3-.1-.3-.3h1c-.2.1-.5.3-.7.3zm54 1.2l-.5-.1v-1.2l.5.2v1.1zm-62.1 1c-.1 0-.2 0-.2-.2H63.5c.1 0 .2 0 .2.2H63.4zm.2 1c-.2 0-.4-.2-.4-.4h.3c.1 0 .2.1.2.2 0 .2 0 .2-.1.2zm9 1.3c-.2 0-.4-.2-.4-.5H72.5c.1 0 .2 0 .2.2s0 .3-.1.3zm-10.6.3c-.1 0-.4-.6-.4-.7.2 0 1.2.2 1.2.2 0 .1-.7.2-.7.2.1 0 .1.3-.1.3zm61.2 1.2c-.2 0-.2-.2-.2-.4h.1c.2 0 .5.1.5.3l-.4.1zM59.3 145c-.2 0-.2-.4-.2-.5l.4.1c-.1.1-.1.3-.2.4zm-.5.8c-.1 0-.3-.2-.3-.4l.5.1c0 .1-.1.3-.2.3zm49.9.6c-.1 0-.3-.4-.3-.5.1 0 .1-.1.3-.2.1 0 .2.1.2.2.1.2.1.4-.2.5zm-50.3.3c-.1 0-.3-.2-.3-.4h.3s.1 0 .1.1c0 .2 0 .3-.1.3zm-1 1.7c-.1 0-.2 0-.2-.1s.4-.2.4-.2c0-.1 0-.7.1-.7s.4.5.4.6c-.1.1-.4.3-.5.3-.1.1-.1.1-.2.1zm59.1.8l-.5-.5.5-.6.5.5-.5.6zm-59.4.4c-.1 0-.3-.4-.3-.5.1 0 .1-.1.3-.2.1 0 .2.1.2.2 0 .2 0 .5-.2.5zm64.6.3c-.2 0-.2-.2-.2-.4h.1c.2 0 .5.1.5.3l-.4.1c.1 0 0 0 0 0zm-65.2.5c-.1 0-.3-.2-.3-.4l.5.1c.1.2 0 .3-.2.3zm58.9.6c-.3 0-.4-.1-.4-.5.2 0 .5.2.5.5h-.1zm-61.7 4.5l.5-1.2c.4 0 .4-.3.4-.7 0-.1.1-.3.4-.3 0-.8.4-2.3 1.3-2.3 0 .9-.4 1.6-.9 2.3-.4 0-.4.6-.4.8-.3.5-.8 1-1.3 1.4zm8.2-2.4c-.1 0-.1-.3-.1-.4h.2c.1 0 .1 0 .1.1-.1.1-.1.3-.2.3zm-1.3 1.4c-.1 0-.3-.2-.3-.4h.9c-.1.2-.4.4-.6.4zm-7.2 1.9c-.1 0-.2 0-.2-.2H53.5c.1 0 .2 0 .2.2H53.4zm.1.9c-.2 0-.4-.2-.4-.4h.3c.1 0 .2.1.2.2.1.2.1.2-.1.2zm-1.3 1.3c-.2 0-.4-.5-.4-.6.2 0 1 .2 1 .2 0 .1-.7.2-.7.2l.1.2zm9.3-.1c-.1 0-.3-.2-.3-.4l.5.1c.1.1-.1.2-.2.3zm-17 6.3l.1-.8.5-.8v.7H45c-.4 0-.4.6-.4.8l-.1.1zm9.9.9c-.4 0-.2-.5-.2-.8v-.1l.1.2.1.7zm-10.5 0l.4-.7v.3c0 .3-.1.4-.4.4zm-2.4 4.7c-.1 0-.3-1-.3-1.2.5-.4 1.2-1 1.2-1.7l.8-1.6.1 1-.3.3c-.1.3-.1.5-.1.8l-.9.6-.4.9c.1.2.1.9-.1.9zm12.4-3.7l-.3-.4h.5c.1.1.1.4-.2.4z"/>
<path d="M124.2 144.2c0 .4-.5.6-.8.6 0 .7.5 1.1.5 1.8l1.6-.4v-.5c0-.4 0-1-.5-1h-.1l-.7-.5zM134.9 130.2zm0 0c-.9.1-.9 2.2-.9 2.7.9 0 .9-2 .9-2.7zM168.6 7.9zm0 0c-.3.5-.5 1.2-.5 1.7v.1l.3-.2.2-1.6zM168.2 8zm0 0h-.5c-.1.4 0 .8-.1 1.1l.6-1.1zM168.2 7.5V8l.4-.1-.4-.4zM280.8 52.9l-.7.1.2.8.7-.5-.2-.4zM209.1 127.8zm0 0l-1.6.1c0 .1 0 .7.1.7.5 0 1.5-.4 1.5-.8zM194.1 111.7h-.2c-.3 0-.7.1-.7.5l.3.7c.4 0 .5-.4.4-.7.1-.1.4-.2.4-.5 0 .1-.1 0-.2 0zM246.9 109c-.1.3-.4.7-.4.8 0 .1.1.1.3.1h.3c.1 0 .5 0 .5-.4.1-.4-.3-.5-.7-.5zM250.9 59.2h-.3l-.7.2c0 .3.3.4.5.4h.1l1-.2c0-.3-.3-.4-.6-.4zM278.1 105.7c-.3.7-.8 1.7-.8 2.5 0 .2.1.3.3.3.7-.1 1.2-1.6 1.2-2.1l-.7-.7zM283.7 46.7zm0 0c-.9.1-.8.5-.9 1.2l.5-.6c.3 0 .4-.4.4-.6zM310.8 118.4c-.3 0-.7.1-1 .1h-.3c-.1.3-.3.4-.5.4h-.3-.1c-.3 0-.5.4-.5.7l2 .1c.2-.1 1.6-.4 1.6-.9-.1-.3-.5-.4-.9-.4zM306 43.2v.2l.1-.1-.1-.1zM290.5 123h-.2c-1.8.2-4.5 1.3-6.2 2 .2.1.9.3 1.3.3h.3l5.3-2c0-.3-.3-.3-.5-.3zM281.7 126.5zm0 0l-1.5.1c0 .3.1.5.4.5h.1l.9-.2.1-.4zM266.99999999999994 131.5c-2.3.2-1.5 1.1-2.3 1.1v.1c0 .2.1.3.3.3.4 0 .7-.3 1-.5l1.4-.2v-.5c0-.2-.2-.3-.4-.3z"/>
<path d="M291.7 125.3zm0 0c-1.6.2-7.6 1.1-8 1.8-.6.3-4.1 1.4-5.1 1.5 0-.4.3-.6.6-.6h.2c.1-.1.4-.5.4-.7 0-.2-.1-.2-.2-.2h-.1l-2.2.3c-.1.5-.6 1.8-1.2 1.9h-.1c-.7 0-.8-.8-1.6-.8h-.1c-.3.4-2.1.9-2.9 1.7l-2.9.3c0 .4-.3.3-.6.4-.2 0-.2.2-.2.3l.7.5c.8-.1 5.6-.7 5.6-1.4 3.6-.4 14.7-3.9 17.7-5zM356.2 40.3zm0 0c-.9.1-.8.5-.9 1.2l.5-.6c.3 0 .4-.4.4-.6zM354.3 120.2zm0 0l-1.5.1c0 .3.1.5.4.5h.1l.9-.2.1-.4zM383.3 112c-.3 0-.7.1-1 .1h-.3c-.1.3-.3.4-.5.4h-.3-.1c-.3 0-.5.4-.5.7l2 .1c.2-.1 1.6-.4 1.6-.9-.1-.3-.4-.4-.9-.4zM363.1 116.6h-.2c-1.8.2-4.5 1.3-6.2 2 .2.1.9.3 1.3.3h.3l5.3-2c-.1-.2-.3-.3-.5-.3z"/>
<path d="M364.3 118.9zm0 0c-1.6.2-7.6 1.1-8 1.8-.6.3-4.1 1.4-5.1 1.5 0-.4.3-.6.6-.6h.2c.1-.1.4-.5.4-.7 0-.2-.1-.2-.2-.2h-.1l-2.2.3c-.1.5-.6 1.8-1.2 1.9h-.1c-.7 0-.8-.8-1.6-.8h-.1c-.3.4-2.1.9-2.9 1.7l-2.9.3c0 .4-.3.3-.6.4-.2 0-.2.2-.2.3l.7.5c.8-.1 5.6-.7 5.6-1.4 3.5-.3 14.6-3.9 17.7-5zM339.5 125.10000000000001c-2.3.2-1.5 1.1-2.3 1.1v.1c0 .2.1.3.3.3.4 0 .7-.3 1-.5l1.4-.2v-.5c0-.2-.2-.3-.4-.3zM350.6 99.4c-.3.7-.8 1.7-.8 2.5 0 .2.1.3.3.3.7-.1 1.2-1.6 1.2-2.1l-.7-.7zM378.5 36.9v.1h.1l-.1-.1zM442.8 83.9zm0 0h-.3c-.3 0-.7.1-.9.3v.2c0 .3.3.2.2.6l.4-.5c.3.1.5-.3.6-.6zM403.1 64.9l-1.1 2.5c.3 0 .5.4.7.4.2-.2.3-.5.3-.9.1-.6.6-.7.6-1.4.1-.4-.2-.6-.5-.6zM444.5 82.1c-.2.5-1.5 1.3-1.5 1.7 0 .2.5.3.6.3l.8-1.1h.2c.2 0 .4 0 .4-.2l-.5-.7zM432.7 91.2zm0 0h-.2c-.3 0-.6.3-1 .3h-.2l.4.9c.2 0 .9-.3.3-.3.2-.6.6-.4.7-.9z"/>
<path d="M455.59999999999997 27.3c.4 0 .9.1 1.4.2.7.1 1.5.3 2.4.3h1.4c.6 0 1.1.1 1.9.3.8.9 2.1 1 3 1h.4c.4 0 1.1.5 1.7.8.3.2.7.4 1 .6.5.3 1 .4 1.4.5h.2c.2 0 .3.1.5.1h.5c.7.3 1.5.9 1.9 1.4.2.8.9 1.5 1.5 1.9l.1.1c.2.3.5.5.8.6.1.1.3.2.4.3l.3.3.6 1.2c.2.4.4.6.8.8 0 0 0 .1.1.1.1.1.2.2.2.3 0 0 .1.1.1.2-.1.6.1 1.3.5 1.7l.3.3c.1.3.2.7.3 1.3.2.7.6 2 .6 2.4v.4c0 .2-.1.5-.1.9v1.1c0 .2-.1.5-.1.7 0 .5.1 1 .2 1.4 0 .2.1.5.1.6 0 .3 0 .5.1.8l.1.3c-.3 2.1-.7 4.3-1.1 6.4-.2.8-.3 1.6-.5 2.4-.9.9-1.3 2.4-1.6 3.6-.1.2-.1.4-.1.5-.2.6-.5 1.2-.8 1.8-.3.6-.6 1.2-.9 1.9-.4.5-.7 1-1 1.5-.6.4-.9 1-1 1.7v.1c-.5.3-.8.8-1 1.4-.4.3-.6.8-.7 1.3-.4.3-.7.7-.8 1.2l-.8.8c-.2.2-.4.5-.4.8-.1.1-.2.2-.2.3-.3.3-.6.6-.9 1.2l-.6.6c-.3.3-.5.6-.5 1l-.1.3c-.4.3-.7.7-.8 1.2-.8.9-1.4 2-2 3-.2.4-.4.7-.6 1.1h-.1c-.6.2-1 .7-1.2 1.3-.3.2-.6.6-.7 1-.1.1-.2.3-.4.6-.7.6-1.3 1.3-1.8 1.9-.5.5-.8 1-1.3 1.4-.9.3-1.5 1-1.7 1.4-.3.1-.5.2-.7.4l-1.7 1.5c-.2.2-.3.4-.4.6-.3.2-.5.4-.7.7-.2.1-.3.1-.4.2-.6.5-1.3 1-2 1.6-.2.1-.3.3-.4.5-.1.1-.2.2-.4.3-.5.5-1.1.9-1.7 1.4l-.9.6c-.3.2-.5.5-.6.8-.1.1-.2.1-.3.2-.6.3-1.4.8-2 1.7l-.1.1-1.3.4-.6.3-.9.7c-.5 0-.9.2-1.2.5-.4-.3-.8-.5-1.3-.5-.4 0-.8.1-1.1.4-.3.2-.5.5-.7.8-.3.1-.7.2-.9.4-.4.4-.7.9-.7 1.5v.1c0 .3 0 .5.1.8l-.7.1c-.5 0-.9.2-1.3.4-.4-.4-1-.7-1.6-.7h-.4c-1 .1-1.8.9-1.8 1.9-.3-.2-.7-.3-1.1-.3h-.2c-.5 0-1 .3-1.3.6h-.2c-.4 0-.8.1-1.1.4h-.1c-.8.2-1.4.7-1.6 1.4H424c-.7.1-1.4.4-1.8.7-.5.1-.9.2-1.2.4h-.1c-.2 0-.3-.1-.5-.1-.4 0-.7.1-1 .3-.5 0-.9.2-1.2.5-.3-.1-.7-.2-1.1-.2h-.3c-.6.1-1.1.3-1.4.7-.4-.5-1-.7-1.5-.7-.2 0-.4 0-.6.1l-.6.3c-.5 0-1.1-.1-1.4-.2-.2 0-.4-.1-.5-.1-1-.1-2-.3-3.1-.5-1.4-.3-2.8-.5-4.2-.7-.3-.6-.9-1-1.5-1.1-1.2-.2-1.9-1-2.7-1.8l-.1-.1c.2-.3.3-.7.3-1.1 0-.3-.1-.6-.2-.8-.3-.8-1-1.3-1.9-1.3h-.4l-.4.1c-.2 0-.3.1-.5.1s-.3.1-.5.2h-.4c-.8.1-1.6.3-2.5.4l-3.6.6c-.6.1-1.1.5-1.4 1-1.2.1-2.3.4-3.4.6-1 .2-2 .4-2.9.5-.9.1-1.5.4-1.9.7h-.5c-.4 0-.9.2-1.3.5l-1.2.2c-.3.1-.6.2-.9.4h-.2c-.4 0-.8.2-1.1.4h-.3c-.3 0-.5.1-.8.2h-.1c-.1 0-.2 0-.3-.1l-.5-.1h-.2c-.5 0-1 .2-1.3.5l-.3.3h-1.1-.1c-.7 0-1.4.4-1.8 1-.7-.3-1.5-.6-2.3-.6h-.4c-1 .1-1.7.5-2.2 1l-3.5.6-1 .1c-.2 0-.5.1-.7.2l-.6.3c-.9 0-1.5.4-1.9.8-.8.3-1.5.6-2 1-.1.1-.3.2-.4.4-.2.1-.4.2-.5.4h-1.2c-.4 0-.8.1-1.2.4l-.1.1c-.4-.2-.9-.5-1.5-.5h-.2l-.8.1c-.3 0-.6.1-.8.3-.6.3-1.1.9-1.3 1.7-.1 0-.3.1-.4.1-.5.2-.9.3-1.4.5-.8-.3-1.6-.3-2.2-.3h-.3c-.3 0-.6.1-.8.3-.5.3-1.2.8-1.5 1.5-.1 0-.3-.1-.5-.1-.3 0-.5.1-.8.2-.9.4-1.5 1.2-1.6 2.2-.1.1-.3.2-.5.3h-.1c-.4-.2-.8-.3-1.3-.3h-.3-.1c-.4-.2-.9-.3-1.4-.3h-.3c-.7.1-1.3.3-1.7.7l-1.7.2c-.3 0-.7.2-.9.4-.5.1-1.2.2-1.8.5h-.1c-.3-.2-.6-.4-.9-.4-.3-.3-.8-.8-1.5-1l-.3-.3c-.1-.1-.1-.2-.2-.3 0-.4-.2-.8-.4-1.1l-.6-.8-.3-.3v-.4c0-.8 0-2.6-1-3.6.1-.1.2-.3.2-.4.5-.4.8-.9.8-1.5v-.1c.1-.6-.1-1.3-.6-1.7-.4-.4-.9-.6-1.4-.6h-.3l-.5.1-1.5.3c-.6.1-1.1.5-1.4 1-1.2.1-2.3.4-3.4.6-1 .2-2 .4-2.9.5-.9.1-1.5.4-1.9.7h-.5c-.4 0-.9.2-1.3.5l-1.2.2c-.3.1-.6.2-.9.4h-.2c-.4 0-.8.2-1.1.4h-.3c-.3 0-.5.1-.8.2h-.1c-.1 0-.2 0-.3-.1l-.5-.1h-.2c-.5 0-1 .2-1.3.5l-.3.3H297h-.1c-.7 0-1.4.4-1.8 1-.7-.3-1.5-.6-2.3-.6h-.4c-1 .1-1.7.5-2.2 1l-3.5.6-.9.1c-.2 0-.5.1-.7.2l-.6.3c-.9 0-1.5.4-1.9.8-.8.3-1.5.6-2 1-.1.1-.3.2-.4.4-.2.1-.4.2-.5.4h-1.2c-.4 0-.8.1-1.2.4l-.1.1c-.4-.2-.9-.5-1.5-.5h-.2l-.8.1c-.3 0-.6.1-.8.3-.6.3-1.1.9-1.3 1.7-.1 0-.3.1-.4.1-.5.2-.9.3-1.4.5-.8-.3-1.6-.3-2.2-.3h-.3c-.3 0-.6.1-.8.3-.5.3-1.2.8-1.6 1.5-.1 0-.3-.1-.5-.1-.3 0-.5.1-.8.2-.9.4-1.5 1.2-1.6 2.2-.1.1-.3.2-.5.3h-.1c-.4-.2-.8-.3-1.3-.3h-.3-.1c-.4-.2-.9-.3-1.4-.3h-.3c-.7.1-1.3.3-1.7.7l-1.7.2c-.3 0-.7.2-.9.4-.5.1-1.2.2-1.8.5h-.1c-.3-.2-.6-.4-.9-.4-.3-.3-.8-.8-1.5-1l-.3-.3c-.1-.1-.1-.2-.2-.3 0-.4-.2-.8-.4-1.1l-.6-.8-.3-.3v-.4c0-.8 0-2.6-1-3.6.1-.1.2-.3.2-.4.5-.4.8-.9.8-1.6 0 0 0-.1.2-.3.2-.3.4-.7.4-1.1 0-.3 0-.6.5-1 .2-.2.4-.4.5-.7v.1c0-.1.1-.1.1-.2v-.1-.1c.2-.3.3-.4.4-.5.3-.4.5-.9.5-1.4v-.4c.3-.3.5-.7.5-1.1l-.5-.1.5.1v-.6c.2-.3.3-.7.3-1.2 0-.3-.1-.5-.1-.7.2-.4.2-.8.2-1.1v-.1c.1-.1.2-.3.3-.5.5-.3 1.3-.9 1.6-2.1.3-.3.5-.8.5-1.3v-.1c.2-.2.3-.5.4-.8.1-.3.4-1.1.6-1.4.1-.2.2-.3.2-.5.7-.2 1.2-.7 1.4-1.4.1-.4.3-.9.5-1.3.3-.3.6-.6.8-1 .3-.3.5-.8.6-1.2.3-.3.5-.7.5-1.1.1-.4.6-1.7.8-2.2.2-.2.3-.4.4-.7.1-.1.2-.3.3-.5.7-.6 1.1-1.5 1.3-2.4.6-.9 1.1-1.9 1.5-3 1.6-1 2.4-3.4 2.9-5.4.5-.4.9-.9 1.1-1.6l.7-1.7.2-.1c.2-.2.4-.4.5-.6.6-.3 1-.9 1.1-1.6v-.5c.5-.4.8-.9.8-1.6 0-.1.1-.2.1-.3.1-.2.2-.5.2-.9l.1-.1c.1-.2.3-.3.4-.5.3-.4.5-.8.6-1.2l.3-.6c0-.1.1-.1.1-.2.4-.3 1.1-.8 1.4-1.9.2-.4.4-.9.5-1.4l.4-.4.4-.7c.1-.2.2-.4.2-.6v-.1c.2-.2.4-.5.5-.8l.6-1.6c.2-.2.5-.5.6-.8.2-.1.3-.3.4-.5l.5-.9c.1-.2.2-.4.2-.5.1-.5.2-.8.3-1 .3-.2.6-.5.8-1 .7-.4 1.1-1.2 1.1-2.2v-.1c1.1-.8 1.5-2.1 1.8-2.8 0-.1.1-.3.1-.4.1 0 .2 0 .3-.1.7-.2 1.2-.8 1.3-1.6l.2-1.3c.6-.1 1.2-.5 1.5-1.1.3-.6.2-1.3-.1-1.8.7-1.1 1.8-2.9 2.2-3.3.2-.2.4-.5.5-.8l.4-1.2.2-.1c.3-.2.6-.4.8-.7.3-.5 1.5-1.6 2.3-2.3.7-.7 1.2-1.1 1.5-1.5.4.3.8.4 1.3.4h.2c.4 0 .7-.2 1-.3.7.2 1.4.3 2 .3h.3c.1.2.2.3.3.5l-1.1 1.5c-.6.9-.5 2.1.3 2.7.4.3.8.5 1.3.5s1.1-.2 1.5-.6l.5-.5c.2-.3.7-.8 1.1-1.2.2.1.3.1.5.1.2.5.5 1 1 1.3-.1.6 0 1.2.3 1.6.1.2.2.3.4.4 0 .1-.1.2-.1.3-.1.1-.1.2-.1.3-.4.5-.5 1.1-.4 1.7-.3.3-.5.6-.6.9-.1.1-.2.3-.3.5l-.3.7c-.3.3-.6.6-.8 1.1-.3.4-.6.8-.6 1.4 0 .6-.7 2.6-1.2 3.4 0 0-.1 0-.1.1-.1 0-.2-.1-.4-.1l-.4-.1h-.3c-.5 0-.9.2-1.3.5-.4.4-.7.9-.7 1.5 0 .2 0 .5.1.8.1.2.1.4.2.6-.2.4-.3.9-.4 1.5l-.4-.2c-.2-.1-.4-.1-.6-.1-.8 0-1.6.5-1.9 1.3l-.4 1.1c-.2.5-.2 1.1.1 1.6.1.3.4.6.6.7h-.2c-.3-.2-.7-.3-1.2-.3h-.2c-.9.1-1.7.8-1.8 1.7-.2.3-.4.7-.4 1.1-.7.8-1.1 2.2-1.5 3.6 0 0-.7 2.6-.8 3.5-.1.1-.1.2-.2.3l-.3.6c-.5.5-1.3 1.2-1.6 2.1l-.3.3c-.3.4-.5.8-.5 1.3-.1.3-.3.6-.3 1-.8 1.1-2.5 3.5-3.2 5.5-.3 0-.6.1-.9.3-.6.3-.9.9-1 1.5 0 .3-.1.7-.2 1.1-.1.4-.2.7-.3 1.1-.5.6-.8 1.4-.8 2.3 0 .4.1.8.2 1.3-.3.1-.6.3-.8.6-.1.1-.2.3-.3.4-.2.1-.5.1-.7.3-.6.4-.9 1-.9 1.7v.4c-.5.3-.8.9-.8 1.5l-.1 1.3v.2c0 .9.4 1.6 1.1 2-.2.3-.5.8-.8 1.3h-.1c-.5 0-.9.2-1.3.5-.3.2-.5.6-.6.9-.4.4-.6 1-.6 1.5 0 .6.2 1.1.5 1.5-.2.4-.3.8-.4 1.1-.7.9-1.1 1.7-1.1 2.5 0 1.1.9 2.3 2.5 2.3.3 0 .6 0 .7-.1h.1c.7-.1 1.2-.3 1.6-.6.2 0 .5-.1.7-.2h.1c.4 0 .8-.1 1.1-.3.4-.2 1.4-.6 1.9-.7.6 0 1.2-.1 1.8-.6.6-.1 1.2-.2 1.8-.4.7-.2 1.3-.3 1.8-.3s.9-.2 1.2-.6c3.2-.7 6.1-1.4 9.3-2.4l.5.1h.3c.4 0 .8-.1 1.1-.3h.1c.2 0 .5 0 .7-.1.7-.2 1.6-.3 2.7-.4.4 0 .8-.1 1.2-.1-.2.3-.3.7-.3 1.2 0 1.1.8 2.2 2.4 2.2h.4c.4 0 1.4-.1 2-.6h.2v.1c0 .3.1.5.2.8-.2.4-.2.8-.1 1.2.2.9.9 1.5 1.8 1.5.4 0 .7.1 1.1.1.8.1 1.6.2 2.4.2h.7c.6-.1 1.2-.3 1.6-.6l2.6-.3h.2c.3 0 .6 0 .9.1.4.1.9.1 1.4.1h.6c.7-.1 1.3-.5 1.6-1 .5-.2.9-.7 1-1.2.4-.4.7-.9.7-1.5v-.3c.2-.4.3-.8.3-1.2v-.2c0-.5-.1-.9-.2-1.2v-.2-.1c.2-.2.3-.4.4-.7.1-.2.2-.3.3-.5.5-.3 1.3-.9 1.6-2.1.3-.3.5-.8.5-1.3v-.1c.2-.2.3-.5.4-.8.1-.3.4-1.1.6-1.4.1-.2.2-.3.2-.5.7-.2 1.2-.7 1.4-1.4.1-.4.3-.9.5-1.3.3-.3.6-.6.8-1 .3-.3.5-.8.6-1.2.3-.3.5-.7.5-1.1.1-.4.6-1.7.8-2.2.2-.2.3-.4.4-.7.1-.1.2-.3.3-.5.7-.6 1.1-1.5 1.3-2.4.6-.9 1.1-1.9 1.5-3 1.6-1 2.4-3.4 2.9-5.4.5-.4.9-.9 1.1-1.6l.7-1.7.2-.1c.2-.2.4-.4.5-.6.6-.3 1-.9 1.1-1.6v-.5c.5-.4.8-.9.8-1.6 0-.1.1-.2.1-.3.1-.2.2-.5.2-.9l.1-.1c.1-.2.3-.3.4-.5.3-.4.5-.8.6-1.2l.3-.6c0-.1.1-.1.1-.2.4-.3 1.1-.8 1.4-1.9.2-.4.4-.9.5-1.4l.4-.4.4-.7c.1-.2.2-.4.2-.6v-.1c.2-.2.4-.5.5-.8l.6-1.6c.2-.2.5-.5.6-.8.2-.1.3-.3.4-.5l.5-.9c.1-.2.2-.4.2-.5.1-.5.2-.8.3-1 .3-.2.6-.5.8-1 .7-.4 1.1-1.2 1.1-2.2v-.1c1.1-.8 1.5-2.1 1.8-2.8 0-.1.1-.3.1-.4.1 0 .2 0 .3-.1.7-.2 1.2-.8 1.3-1.6l.2-1.3c.6-.1 1.2-.5 1.5-1.1.3-.6.2-1.3-.1-1.8.7-1.1 1.8-2.9 2.2-3.3.2-.2.4-.5.5-.8l.4-1.2.2-.1c.3-.2.6-.4.8-.7.3-.5 1.5-1.6 2.3-2.3.7-.7 1.2-1.1 1.5-1.5.4.3.8.4 1.3.4h.2c.4 0 .7-.2 1-.3.7.2 1.4.3 2 .3h.3c.1.2.2.3.3.5L370 36c-.6.9-.5 2.1.3 2.7.4.3.8.5 1.3.5s1.1-.2 1.5-.6l.5-.5c.2-.3.7-.8 1.1-1.2.2.1.3.1.5.1.2.5.5 1 1 1.3-.1.6 0 1.2.3 1.6.1.2.2.3.4.4 0 .1-.1.2-.1.3-.1.1-.1.2-.1.3-.4.5-.5 1.1-.4 1.7-.3.3-.5.6-.6.9-.1.1-.2.3-.3.5l-.3.7c-.3.3-.6.6-.8 1.1-.3.4-.6.8-.6 1.4 0 .6-.7 2.6-1.2 3.4 0 0-.1 0-.1.1-.1 0-.2-.1-.4-.1l-.4-.1h-.3c-.5 0-.9.2-1.3.5-.4.4-.7.9-.7 1.5 0 .2 0 .5.1.8.1.2.1.4.2.6-.2.4-.3.9-.4 1.5l-.4-.2c-.2-.1-.4-.1-.6-.1-.8 0-1.6.5-1.9 1.3l-.4 1.1c-.2.5-.2 1.1.1 1.6.1.3.4.6.6.7h-.2c-.3-.2-.7-.3-1.2-.3h-.2c-.9.1-1.7.8-1.8 1.7-.2.3-.4.7-.4 1.1-.7.8-1.1 2.2-1.5 3.6 0 0-.7 2.6-.8 3.5-.1.1-.1.2-.2.3l-.3.6c-.5.5-1.3 1.2-1.6 2.1l-.3.3c-.3.4-.5.8-.5 1.3-.1.3-.3.6-.3 1-.8 1.1-2.5 3.5-3.2 5.5-.3 0-.6.1-.9.3-.6.3-.9.9-1 1.5 0 .3-.1.7-.2 1.1-.1.4-.2.7-.3 1.1-.5.6-.8 1.4-.8 2.3 0 .4.1.8.2 1.3-.3.1-.6.3-.8.6-.1.1-.2.3-.3.4-.2.1-.5.1-.7.3-.6.4-.9 1-.9 1.7v.4c-.5.3-.8.9-.8 1.5l-.1 1.3v.2c0 .9.4 1.6 1.1 2-.2.3-.5.8-.8 1.3h-.1c-.5 0-.9.2-1.3.5-.3.2-.5.6-.6.9-.4.4-.6 1-.6 1.5 0 .6.2 1.1.5 1.5-.2.4-.3.8-.4 1.1-.7.9-1.1 1.8-1.1 2.5 0 1.1.9 2.3 2.5 2.3.3 0 .6 0 .7-.1h.1c.7-.1 1.2-.3 1.6-.6.2 0 .5-.1.7-.2h.1c.4 0 .8-.1 1.1-.3.4-.2 1.4-.6 1.9-.7.6 0 1.2-.1 1.8-.6.6-.1 1.2-.2 1.8-.4.7-.2 1.3-.3 1.8-.3s.9-.2 1.2-.6c3.2-.7 6.1-1.4 9.3-2.4l.5.1h.3c.4 0 .8-.1 1.1-.3h.1c.2 0 .5 0 .7-.1.7-.2 1.6-.3 2.7-.4.4 0 .8-.1 1.2-.1-.2.3-.3.7-.3 1.2 0 1.1.8 2.2 2.4 2.2h.4c.4 0 1.4-.1 2-.6h.2v.1c0 .3.1.5.2.8-.2.4-.2.8-.1 1.2.2.9.9 1.5 1.8 1.5.4 0 .7.1 1.1.1.8.1 1.6.2 2.4.2h.7c.6-.1 1.2-.3 1.6-.6l2.6-.3h.2c.3 0 .6 0 .9.1.3 0 .6.1.9.1h.1c.6 0 1.2-.3 1.6-.8.3.2.6.4.9.5l.4.1h.4c.6 0 1.1-.2 1.5-.7.5-.5.6-1.3.4-1.9v-.1c-.1-.2-.1-.4-.2-.7-.1-.3-.2-.6-.4-.8-.3-.6-.9-1.1-1.6-1.2h-.2c-.5 0-1 .2-1.4.5 0-.2-.1-.5-.3-.7 0 0 0-.1-.1-.1.3-.2.5-.5.6-.8.2-.4.4-1 .4-1.7H395.1c.7-.1 1.9-.6 1.9-2.3 0-.4-.1-.7-.3-1 .2-.3.3-.7.3-1 0-.3 0-.5-.1-.7.4-.5.5-1.3.3-1.9.1-.5.2-1.2.2-1.8 0-.3 0-.6-.1-.8v-.7l-.1-.4c.1 0 .1-.1.2-.1.7-.3 1.2-1 1.2-1.8v-.1c0-.1.1-.2.1-.2l.9-2.1c.3-.7.2-1.5-.2-2 .1-.1.1-.3.2-.5l.4-.6c.2-.3.3-.5.3-.8l.1-.7c.1-.4 0-.8-.2-1.1l.5-.3c.3-.2.5-.4.6-.7h.5c1-.1 1.8-1 1.8-2 0-.2 0-.5-.1-.7.3-.5.7-1.1 1.2-2.1.5-.4.9-1 .9-1.8 0-.3-.1-.6-.2-.9.1-.3.1-.6.2-1 .7-.5 1.2-1.3 1.3-2.1.1-.3.4-.8.7-1.3l.6-.9c.7-.1 1.3-.5 1.6-1.1l.6-.7c.3-.4.4-.8.4-1.3 0-.3 0-.6-.1-.9l.1-.1c.3-.1.5-.2.7-.3.4.3.9.4 1.2.4h.2c.1 0 .8-.1 1.3-.6 1-.4 1.3-1.3 1.3-1.9 0-.7-.3-1.2-.7-1.6.1-.2.3-.4.4-.6.2 0 .4.1.6.1h.2c.8-.1 1.3-.4 1.6-.7.3-.1.6-.2.9-.4 1-.8 2-1.7 3.1-2.6.8-.2 1.3-.7 1.6-1 .2 0 .4-.1.6-.2 1.1-.6 1.6-1.4 1.6-2.4V48l.1-.1c.7-.1 1.4-.5 1.7-1.1.8-.3 1.7-.8 2.4-1.3.2-.1.4-.2.5-.3.7-.1 1.3-.1 1.9-.1h.3c.4 0 .7-.1 1-.3l.9-.6H434.5c1.1-.1 2-1.1 2-2.2 0-.6-.2-1.1-.6-1.5-.4-.3-.9-.5-1.4-.5h-.7c-.1 0-.3 0-.4.1h-.2c-.2 0-.4 0-.5.1l-1.2.3c-.3 0-.6-.1-.9-.1h-.8c-.3 0-.7 0-1 .1h-.2c-.2 0-.5 0-.7.1-.3-.2-.7-.3-1.1-.3h-.2c-.2 0-.6.1-.9.3-.4.1-.9.3-1.2.6-.5.1-1 .2-1.4.5-.3 0-.7-.1-1-.1-.3 0-.5 0-.7.1-.2 0-.4-.1-.6-.1-.1 0-.4 0-.7.1l-.5-.1c-.2 0-.3-.1-.5-.1-.5 0-.9.2-1.3.5-.2-.1-.4-.1-.6-.1.3-.2.7-.3 1-.5 0 0 .1 0 .1-.1.1 0 .3 0 .4-.1l.5-.2h.1c.7 0 1.2-.3 1.5-.5.5-.2.9-.6 1.1-1h.2c.7-.1 1.3-.5 1.6-1.1l.1-.1.1-.1h1.2c.6 0 1.2-.3 1.5-.7.2 0 .4-.1.6-.2.2-.1.3-.2.5-.3.7-.4 1.4-1.1 1.4-2.1v-.3h.7l1.7-.4c.4-.1.8-.3 1-.6.1 0 .3-.1.6-.1.4 0 .7-.2 1-.4.4-.2.7-.5.9-.8.3-.1.7-.2.9-.4.4 0 .9-.1 1.3-.4.4-.1.7-.2 1-.4.5-.1.9-.3 1.2-.4.1 0 .2-.1.2-.1h.2c.8 0 1.4-.3 1.8-.7.5 0 .9-.1 1.2-.3.2-.1.5-.2.7-.3.5 0 .9-.1 1.3-.3h.8c3.2-.1 5.1-.3 6.2-.7h.4c.4 0 .7-.1 1-.2l1 .1h.2c.5-.5.9-.7 1.2-.9m-6.7 14.1c-.5.2-.9.5-1.1.9l-.1.1c-.3.2-.9.5-1.3 1l-.9.4c-.3-.2-.7-.3-1.1-.3h-.2c-.8.1-1.5.6-1.7 1.4l-.1.3c-.1.2-.1.4-.1.6 0 .4.1.7.3 1 0 .1-.1.1-.1.2-.1.5-.1.9.1 1.4-.4.2-.7.5-1 .8-.2.1-.3.2-.5.2-1.1.6-2.5 1.3-3.3 2.4-.1.1-.1.2-.2.3-.3.4-1.3 1.2-1.8 1.7-.3.3-.6.5-.9.8-1.1.4-1.8 1.4-2.2 2-.6.5-1.5 1.3-2.3 2.1-.6.6-1.4 1.4-1.9 1.7-.9.3-1.4 1.1-1.6 1.5-.7.2-1.2.8-1.3 1.6-.1.4-1 1-1.3 1.3-.4.3-.7.6-1 1-1.9 2.1-3.3 4.2-4.7 6.5-.1.1-.2.3-.2.4-.6.2-1 .7-1.2 1.4-.1.2-.4.4-.5.6-.1.2-.3.3-.4.5-.3.3-.6.6-.7 1l-.2.6c-.7.8-1.4 2-1.6 2.5-.1.2-.1.3-.2.5-.1.3-.2.7-.4 1.1-.3.7-.6 1.4-.7 2.4 0 .3 0 .7.2 1-.1.1-.2.2-.2.3l-.6.9c-.4.5-.5 1.2-.3 1.8l.3.9c0 .1 0 .1.1.2-.2.8-.5 2 .3 3.1.1.1.2.3.3.4.1.3.3.6.4.8v.1c0 .5 0 1.1.1 1.7.1.7.7 1.3 1.4 1.5.2.1.5.2.8.2-.3.6-.4 1.4 0 2 .1.3.3.5.6.6 0 .1 0 .1.1.2.2.4.8 1.3 2.2 1.3h.4c.7-.1 1.3-.5 1.6-1h2.2c.2 0 .3 0 .5-.1h.1c-.2.6-.2 1-.2 1.1 0 1.2.9 2.5 2.6 2.5h.4c.7-.1 1.4-.3 2.4-.8.4-.2.7-.5.9-.9.7-.1 1.2-.5 1.6-.9l.7-.5c.6-.4.9-1 .9-1.7.4-.4.6-1 .6-1.6v-.3c.2.1.4.1.6.1h.2c1.3-.1 2-1.3 2-2.3v-.3c.9-.7 1.8-1.4 2.4-1.9.4.3.9.6 1.6.6h.3c1.4-.1 2-1.2 2-2.1 0-.4-.1-.8-.2-1 .1-.1.2-.2.3-.4.3-.3.4-.7.4-1.1l1.2-.6c.4.5 1 .8 1.6.8.2 0 .4 0 .6-.1.4-.1.7-.3.9-.5.3.1.5.1.8.1h.2c.6 0 1.1-.3 1.4-.8.7-1 1.8-1.8 2.7-2.5.3-.2.5-.5.6-.8l.1-.2c.2-.2.4-.4.5-.6l.5-.3c.3-.2.5-.4.6-.7.6-.5.8-1.2.9-1.7.7-.4 1.2-1.3 1.2-2.1 0-1.2-1-2.2-2.2-2.2h-.4c.3-.3.4-.8.4-1.2V74v-.4l.1-.1c.2 0 .4-.1.6-.2l.2-.1c.3.1.5.2.8.2h.2c.3 0 .5-.1.7-.2.3.8 1.1 1.3 2 1.3h.2c1.2-.1 1.9-1.1 2-2.1.6-.3 1-.9 1.2-1.5 0-.1.1-.1.2-.2.2-.2.4-.5.6-.8.3-.3.5-.6.7-1 .3-.3.5-.7.7-1.2l.1-.1c.1-.1.2-.3.3-.5.3-.2.5-.6.6-.9 0-.1.1-.2.1-.4.4-.4.6-.9.6-1.5 0-.2 0-.4-.2-1-.2-.8-.9-1.4-1.7-1.5v-.5l-.2-1c-.1-.3-.2-.6-.3-.8.1 0 .2 0 .3.1h.3c.6 0 1.1-.2 1.5-.7.4-.4.6-1 .5-1.6.2-.3.3-.7.3-1.1 0-1-.7-1.9-1.6-2.2l.3-.6.2-1.1c.1-.6-.1-1.3-.5-1.8l-.4-.5c0-.1 0-.1.1-.2.4-.1.8-.3 1.1-.6.2-.3.6-.8.6-1.6 0-.7-.3-1.3-.8-1.6 0-.2-.1-.5-.2-.7v-.1c-.5-1.2-1.5-3.5-3.6-3.5h-.2c-.2 0-.3 0-.5.1-1.4-.8-2-1.1-2.6-1.1h-.2-.1c-.3-.3-.6-.5-1-.6l-.3-.1c-.2 0-.3-.1-.5-.1h-.5c-.3-.2-.6-.2-.9-.2-.3 0-.6.1-.9.2h-1l-.8-.4c-.3-.1-.5-.2-.8-.2-.5 0-.9.2-1.3.5l-.4.3c-.5.5-.7.9-.8 1.3m22.3 15.2h.2c1-.1 1.8-1 1.8-2v-.3c0-.1 0-.4-.1-.7-.2-1.3-1.2-1.9-2.1-1.9h-.2c-.2 0-1.9.2-1.9 2.4 0 2 1.5 2.5 2.3 2.5m-100.8 45.2c-1 .1-1.7 1-1.7 2 0 .8.4 1.3.8 1.6-.1.1-.2.1-.2.2-.3.2-.5.5-.6.8-.6.2-1.2.4-1.6.8l-1.1.2c-1 .2-1.7 1-1.7 2 0 1.3 1.1 2.3 2.5 2.3h.2c.6-.1 1.2-.3 1.7-.7l2.2-.2c.6-.1 1.1-.4 1.4-.8 1.3-.3 2.3-.6 2.6-1.5.3.2.8.4 1.3.4.7 0 1.6-.3 2-.5.8-.5 1.2-1.4.9-2.3-.2-.9-1-1.5-1.9-1.5H376c-.9 0-1.6.6-1.9 1.3-.1-.1-.2-.1-.3-.2.7-.4 1.2-1.1 1.4-1.9.1-.6 0-1.1-.4-1.6-.3-.5-.9-.7-1.4-.8l-1.2-.1h-.2c-.2 0-.5 0-.7.1l-.9.4m-72.6 6.3c-1 .1-1.7 1-1.7 2 0 .8.4 1.3.8 1.6-.1.1-.2.1-.2.2-.3.2-.5.5-.6.8-.6.2-1.2.4-1.6.8l-1.1.2c-1 .2-1.7 1-1.7 2 0 1.3 1.1 2.3 2.5 2.3h.2c.6-.1 1.2-.3 1.7-.7l2.2-.2c.6-.1 1.1-.4 1.4-.8 1.3-.3 2.3-.6 2.6-1.5.3.2.8.4 1.3.4.7 0 1.6-.3 2-.5.8-.5 1.2-1.4.9-2.3-.2-.9-1-1.5-1.9-1.5h-1.2c-.9 0-1.6.6-1.9 1.3-.1-.1-.2-.1-.3-.2.7-.4 1.2-1.1 1.4-1.9.1-.6 0-1.1-.4-1.6s-.9-.7-1.4-.8l-1.2-.1h-.2c-.2 0-.5 0-.7.1l-.9.4m60.6 5.9h.2c.5 0 1-.3 1.3-.6.2-.3.6-.8.6-1.6 0-1.2-1-2.2-2.2-2.2H358c-1 .1-1.8 1-1.8 2 0 1.6 1.1 2.4 2.2 2.4m-6.6 2h.2c2.2-.2 2.6-1.4 2.6-2.2 0-1.4-1.2-1.9-2.5-2.5-.2-.1-.5-.1-.8-.1-.4 0-.8.1-1.1.3-.6.4-.9 1-.9 1.7 0 .3 0 .8.2 1.2.4 1 1.3 1.6 2.3 1.6m-65.9 4.4h.2c.5 0 1-.3 1.3-.6.2-.3.6-.8.6-1.6 0-1.2-1-2.2-2.2-2.2H285.5c-1 .1-1.8 1-1.8 2 0 1.6 1.1 2.4 2.2 2.4m-6.6 1.9h.2c2.2-.2 2.6-1.4 2.6-2.2 0-1.4-1.2-1.9-2.5-2.5-.2-.1-.5-.1-.8-.1-.4 0-.8.1-1.1.3-.6.4-.9 1-.9 1.7 0 .3 0 .8.2 1.2.4 1 1.2 1.6 2.3 1.6M248.8 45.3c1.3 0 2.7.2 4.2.4 1.3.2 2.7.3 4 .4-.1 0-.1.1-.2.1-.5.4-1.2 1-1.6 1.7-.4-.5-1-.8-1.6-.8h-.2l-1.1.1c-.2 0-.3-.1-.5-.1h-.2c-1.4.1-2 1.5-2 2.4 0 .3.1.7.2 1l-2.8.2c-.7.1-1.3.5-1.6 1.1-.2.2-.4.4-.5.7-.3 0-.6-.1-.9-.1h-.2c-1.5.1-2.2 1.3-2.2 2.2 0 1 .7 1.8 1.7 2 .1 0 .2 0 .3.1h.1c-.1 0-.3.1-.4.1h-.1c-.2-.1-.5-.1-.7-.1h-.2c-.2 0-.4.1-.7.1H241c-.2 0-.4.1-.7.2-.3-.2-.8-.4-1.3-.4h-.2c-.3 0-.6.1-.9.3-.5.1-1.1.5-1.6 1.2-1 .1-1.6.4-2.1.6-.5.2-.9.4-2 .5-.4 0-.9.2-1.2.5h-.2c-.6 0-1.2.2-1.6.3h-.3c-.5 0-.9.2-1.3.5l-.2.2h-.3c-.6.1-1.2.4-1.5.9H225l-1.6.1c-1 .1-1.8.9-1.8 1.9-.4.1-.8.3-1.2.4-.6.2-1.2.5-1.6.5-.3 0-.6.1-.9.3l-.5.3c-.2-.1-.5-.1-.8-.1h-.2c-.9.1-1.9.8-2 2.2-.1.2-.1.4-.1.7 0 .4.1.7.2 1-.7 0-1.4.4-1.7 1l-.4.8-.1.1h-.4c-2.6.2-2.7 4.4-2.7 4.5 0 .4.1.8.4 1.2-.1.2-.1.4-.2.6-.1.4 0 .9.3 1.3l.4.7c.4.6 1 1 1.7 1h.2c.6-.1 1.1-.3 1.6-.7.9 0 1.5-.3 2.1-.6.3-.1.5-.2.7-.3.1 0 .1 0 .2.1l1.6.4c.2 0 .3.1.5.1.6 0 1.2-.3 1.6-.8l.1-.1c1-.1 2.2-.3 3-1 .1 0 .2.1.3.1-.3.3-.5.8-.5 1.4 0 .9.6 2.4 2.8 2.4.4 0 .8 0 1.2-.1.4 0 .7-.1 1-.1h.2c.3.2.7.3 1 .3h.2c.9-.1 1.7-.2 2.6-.3.5-.1.9-.1 1.4-.2.1.3.2.5.4.8.4.4.9.7 1.5.7H237.3l-1.4.5c-.7.3-1.4.6-2 .9-.7.4-1.4.8-2 .8-1 .1-1.6.5-2 .8-.2.2-.2.2-.3.2-.6.1-1.1.2-1.4.4-.4.1-.7.2-.9.4h-.5c-.5 0-1 .2-1.4.5-.4.1-.8.3-1.1.7h-.5-.1c-.5 0-1 .2-1.4.6-.3.3-.5.6-.6 1-.1.2-.2.3-.3.5-.1-.1-.2-.1-.3-.1-.2-.1-.5-.1-.8-.1h-.3c-.9.1-1.8.4-2.7.7-.8.3-1.6.5-2.2.6-.4 0-.8.2-1.2.5-.1.1-.5.2-.8.2-.8.2-2.7.5-3.3 2.4h-1.5c-.5 0-1 .1-1.4.2-.4.1-.8.1-1.2.2-1 .1-1.8 1-1.8 2v.4c-.1.1-.2.1-.3.2-1.3 0-2.8.1-3.8.7l-1.2.2c-.7.1-1.2.5-1.5 1.1-.3.2-.5.4-.7.6h-.2c-1 .1-1.8 1-1.8 2 0 .5.1.9.2 1.2-.6.6-.9 1.3-1.1 2.1l-.4.4c-.2.3-.4.7-.4 1-.1.3-.4 1.2-.7 1.9l-.3.9c-.5-.1-.8-.1-.8-.1h-.2c-1 .1-1.8 1-1.8 2v.4c-.1.1-.3.1-.4.2-.5.4-.8 1-.8 1.6 0 .4.1.8.2 1.1-.1.1-.2.1-.3.2-.5.4-.8 1-.8 1.6v.1h-.2c-.7.1-1.3.4-1.6 1-.3.6-.3 1.3 0 1.9.1.2.7 1.4 1.9 1.7.1.1.1.2.2.3.5.6 1.1.9 1.8.9h.2c.7-.1 1.4-.5 1.8-1.4l.4-.4c.4-.5.6-1.1.5-1.7.2-.2.3-.4.4-.6.3.1.5.1.8.1h.3c.7-.1 1.5-.3 2.3-.8.1-.1.2-.2.3-.2l.8-.1c.3 0 .6-.1.8-.3l.8-.5c.1-.1.3-.2.4-.3.7-.1 1.3-.4 1.8-.6.6-.2 1.2-.5 1.6-.5.5 0 .9-.3 1.2-.6 1.2-.2 2.7-.5 3.8-.8 2-.5 3.1-.8 3.8-1.1.8-.1 1.5-.4 2.3-.6.8-.2 1.5-.5 2.1-.5.3 0 .6-.1.9-.3l.7-.4h.7c.4 0 .8-.1 1.1-.3l.5-.3c1.2-.1 2.4-.4 3.7-.6 0 1.1.8 2.4 2.2 2.4h.2c.4 0 .7-.2 1-.4h.6l.6.3c-.9.2-1.6 1-1.6 2v.1c0 .4 0 1.2.6 1.9.2.2.4.3.6.4.2 1 1 2 2.2 2h.2c.5 0 1-.3 1.4-.7.2.1.4.1.6.1h.2c.2 0 .4-.1.6-.1l.1-.1c.3.2.6.2 1 .2.2 0 .4 0 .7-.1.5-.2 1-.6 1.2-1.1l.3-.8c.1-.3.2-.6.1-.9h.2c.1.3.4.5.6.7l.5.4c.3.2.7.4 1.2.4h.2c.2 0 .3 0 .5-.1.3.2.7.3 1.1.3h.2l.7-.1h.2c.5-.1 2-.3 2.9-.3h.1c-.1.1-.2.1-.3.2-1.3.2-2.4.7-3.4 1-.7.3-1.3.5-1.7.5-.3 0-.5.1-.7.2l-.7.4c-.4.2-.7.6-.9 1-.6.1-1.3.2-1.9.3-1.1.1-1.8.7-2.2 1l-.1.1c-.3 0-.6.1-.8.3l-.3.2-1.5.1c-.2-.4-.4-.7-.6-.9-.4-.3-.9-.5-1.4-.5h-.4c-.2 0-.4.1-.7.1-1 .1-2.3.3-3.4.8-.2-.1-.5-.2-.8-.2-.2 0-.4 0-.6.1-.7.2-1.2.8-1.3 1.5h-.3c-.4 0-.8.1-1.1.3-.2.1-.3.2-.4.4-.4.1-.7.4-.9.7l-.6.3c-.4.3-.7.7-.9 1.1l-.1.1c-.4-.5-1.1-.9-1.8-.9h-.3c-.5 0-1 .3-1.3.7-.4 0-.9-.1-1.4-.1h-.6c-.5 0-1 .2-1.3.6-.2-.1-.3-.1-.5-.1l-.2-.2c-.3-.2-.7-.3-1.1-.3-.4 0-.9.1-1.2.4-.2.1-.8.4-1.2.5-.3-.2-.7-.3-1.1-.3h-.4l-.8.2c-.6.1-1 .5-1.3 1l-.4-.1h-.3c-.5 0-.9.2-1.3.5h-.1c-.5.1-.9.3-1.2.7-.6.1-1.1.3-1.5.5-.5.2-.9.3-1.2.4-.6.1-1.2.4-1.5.9-.2.3-.3.7-.3 1.1l-.6-.1h-.3c-.7 0-1.3.3-1.7.9l-.2.3c-.5.4-.8 1-.8 1.7 0 .2 0 .4.1.6-.3 0-.6 0-.8.1h-.3c-.4 0-1.1.2-1.6.9-.4-.6-1-1-1.8-1h-.3l-.8.1c-.5 0-1 .3-1.3.6-.3.2-1 .9-1 1.9v.4c-.3.1-.7.2-1 .3-.9.3-1.7.6-2.5.8-.6.2-1 .5-1.2 1l-.5-.2c-.2-.1-.3-.1-.5-.1-.2-.1-.7-.2-1-.3-.3-.2-.7-.3-1.1-.3h-.2-.1c-.2-.2-.5-.3-.8-.3-.2-.2-.5-.4-1-.5-.4-.4-1-.9-1.7-1.1l-.8-.7-.2-.4c-.3-.5-.8-.9-1.3-1 0-.1-.1-.2-.1-.3 0-.1-.1-.2-.1-.3-.1-.6-.4-1-.7-1.2 0-.2 0-.3-.1-.5.1-.2.2-.3.3-.4l.1-.1.3-.6.6-1.9c.2-.2.4-.5.5-.8.2-.3.4-.6.4-1 .1-.1.2-.2.2-.4l.9-1.8c.7-.6 1.1-1.8 1.1-3.6v-.4c0-1.1 0-1.7.1-2.1.4-.4.7-.9.7-1.5 0-.1.1-.3.2-.4.1-.2.3-.6.4-.9l1-.8c.4-.3.7-.7.8-1.2v-.2c.3-.4.5-.9.5-1.4.5-.7 2-2.7 2.4-4.4.7-.4 1-1.2 1-1.9v-.5c.2-.2.3-.5.3-.7.2-.2.3-.5.4-.8 0-.2.1-.2.1-.2.3-.3.4-.6.5-1 .3-.4.7-1 .8-2.1.2-.2.3-.4.4-.6.2-.2.3-.5.4-.8l.1-.1c.4-.5.5-1.2.2-1.9-.2-.6-.8-1.1-1.4-1.2l-.3-.1c-.2 0-.3-.1-.5-.1s-.4 0-.6.1c-.3.1-.7.2-1 .4-.5.2-1.1.4-1.5.4-.5 0-.9.2-1.2.6-.3.1-.8.2-1.3.6v-.1c.3-.2.6-.4.8-.6.4-.1 1-.2 1.5-.6.3-.1.7-.3 1-.7l.4-.2c.2-.1.4-.2.6-.4h.1c.6-.1 1.2-.3 1.6-.8.4-.1.7-.3.9-.4.8-.4 1.1-1.4.9-2.2s-1-1.5-1.9-1.5h-.8-.1c-.4 0-.9.1-1.2.4h-.1c-.1 0-.2 0-.3.1l-.2-.2c.4-.3.7-.7.8-1.2.1-.1.1-.2.2-.3.4-.1.8-.4 1-.8l.1-.2c0-.1.1-.2.2-.2.7-.1 1.4-.6 1.6-1.3.2-.1.4-.2.6-.4l.5-.2s.1 0 .1-.1c.2 0 .4.1.6.1h.2c.8-.1 1.7-.5 2.3-1.1.8-.2 1.7-.3 2.6-.6.5-.1.9-.4 1.1-.8l.3-.5.2-.1c.3-.2.6-.6.7-.9.2-.4.3-.8.5-1.1.2-.3.4-.7.4-1.2v-.3l.4-.5c.3-.3.4-.7.5-1.1.2-.3.4-.7.4-1 .1-.2.2-.4.4-.7.3-.5.5-1 .6-1.5.1-.2.2-.5.3-.8l.3-.6.3-.2c.5-.4.8-1 .8-1.6 0-.2.2-.5.3-.6.4-.3.7-.6.8-1.1.1-.4.4-.9.7-1.4.2-.3.3-.6.3-.9.3-.4.5-.8.5-1.3 0-1.2-.8-2.1-1.9-2.4.1-.7-.2-1.4-.8-1.8-.2-.1-.4-.2-.5-.3l-.1-.1c-.4-.3-.9-.5-1.4-.5h-.2l-3.1.3c-.2-.4-.5-.8-1-1.1l-1-.5c-.3-.1-.6-.2-.9-.2h-.2l-1.9.2c-.3 0-.6.1-.9.3-.2-.1-.5-.2-.8-.2h-.2-.1c-.1-.2-.2-.3-.3-.5h.1c.3-.1.6-.2.8-.2.3 0 .6-.1.8-.3l.5-.3c.4-.1.8-.2 1.2-.5 1.4-.2 3.6-.8 3.9-.8 1.9-.5 3-.8 3.6-1 .8 0 2.1-.2 3-.9l1.2-.3c1.6-.4 2.8-.6 3.6-1 1-.1 1.8-.3 2.5-.5 1-.2 2-.4 3.2-.5.4 0 .8-.2 1.1-.5h.7c1.1 0 1.9-.2 2.5-.7.6-.2 1.2-.3 1.8-.3h.1c.4 0 .8-.1 1.1-.4l.1-.1c2-.3 5.5-1.3 7.2-2h1.1c.9 0 3 0 4-1.2 1.6-.1 3.1-.2 4.1-.8l16.3-1.4h1.4M219 115.7c-.6.4-1 1-1 1.7 0 1.5 1.1 2.3 2.2 2.3h.4c.9-.1 1.6-.7 1.8-1.5.6-.3 1-1 1-1.9 0-1.2-.9-2.2-2.2-2.2h-.4c-.9 0-1.6.7-1.8 1.6m-33.6 9.3c.4 0 .9-.1 1.2-.4.4-.3.7-.8.8-1.4l.1-.9c.1-.9-.4-1.7-1.2-2.1l-.4-.2c-.2-.1-.5-.2-.8-.2-.4 0-.7.1-1 .3-.5.3-.9.9-1 1.5l-.1 1.1c-.1 1.1.6 2 1.7 2.2l.4.1h.3M257.9 51.1v.3s0 .1-.1.1c0-.1-.1-.2-.1-.2l.2-.2c-.1 0 0 0 0 0M257.5 53.6c.2.6.6 1 1.1 1.2.8.3 1.1.4 1.5.4H260.4c.1 0 .3 0 .5.1.4.1.8.2 1.3.2h.4c.5 0 1.1-.1 1.7-.1H265l-2.4.6c-2.3.5-4.4 1.1-6.7 1.3l-.9.1c-.2-.3-.6-.5-1-.6h-.1c-.2-.2-.4-.4-.6-.5l-.7-.4c-.3-.1-.6-.2-.9-.2h-.2c-.8.1-1.5.5-1.9 1.1-.2-.3-.6-.5-1-.6.3-.1.5-.3.7-.4.2-.1.4-.1.6-.2.1 0 .1-.1.2-.1h.3c.2 0 .5.1.8.1.7 0 1.2-.2 1.7-.5h.8c.2 0 .5-.1.7-.2h1c.5 0 1-.2 1.4-.6.2-.2.3-.4.4-.6.2 0 .2-.1.3-.1M265.9 55.4h.6c-.1 0-.1.1-.2.1s-.2-.1-.3-.1h-.1M460.1 62.2c.1.1.1.3.2.4.2.4.6.6 1 .8-.8.3-1.3 1-1.3 1.9v.4c-.3.2-.5.5-.6.9V66c0-.6-.2-1.1-.6-1.5v-.1c.3-.2.6-.5.8-.9l.5-1.3M459.2 67.1c0 .1 0 .1 0 0 0 .1 0 .1 0 0 0 .1 0 .1 0 0M450.1 79.4c0 .1-.1.1-.1.2-.1.1-.1.2-.2.2s-.1.1-.2.2c0-.2 0-.3-.1-.5h.3c.2-.1.2-.1.3-.1M382.8 99.4c.1 0 .1 0 0 0 .1.1.2.1.2.2 0-.1-.1-.1-.2-.2m-72.5 6.4s.1 0 0 0c.1.1.2.1.2.2-.1-.1-.1-.2-.2-.2M455.4 25.3h-.4c-.2 0-.4.1-.5.4l-1.7-.2c-.2.2-.4.3-.5.3-.2 0-.5-.1-.8-.1-.5.8-6 .7-7.5.9 0 .3-.3.3-.5.3h-.4c-.3.2-.7.4-1.1.4 0 .2-.2.2-.3.2h-.4l-.7.4c-.2.3-.4.3-.7.3h-.3-.1c-.6.1-1.2.6-1.9.6h-.1c-.2.2-.4.3-.7.3h-.3c-.5.3-.2.4-.8.4h-.3c-.4.2-1 .5-1.5.5h-.3l-.6.5c.1 0 .3.1.3.2 0 .2-.4.3-.5.5-.4 0-1.7.1-1.9.7l-1.7.4-.5-.7-.3.5-2.5.9c-.2.2-.6.3-.9.3 0 .1-2.1.9-2.5.9l-3.4 2.1-1.8.3-.8.7-.2.2s0 .2-.1.2-.1-.2-.1-.3c0-.1 0-.1.1-.1h.3l-.5-.9-.6.8c-.5 0-1.8.3-2 .8 0 1.1-3.1 1.8-3.6 2l-.1.4c0 .2.2.3.4.3s.4 0 .5-.1c.7-.1 1.5-.5 2.2-.7.4-.5.9-1.3 1.7-1.4h.2l.2 1.1h.1c.2 0 .4-.1.6-.1.1 0 .2 0 .4.2l1.4-.6c-.7.3-2.4 1.2-3.2 1.2h-.1c-.1.5-.2.7-.3.7-.1 0-.2-.1-.4-.1h-.1l-.3.1-.1.5-.7-.1-.2.4-.5-.1-.6.8h-.3c-.7.1-1 .4-1.6.9h-.2c-.7.1-1.1.7-1.7 1.2h-.2c-.6.1-1.5 1.1-2.3 1.3h-.1c-.8.1-1.4 1.1-1.8 1.6l.8.1c.6-.6 1.1-1.2 2-1.2.5-.4.8-1 1.5-1.1h.6l-1.2.8-.8 1.1.8.3c.5-.4 1.3-1.2 2-1.2.1 0 .2 0 .4.1.9-.5.8-1.1 1.5-1.1.2 0 .5 0 .8.1.4-.3 1.2-1 1.7-1 .1 0 .2 0 .2.1.1-.2.3-.5.5-.5.1 0 .2 0 .2.1l.6.2 1.1-.3.9-.9c.1.1.2.1.3.1.2 0 .3-.2.4-.2.1 0 .1 0 .2.1h.3c.5 0 1.2-.1 1.4-.5l1.5.4c.1-.3.2-.3.3-.3.1 0 .3.3.5.3.1 0 .2 0 .3-.1 0-.1.2-.1.5-.1.6 0 1.5.2 1.7.2.2-.4 1-.6 1.5-.6h.3c.1-.3.3-.6.6-.6.1 0 .2 0 .3.1.1-.1.1-.3.3-.3.2 0 .4.6.4.8.4-.2.9-.6 1.4-.6.1 0 .3 0 .4.1.2-.2.6-.2.9-.2h.4c.1 0 .2-.1.4-.1.3 0 .7.1 1 .1l1.7-.5.3.1c-.4.3-.8.7-1.2.9h-.3c-.8 0-1.7.1-2.5.1-.9.5-2.5 1.7-3.5 1.9 0 .2-.1.2-.2.2s-.3-.1-.4-.1c-.2 0-.3.2-.3.3.1.1.3.2.3.3 0 .1-.1.1-.1.1-.1 0-.3-.1-.3-.1l-1.7 1.1c-.3 1-2 1.1-2.1 1.7-.2.2-.6.5-.6.8 0 .2.3.3.4.3l2-1.5c.1 0 .4.1.4.2 0 .3-.4.6-.6.7h-.2c-.7.1-.9 1.1-1.8 1.1-1.1 1-2.3 2-3.4 2.9h-.1c-.5 0-.8.6-1.2.6-.2 0-.3-.2-.3-.3l.1-.5c.9-.7 2-1.4 2.8-2.2-.2-.1-.5-.1-.7-.1h-.1c-.3 0-.5.3-.6.6l-.9.5h-.1c-.4 0-.2.7-.6.7h-.1l-.6 1.1-.8.5c-.2.9-1 1.3-1.2 2.2-.2.7-1.8.3-1.9 1.2l-.5.8h.1c.1 0 .2 0 .2.2 0 .1-.2.2-.4.2h-.2l-.6.8-.5-.1c-.4 0-.4.5-.5.8-.5.5-1 .9-1.5 1.5-.1.5-.6 1-.6 1.4 0 .3.3.4.6.4h.1c-.6 1.1-1.6 2-1.8 3.2 0 .2-.2.7-.5.7h-.1c-.3.3-.5.7-.7 1.1 0 .2 0 1.4-.4 1.4h-.1c-.2.1-.4.5-.7.5-.2 0-.1-.4-.1-.5-.4-.1-.7-.5-.6-.9.1 0 .3-.1.3-.2 0-.3-.3-.4-.5-.4h-.1l-.3 1.3-.9.6-.3 1.7h-.1c-1.2.1-.3 1.8-1.7 1.9-.4 0-.5.8-.5 1.1l.4.7c-.3.2-.5.8-.6 1.2h-.2c-.3 0-.3.4-.3.7-.4.2-.6.8-.7 1.2l-.4.2-.1.6c-.9 1-.6 2.6-1.5 3.5-1.2 3.9-2.2 7.5-3.1 11.7l.3.6-.4.2c-.1.6-.2 1.3-.3 1.9l-.2-.2-.2.4c-.1-.2-.2-.4-.3-.4-.1 0-.1.1-.2.5l-1.4-.2c-.1.2-.5.5-.7.5-.1 0-.1-.1-.1-.3l-.8.1c0 .2-.1.3-.2.3-.2 0-.5-.2-.6-.3l-.5-.1-.7.3-1.2-.1c0 .3-.1.5-.3.5-.2 0-.4-.1-.6-.3-.2.1-.8.6-1.1.6-.1 0-.2-.1-.2-.2-.6.3-1.4.4-2 .6 0 .1 0 .3-.2.3-.3 0-.5-.3-.7-.5-2 1.3-5.3.7-7.5 1.5 0-.1-.1-.3-.2-.3-.3 0-.7.4-.9.6l-.9-.1c-3.2 1-6.1 1.8-9.7 2.5-.3 0-.7.2-.8.5-1.4.1-2.9.7-4.4.8-.4.6-.6.5-1.2.5-.1 0-2.6 1-2.6 1.1l-.3-.1-.4-.4c0 .7-.3.7-.7.7h-.5c0 .4-.2.5-.6.6-.1 0-.4.1-.7.1-.3 0-.5-.1-.5-.3 0-.4.6-1.2.9-1.5.1-.9 3.1-7 3.5-7 .2-1.9.5-2.6 1.5-4.3v.1c0 .2 0 .4.2.4.4 0 .6-.6.6-.9.1-.1 1.1-1.8 1.2-1.8.1 0 .1.3.1.4 0 .3-.1.8-.5.9 0 .9-.8 1.5-.9 2.5-.7.1-.1.8-.8.9v.6c0 .4.2.5.6.5h.2l.9-2.3.6-.7.3-1.2.8-.9c0-.4.1-.9.4-1.2.1-.8 1-1.2 1-2.3l1.4-2.3c0-.5.4-.7.4-1.4.1-.1 1.2-3.4 1.2-3.6.5-.6 1-1.3 1.5-2 0-.4.4-.7.4-1.1l.4-.8c.1-.8.9-1.4.9-2.4l.3-.9c0-.6-.3-1.4-.7-1.9-.8.1-.6.3-.6.9-1 .1-.3.9-1 .9 0 .4-.2.9-.5 1.1-.2.6-.6 1.4-1.1 1.9-.1.8-1.5 1.2-1.5 2.1.2.2.5.4.8.4.1 0 .1-.2.1-.3l.7-1 .4 1.1c-.7.1-.4.7-.1.9l-.7 1c0 .4-.1.7-.4 1.1l-1.2-.1c-.1.6-.9.5-1.4.5 0 0 0 .3-.1.3s-.3-.4-.3-.5c0-1.4 2.6-5.2 3.5-6.3v-.3c0-.3 0-.6.4-.7l-.1-.7c.1-.1 1.6-.9.9-.9h-.1-.1v-.1c0-.3.9-1.2 1.2-1.5l.5-1c.5 0 .4-.8.4-1.1 0-.3 1.4-6.1 2-6.1.1 0 .1.1.2.2l1.4-.6.8-1.2c-.1.4-.2 1-.4 1.4-.7.6-.1 1.6-1 2.3 0 .4-.1.7-.4 1.1 0 1-1.2 1.7-1.2 2.6 0 .1.1.2.2.2h.2c0 .1 0 .5-.2.5-.3 0-.3-.5-.6-.5-.1 0-.1 1.3-.1 1.8l.8-.9c1.7-.1.4-1.3 1.2-2.2.2 0 2.2-1.5 2.3-2.2 1.4-1 1.5-2.9 2.6-4.2 0-.5.5-.6.5-1.1l.8-1.1.1-1.1c.2-.2.5-.5.5-.8 0-.2-.1-.2-.2-.2h-.1l-.6-.8c.1-1-.2-2.5 1.2-2.6l.5-.9c.4 0 .4-.2.4-.6 0-.3.2-.3.4-.3.7-.8 1.9-4.1 1.9-5.1.8-.1 0-.9.8-1l.6-1.3c.3-.1.4-.5.4-.8l.4-.2.3-.9c.5 0 0-.6-.1-.8.2-.1.7-.4.3-.5l.2-.3c0-.3.1-.7.4-.9 0-.4.1-.8.3-1.2-.5-.1-.7-.5-1.4-.5l.4-1.7h-.1c-.8 0-1.4-.6-1.4-1.4 0-.6-.5-.7-1-.7h-.6c-.3-.2-.7-.5-1.1-.5h-.1c-.1 0-2.3 2.5-2.6 2.8l2.2-3c-.6 0-1.1-.7-1.4-1.2.1-.7.2-1.6.5-2.3l-.4-.2-1.1 1.2c-.1.3-.4.3-.6.4h-.3c-.6 0-1.2-.1-1.7-.4-.1-.1-.3-.4-.5-.4-.4 0-.5.7-.9.7-.5 0-.4-.9-.3-1.1l-2.3 1c-.3.7-3.4 3.1-4.3 4.4l-.9.5-.6 1.9c-.3.2-3.1 4.6-3.1 4.9l.6.9c-.5 0-1 .2-1.5.5l-.4 2.4c-.2-.2-.4-.4-.7-.4h-.1c-.2 0-.2.2-.2.4-1 1.3-.6 3.5-2.5 3.7l-.1 1.5c0 1.1-.9.2-.9 1.2 0 .2 0 .3-.2.3-.5 0-.9 1.7-1 2.2l-.5.9c-.7.1-.1.8-.9.9l-.8 2.4c-.3.2-.5.7-.6 1.1l-.4.7-.4.2c0 .3-.6 1.9-.7 2-.1.9-1.4.8-1.4 1.8l-.4.9c0 .6-.5.5-.5 1l-.5.6c0 .8-.4 1.4-.4 2l-.7.5-.1 1.5-.6.1c-.3 0-.2.5-.2.7l-.6.5-.9 2.5c0 .3-.4.5-.7.5h-.2c-.2 1.1-1.2 5.5-2.7 5.5h-.1c-.3 1.3-.9 2.7-1.8 3.8 0 .6-.3 1.7-1 1.8 0 .6-.4.8-.5 1.3-.2 0-1.2 2.8-1.2 3.2-.3.3-.5.8-.5 1.2-.4 0-.4.2-.4.6 0 .2-.2.3-.4.3-.4.8-.7 1.5-.9 2.3l-1.1.3-.2 1.1c-.1.1-.8 1.8-.8 2.1-.3.3-.4.9-.4 1.3-.4.1-.6.5-.4.9-.1.8-1.5 1-1.5 1.8-.2.2-.3.4-.3.7h-.1c-.3 0-.5.3-.5.5-2.1.4-4.2.5-6.1.6-.5 0-1 .3-1.4.6l-1.2.1h-.3c-.2 0-.5 0-.5-.2l.3-.4c.9-.3 2.2-.1 2.3-1.1l-.4-.5c0-.5.5-.5.9-.5H317.2c1.4-.1 2.9-.9 4.2-.9h.2l.3.4c.2 0 1.4-.3 1.4-.5h-.1c-.1 0-.3.1-.3.1l-2-.7c-.2.3-.6.5-.9.5l-.5-.4-.2.4c-.1-.2-.2-.4-.3-.4-.1 0-.1.1-.2.5l-1.4-.2c-.1.2-.5.5-.7.5-.1 0-.1-.1-.1-.3l-.8.1c0 .2-.1.3-.2.3-.2 0-.5-.2-.6-.3l-.5-.1-.7.3-1.2-.1c0 .3-.1.5-.3.5-.2 0-.4-.1-.6-.3-.2.1-.8.6-1.1.6-.1 0-.2-.1-.2-.2-.6.3-1.4.4-2 .6 0 .1 0 .3-.2.3-.3 0-.5-.3-.7-.5-2 1.3-5.3.7-7.5 1.5 0-.1-.1-.3-.2-.3-.3 0-.7.4-.9.6l-.9-.1c-3.2 1-6.1 1.8-9.7 2.5-.3 0-.7.2-.8.5-1.4.1-2.9.7-4.4.8-.4.6-.6.5-1.2.5-.1 0-2.6 1-2.6 1.1l-.3-.1-.4-.4c0 .7-.3.7-.7.7h-.5c0 .4-.2.5-.6.6-.1 0-.4.1-.7.1-.3 0-.5-.1-.5-.3 0-.4.6-1.2.9-1.5.1-.9 3.1-7 3.5-7 .2-1.9.5-2.6 1.5-4.3v.1c0 .2 0 .4.2.4.4 0 .6-.6.6-.9.1-.1 1.1-1.8 1.2-1.8.1 0 .1.3.1.4 0 .3-.1.8-.5.9 0 .9-.8 1.5-.9 2.5-.7.1-.1.8-.8.9v.6c0 .4.2.5.6.5h.2l.9-2.3.6-.7.3-1.2.8-.9c0-.4.1-.9.4-1.2.1-.8 1-1.2 1-2.3l1.4-2.3c0-.5.4-.7.4-1.4.1-.1 1.2-3.4 1.2-3.6.5-.6 1-1.3 1.5-2 0-.4.4-.7.4-1.1l.4-.8c.1-.8.9-1.4.9-2.4l.3-.9c0-.6-.3-1.4-.7-1.9-.8.1-.6.3-.6.9-1 .1-.3.9-1 .9 0 .4-.2.9-.5 1.1-.2.6-.6 1.4-1.1 1.9-.1.8-1.5 1.2-1.5 2.1.2.2.5.4.8.4.1 0 .1-.2.1-.3l.7-1 .4 1.1c-.7.1-.4.7-.1.9l-.7 1c0 .4-.1.7-.4 1.1l-3.1.1c-.1.6-.9.5-1.4.5 0 0 0 .3-.1.3s-.3-.4-.3-.5c0-1.4 2.6-5.2 3.5-6.3v-.3c0-.3 0-.6.4-.7l-.1-.7c.1-.1 1.6-.9.9-.9h-.1-.1v-.1c0-.3.9-1.2 1.2-1.5l.5-1c.5 0 .4-.8.4-1.1 0-.3 1.4-6.1 2-6.1.1 0 .1.1.2.2l1.4-.6.8-1.2c-.1.4-.2 1-.4 1.4-.7.6-.1 1.6-1 2.3 0 .4-.1.7-.4 1.1 0 1-1.2 1.7-1.2 2.6 0 .1.1.2.2.2h.2c0 .1 0 .5-.2.5-.3 0-.3-.5-.6-.5-.1 0-.1 1.3-.1 1.8l.8-.9c1.7-.1.4-1.3 1.2-2.2.2 0 2.2-1.5 2.3-2.2 1.4-1 1.5-2.9 2.6-4.2 0-.5.5-.6.5-1.1l.8-1.1.1-1.1c.2-.2.5-.5.5-.8 0-.2-.1-.2-.2-.2h-.1l-.6-.8c.1-1-.2-2.5 1.2-2.6l.5-.9c.4 0 .4-.2.4-.6 0-.3.2-.3.4-.3.7-.8 1.9-4.1 1.9-5.1.8-.1 0-.9.8-1l.6-1.3c.3-.1.4-.5.4-.8l.4-.2.3-.9c.5 0 0-.6-.1-.8.2-.1.7-.4.3-.5l.2-.3c0-.3.1-.7.4-.9 0-.4.1-.8.3-1.2-.5-.1-.7-.5-1.4-.5l.4-1.7h-.1c-.8 0-1.4-.6-1.4-1.4 0-.6-.5-.7-1-.7h-.6c-.3-.2-.7-.5-1.1-.5h-.1c-.1 0-2.3 2.5-2.6 2.8l2.2-3c-.6 0-1.1-.7-1.4-1.2.1-.7.2-1.6.5-2.3l-.4-.2-1.1 1.2c-.1.3-.4.3-.6.4h-.3c-.6 0-1.2-.1-1.7-.4-.1-.1-.3-.4-.5-.4-.4 0-.5.7-.9.7-.5 0-.4-.9-.3-1.1l-2.3 1c-.3.7-3.4 3.1-4.3 4.4l-.9.5-.6 1.9c-.3.2-3.1 4.6-3.1 4.9l.6.9c-.5 0-1 .2-1.5.5l-.4 2.4c-.2-.2-.4-.4-.7-.4h-.1c-.2 0-.2.2-.2.4-1 1.3-.6 3.5-2.5 3.7l-.1 1.5c0 1.1-.9.2-.9 1.2 0 .2 0 .3-.2.3-.5 0-.9 1.7-1 2.2l-.5.9c-.7.1-.1.8-.9.9l-.8 2.4c-.3.2-.5.7-.6 1.1l-.4.7-.4.2c0 .3-.6 1.9-.7 2-.1.9-1.4.8-1.4 1.8l-.4.9c0 .6-.5.5-.5 1l-.5.6c0 .8-.4 1.4-.4 2l-.7.5-.1 1.5-.6.1c-.3 0-.2.5-.2.7l-.6.5-.9 2.5c0 .3-.4.5-.7.5h-.2c-.2 1.1-1.2 5.5-2.7 5.5h-.1c-.3 1.3-.9 2.7-1.8 3.8 0 .6-.3 1.7-1 1.8 0 .6-.4.8-.5 1.3-.2 0-1.2 2.8-1.2 3.2-.3.3-.5.8-.5 1.2-.4 0-.4.2-.4.6 0 .2-.2.3-.4.3-.4.8-.7 1.5-.9 2.3l-1.1.3-.2 1.1c-.1.1-.8 1.8-.8 2.1-.3.3-.4.9-.4 1.3-.4.1-.6.5-.4.9-.1.8-1.5 1-1.5 1.8-.6.6-.2 1.6-.7 1.9-.1.5.2.9.2 1.3l-.6.1h-.2c-.3 0-.6-.1-.9-.3l-.7.1-.4.5c-.3-.2-.5-.3-.9-.3h-.2c0-.3-.6-.4-1.4-.4-1.4 0-3.3.3-3.3.3l-.7.1c-.4 0-.4-.5-.4-.8l1.1-.1c.1.1.2.4.3.4.1 0 .1-.1.1-.2l1.2-.3c0-.2.1-.4.3-.4.2 0 .3.2.3.4.2 0 .7-.2.7-.5.6-.1 3.5 0 4-.8.1 0 .2 0 .2-.1 0-.4-.2-.5-.6-.5-.7 0-1.7.5-1.8.5 0-.3-.2-.4-.4-.4h-.1l-.6.1c-.4.2-.9.5-1.5.5h-.1c-.2 0-.3-.1-.3-.4-.5 0-.5.5-1 .5v.1c0 .3-.2.6-.6.7v-.1c0-.2-.1-.3-.3-.3-.5 0-.9.5-1.5.5-.2 0-.3-.1-.3-.3-.7-.1-1.4-.2-2.1-.2-.4 0-.8 0-1.2.1l-.3-.8h.7c1 0 2 .2 3.1.2h.8l.7-.5 1.5-.1.2-.3 2.7-.2c.1 0 .4 0 .4-.1 0-.2-.4-.2-.9-.2-.8 0-1.9.1-2.2.2l-1.2-1.5c-1.2.4-4.3.9-6.2.9-.8 0-1.4-.1-1.4-.3-.4 0-1.7.6-2.5.6-.3 0-.5-.1-.5-.4 0-.2.4-.3.6-.4l.5-.5c-.1-.1-.3-.4-.5-.4-.1 0-.1.3-.1.4l-.8.3c0 .1-.1.2-.2.2h-.1c-.3 0-.7-.2-.9-.3 0 .3-.6.5-.8.5 0-.7-2.4 0-2.4-.8.2-.2 1.1-.7 1.6-.7.2 0 .3.1.3.3.5 0 2-.5 2-1 2-.2 3.9-.8 5.8-.9.2 0 1.5-.1 1.5-.4 0-.1-.7-.4-.8-.4-.7-.1-1.5-.1-2.2-.1-1 0-2 .1-3 .1-4.1.4-8.4 1.9-12.4 2.2l-.9.6h-1.2l-1.1.7c-1.7.1-3.3 1-4.9 1.2-.3.4-6.3 1.8-8.2 2l-.1.4c-1.5.1-2.8 1.1-4.1 1.2-.3 0-.6.1-.6.5l-.8.5-1.9.2-.1.4c-.4.2-.9.5-1.5.5h-.2c-.2 0-.3 0-.3-.3v-.1l.8-.9c0-.5.4-.8.4-1.3-.2-.1-.9-.3-1.1-.3-.4 0-.4.5-.8.5 0 .6 0 1.7-.8 1.7l-.7 1.6-.5-1h.1c.2 0 .3-.3.3-.5 0-.7.3-2.4.9-2.9 0-.4.3-.3.6-.4.1 0 .2-.1.2-.2l.9-.7c.2-1 1.7-4.2 1.7-4.7l.7-.9c0-.6.3-1.7 1.1-1.8.1.1.2.3.4.3.1 0 .5-1.4.6-1.6l1.4-1h.1c.1 0 .2 0 .2.1 0 .2-3.4 4.5-4 7.2l.7-.1c.3-1 1-2.9 1.8-3.7 0-.3.1-.6.4-.8.3-.2.5-.7.5-1.1.6-.5 1.1-1.1 1.5-1.8l.4-.1.1-.6c1-.1.1-.9.1-1.4 0-.5 2.9-.5 3.4-.5.3 0 .7-.2.7-.6.7-.1.2-.7.9-.8.1 0 .4 0 .4-.2 0-.1-.2-.2-.4-.2h-.2V96c.8-.1 1.8-.3 2.6-.3h.7c.6 0 1.3.1 1.3.7.4 0 .4-.5.9-.5l.4.4 2.9-.3c0-.2 0-.8.3-.8h.1c.2.1.5.4.7.7l.7-.1c.2-.3 1.8-.7 2.5-1.5.4.4.6.7 1.1.7h.1c.4 0 .4-.5.8-.5 0-.1 0-.8.2-.9.1.2.4.8.6.8.3 0 0-.8.5-.9.3 0 .5.3.5.6l.7-.1 1.1-.7.9.3c0-.4.7-.6 1.1-.6h.3c.3-.8 3.3-.9 4.2-2 1.4-.1 3.5-1.1 4.8-1.3 0-.4-1-.5-1.1-.5v-.1-.1c-.1 0-.5.5-.7.5-.1 0-.1-.1-.1-.4l.9-.7c0-.4.5-.5 1-.5h.6l.2-.9c-.6.1-1 .1-1.2.1-.2 0-.2 0-.2-.1l1.6-.3c0 .2.2.3.3.3.6-.1 1.1-.4 1.7-.7 2-.4 3.9-.8 5.8-.9.1-.5.5-.5.9-.5H246.1c.7-.1.9-.1.9-.9 0-.2-.1-.3-.3-.3-.6.1-1.1.4-1.7.8-2.9.6-6 1.5-8.6 1.7-1.5.1-3.2.9-5 1.1-.3 0-1.6.7-1.6.9l-1.9.2c-.2.3-.6.6-.9.6-.3 0-.4-.3-.4-.5l.1-.4h1.1c.2 0 .6-.2.6-.5l.6-.1c0-.3.4-.3.6-.4 1.1-.1 1.4-.8 2.3-.9 1.6-.1 2.9-1.3 4.5-1.8l2.2-.8.4-.5c.3 0 .9-.1 1.1-.5l3.3-.7c0-.6 2-.6 2.3-.6l.1-.7 2.9-.3c.2 0 .7-.1.7-.5l.7-.5c.1.1.3.4.5.4s.2-.2.2-.4c.1-.1.4-.2.4-.5 0-.1-.1-.1-.2-.1h-.1l-.7-.2c-.1.3-.3.5-.6.5-.1 0-.2 0-.3-.1 0 .2-.2.4-.4.5-.3 0-.4-.3-.4-.5-.3 0-.7.2-.7.6h-.3c-.8 0-1.5-.3-2.3-.3h-.3c0 .5-.5.6-1 .6h-1.1c-.5 0-.9.1-.9.5-1.8-.1-3.7-.4-5.5-.4h-1.2c.1-.4.3-.3.6-.4.1 0 .2-.1.2-.2.4 0 2.4-.1 2.4-.6-1-.3-1.9-.4-2.9-.4-2.1 0-4.3.5-6.4.7-.3-.2-.8-.3-1.3-.3-.8 0-1.6.2-2.2.2-.5 0-.8-.1-.8-.4 0-.4 2.5-.4 3-.5 1.6-.1 3.1-1.4 4.4-1.6l4.3-.6c.3 0 .6-.2.9-.3.1 0 1.2-.2 1.2-.4 0 0-.1-.1-.3-.1h-1c-.9 0-1.7-.2-2.5-.2h-.4c0-.3-.2-.3-.5-.3s-.6.1-.7.1c-.1-.1-.3-.4-.5-.4-.1 0-.2.1-.2.2l-.8.3c-.1-.2-.4-.3-.7-.3h-.9c-.4 0-.6-.1-.6-.4l-2.2.2c-.2-.3-.5-.3-.8-.3h-.1l-.2.4-1.9.2-.5.5c-.2-.2-.6-.3-.9-.3l-1 .5c-.3.7-2.2.7-2.8.8l-.6.8-1.6-.4c0-.1-.1-.2-.3-.2h-.2c-1.4.1-2 .9-3.2.9-.2 0-.5 0-.8-.1 0 .3-.3.8-.7.8l-.4-.7c.1-.8 1.1-.7 1.2-1.6-.1-.2-.3-.7-.5-.7s-.3.4-.5.5c0 0-.1-.3-.4-.3 0-.4.3-2.4.8-2.5h.1c.3 0 .8.1 1.1.2l.2 1.2 1-1.7c.1 0 .4 0 .4-.2 0-.1-.3-.2-.5-.2s-.3.1-.3.3l-.4-.1.4-.3.6-1.1.9.4c.5-1 1.1-2 1.8-2.9-.2-.1-.9-.3-.9-.5h.2c.7-.1.1-.3-.1-.4 0-.1 0-.4.2-.4.4 0 .5.4.9.4h.1c.2 0 .5-.3.6-.5l.7-.5c1.5-.1 2.9-1.2 4.4-1.3h.2c.7 0 1.3.2 1.9.2h.2c.2-.2 1.3-.9 1.9-.9.2 0 .3.1.3.3l2.2-.5.9.2s1.8-.9 2-.9c.1.1.3.3.5.3.3 0 .1-.4.3-.4h.1c.4 0 .7.3.9.4l.5-.5c1.1-.1 2.3-.6 3.5-.7.2-1.4 1.2-.9 2.5-1.3 0-.2 0-.6.3-.7.2 0 .4.3.5.4v.2c0 .1 0 .2.1.2.2 0 .5-.4.6-.5l2.2-.2c.4-.2.9-.6 1.4-.6h.1c.5 0 .2.5.4.5s.3-.4.4-.6l1.9-.2c0-.3-.3-.4-.7-.4-.4 0-.7.1-.9.2l-.6-1.1-.7.5-3.5.3s-.5 0-.5.1 1.2.3 1.5.4l-1.2.6c-.2-.3-.6-.3-.9-.3h-.1c-.3-.2-.4-.6-.4-.9 0-.1 0-.6.1-.6.3 0 .3.5.6.5l.1-.1v-.1c0-.2.3-.3.5-.4l.3.4 1.1-.4v.7c0 .1 0 .2.2.2s.5-.3.6-.5v.2s0 .2.1.2c.3 0 .5-.4.7-.6.1.1.3.4.5.4s.2-.3.2-.4c.5 0 .8-.5 1.4-.5h.1c.8 0 .8 1.5 1.6 1.5h.1c.6-.6.2-.4 1.1-.5.1 0 .9-.1.9-.4l-.3-.3v-.1c0-.3.2-.5.5-.6l.7.4.2.4.8.2h-.3c-.3 0-.5.1-.5.5-.1 0-.3.1-.3.3 0 .1.1.1.3.1h.2l3.2-.3c3.2-.3 6.2-1.2 9.4-1.9.3.1.8.2 1.1.2h.1c.8-.1 1.6-1 3.2-1.1l.9-.7c1.8-.5 3.3-.9 5.1-1.1v-.1c0-.3.6-.4 1-.4h.7l.9-.6c-.1-.3-.7-.4-1.4-.4-1.3 0-3.1.3-3.5.4-.7.1-1.3.1-2 .1-2.5 0-5-.3-7.4-.3-.6 0-1.3 0-1.9.1h-.2c-.7 0-1.2-.2-1.8-.2h-.2c-.1 0-.7-.2-.7-.2 0-.6 1.1-.5 1.4-1.1l.8-.1c.2 0 1.2.3 1.4.4l.1-.5c0-.5-.6-.6-1.3-.6-.7 0-1.5.2-1.8.2h-.1c-.1 0-.1 0-.1-.1 0-.2.3-.5.4-.7l3.1-.3v-.1c0-.4 2.6-.7 3.2-1 .2.3.5.3.8.3h.1l.9-.5c.6-.1 2.8-.1 2.8-.5 0-.3-.4-.4-1-.4-.8 0-1.9.2-2.6.2-.4 0-.7-.1-.7-.2s.4-.1.4-.1c.9-.1 5.1.2 5.1-1l-.1-.4-4 .3-1.5.2-.8.9h-.1c-.4 0-.4-.4-.9-.4h-.1c0 .3-.1.5-.4.6-.3 0-.4-.3-.4-.5l-1.2.1c-.6.1-.9.6-1.7.7l-.6.5-.2-.4c-.3 0-.8.2-1 .5l-.4-.4-.9.1c-.1.2-.6.5-.9.5-.1 0-.2-.1-.2-.2 0-.3.7-1 1-1.2l2.1-.2.7-.8 2.6-.2v-.1c0-.3.4-.3.6-.4l.5-.5c-.1 0-.2 0-.2-.1 0 0 .7-.4.8-.4 0 .3.3.4.7.4.3 0 .6 0 .8-.1l.6-.5h-.1c-.3 0-.6-.1-.8-.3h-.2c-.3 0-.7-.1-.9-.2l-4.2.4c-.1-.7-1.5-.2-1.9-.8-.5 0-.9.1-1.4.1-3 0-6.2-.7-9.2-.7-.4 0-.8 0-1.2.1L230 45c-.5.8-3.5.7-4.3.8l-.5.5c0 .6-1.4.7-2.5.7h-1.5c-1.2.6-5.7 2-7.5 2.1l-.5.4h-.1c-1 0-2.1.2-3 .6-.1.3-.7.3-1.3.3h-1.1-.1c-.3 0-.8.1-.8.5-2.4.2-3.9.8-6.2 1.1-.7.6-4 1.1-5.3 1.5 0 .6-2 .6-2.3.6-.2.3-6.7 1.8-7.9 1.9-.2.3-.7.5-1 .5l-.8.5c-.9.1-1.7.6-2.6.6l-.3.3-.9.1c-.6.8-1.5 1.2-2.1 1.8l-1.6.1c-.2.1-3.4 1-4 1.1l-.8.7.7.4 2.3-.1.8-.5c.5 0 2.2 0 2.5-.6l.9.3c0-.3.4-.5.6-.5.6-.3 1.4-.6 2.1-.7.1 0 .4.1.4.3l-.8.7c-2.6.7-7.2 2.2-9.8 2.4-.4 0-.3.7-.3.9l1-.1c.6-.1 3.4-.8 3.4-1.1h.1c.4 0 .5.3 1 .3h.1c2.6-.2 4.9-1.7 7.4-1.9v.1c0 .2.3.3.5.3h.1l.7-.1.6-.5 1.9-.2 1 .5c-.7.1-1.9.4-2.4.8h-1c-.4 0-.7.7-.7 1l1.5-.1c.4-.3 1.5-.6 2.4-.6.5 0 .8.1 1 .3l4.5-.4v.2c0 .3.3.4.5.4.1 0 .2 0 .3-.1-.1.9-2.4.8-2.9.9l-2 .9c-.4 0-2.6-.1-2.6.6v.5c.4 0 1.8-.7 2.8-.8.2 0 .5-.1.8-.1.3 0 .6.1.6.5.3 0 .7-.2.7-.6l2.1-.2c0 .4.2.5.5.5.4 0 .9-.2 1.2-.2h.1c.3 0 .6.1.6.5-.5 0-.5.9-.5 1.3-.3.5-.6 1.1-.8 1.7-.7.5-1.2 1.5-1.2 2.3l-.8.6c-.1.3-.2.7-.5 1 0 .3-.1.7-.3 1.1 0 .4-.1.8-.4 1.2-.1.6-.5.6-.5 1.4-.3.2-.4.8-.4 1.1l-.8 1v1c-.3.4-.5 1-.7 1.5l-.5.4-.5.8c-1.1.3-2.2.5-3.3.7 0 .5-.7.9-1.1.9h-.1c-.2 0-.4-.1-.4-.3-.1-.1-.2-.2-.3-.2-.3 0-.6.4-.7.6l-1 .4c-.4.8-1.1.2-1.2 1.5-.9.1-1.1.5-1.7 1.3-.6.1-1.1.9-1.5 1.5 0 .4-.3.3-.5.4-.2 0-.3.1-.3.3l-.4 1c0 .8.1 1.9 1 1.9h.1l.9 1.5-.9.4c-.4.5-.1.4-.7.5-.2.4-.8.5-1.2.5-.3 0-.6.1-.6.5-.4.6-1.2.5-1.8.6-.4 0-.6.3-.6.7-.6.2-1.9.7-2.5.7l-.2.2c0 .2.3.3.5.3h.3l.9-.6h.1c.4 0 .5.4 1.3.4.1 0 .6.3.6.3 0 .1-.2.1-.2.1-1 .7-2.6 1.3-3.9 1.6-.4.8-.9 1.2-1.8 1.3-.2.3-.7.5-1 .5v.1c0 .2-.5.3-.6.3-.1.3-.5.6-.8.6-.1.3-.4.5-.7.5h-.3c0 .1.4.2.4.2l1.2.1c0-.6.7-.5 1.1-.5l.8-.5c1.6-.1 3.1-.8 4.9-.9 0-.3.5-.4.7-.4l.6-.9c.8-.1 1.7-.5 2.5-.5.2-.6 1.4-.3 1.7-1 .9-.1 2-.6 2.9-.9l.3.1-.3.4c0 .5-.4.3-.4.9l-.8.7.3.5c0 1-.7 1.2-.7 1.9-.3.3-.4.7-.5 1.1-.4 0-.3.2-.3.5 0 .4-.9.1-.9.6 0 .4.5.8.5 1.2 0 .2-.2.2-.3.2l-.6.9c0 1-1.5 3.1-2.1 3.9h-.2c-.4 0-.6.3-.6.6.1.1.4.4.4.6 0 .2-.1.2-.3.2l-.2 1.1-1.6 1.2c-.1.9-.8 1.5-.8 2.5-.9.1-.7 3.3-.7 4 0 .4 0 2.1-.6 2.1l-1.1 2.4c-.3.2-.4.7-.4 1-.4 0-.3.2-.3.5 0 .1-.2.2-.3.2l-.8 2.6c-.4.6-1 1.3-1 2 .7 0-.4 1.7.7 1.7h.1c.2 0 .2.2.2.4.4.7.7 1.9 1.7 1.9h.1l.4.8 1.6 1.3h.1c.6 0 1.2.7 1.5 1.1h.1c.7 0 .9.7 1.6.7h.1c0 .3.2.4.5.4s.7-.1.9-.1c0 .1 1.6.7 1.9.7l.8.3h1.1c.5 0 1-.7 1-1.1 2.6-.7 5.3-2 7.9-2.3l.2-.9h.5c.2.2.4.5.7.5.3 0 .1-1.3.5-1.3s.8-.1 1.3-.1c.4 0 .7.1 1 .2l.4-.3c.2 0 .8-.4 1.1-.4.1 0 .2.1.2.2 1.2-.5 3.5-.5 3.7-2.1l1.6-.2v.1c0 .2.1.2.1.2h.1c.2 0 .4-.1.5-.3-.1-.1-.4-.3-.4-.5 0-.1 1-.4 1.2-.5 0 0 .9.1.5.3h-.2c0 .3.3.4.5.4h.1c1.1-.1 2.6-.9 3.6-1.5 0-.6 1.9-.6 2.2-.6.1-.6 1.5-.8 2.5-.8.5 0 .9 0 1 .1 0-.3.4-.5.6-.5.5-.4.9-.9 1.6-1l.5-.9c1-.1 2.1.2 2.1-1l.3.4 1.5-.1.6-.5c.9-.2 1.8-.4 2.7-.4.3 0 1.5-.1 1.6-.6l1.6-.2-.4-.8c0-.2 0-.8.4-.9.4.3 1 .6 1.4 1.1l1.6-.1c.6-.1 1-.6 1.6-1l.9-.1.2-.4 3-.3.7-.5c1-.1 1.1-.9 2.2-1 3.6-.3 7.4-1.8 10.8-2.1.7-.1 1.8-.3 1.8-1.2-.3 0-.8.2-1 .5-.6.1-2 0-2.5.5l-2.8.2c0 .1-.1.4-.3.4v-.2c0-.2-.1-.3-.2-.3-.2 0-.6.3-.7.5l-1.5.1.7-.4c1.6-.1 3.4-1.4 5.9-1.7.4-.7 1.4-.8 2.3-.8h1.2v.4c-.2.2-.4.5-.6.8-.1 0-.1.1-.1.1v.1c0 .1-.1.1-.1.2-.8.7-1.2 1.5-1.2 2.5-.3.4-.5.9-.5 1.4-.8.1-.3 1-.9 1-.2.5-.4 1.2-.4 1.7 0 .3.1.6.4.6 1.7 0 .3 4.2 1.5 4.2h.1l.6.8c0 .8.4.8.4 1.3l1.2 1h.1c.8 0 1 1.1 1.7 1.1h.2c0 .5.7.6 1.4.6h.7c.1-.6 1.7-.6 2.1-.6l.1-.3 2.7-.3v-.1c0-.3.3-.4.6-.5h.1c.4 0 .7.2.9.4l.7-.2h.1c.3 0 .5.1.5.4-.1 0-.4 0-.4.1 0 .2.3.3.5.3h.2c.5 0 1.7-.8 2.2-1 .4 0 .8-.3 1.1-.6.1 0 .3 0 .3-.1 0-.2-.4-.4-.5-.5 0-.3.1-.7.4-.9l.6.3c1-.1 2.1-.7 3.1-.8l.3-.4.3.4c0-.7 5.4-2.3 6.9-2.5.1-.1.4-.2.4-.3v-.1c.1 0 .2.1.3.1h.1c.4 0 .8-.5 1.1-.7.1.1.2.4.3.4.1 0 .1-.4.1-.4.5 0 2 0 2.3-.6l.4.4.3-1c.6-.5 1.5-.8 2.2-.9 0-.5.4-.5.7-.5H285.6l1-.5 1-.1 4.5-.8c.2-.5.5-.8 1.1-.8h.2c.7 0 1.4.3 2 .6 0 .2-.2.3-.4.3-.4 0-1.1-.3-1.3-.3-.3 0-.4.2-.4.5h-.3c-.2 0-.5.1-.5.4 0 .3.2.5.5.5H293.3c.2-.1.7-.6 1.1-.6.1 0 .2.1.2.2 1.1-.5 3.5-.2 4.2-1.1l1-.1.2-.4 1.2.2v-1.1l.9-.4 1.1.2c0-.3.2-.5.5-.6.2 0 .3.3.3.5l.9-.9 1.4-.2h.1c.4 0 .4.4.3.8l1-.5-.7-.4c0-.1 0-.4.2-.4s.5.2.6.4c.7-.1.6-1 1.9-1.1 2.4-.3 4.8-.9 7.3-1.2.5 0 .5-.5.5-.9.6-.1 1.3-.2 1.9-.3v.3c-.8.1-.3 1-.9 1-.2.5-.4 1.2-.4 1.7 0 .3.1.6.4.6 1.7 0 .3 4.2 1.5 4.2h.1l.6.8c0 .8.4.8.4 1.3l1.2 1h.1c.8 0 1 1.1 1.7 1.1h.2c0 .5.7.6 1.4.6h.7c.1-.6 1.7-.6 2.1-.6l.1-.3 2.7-.3v-.1c0-.3.3-.4.6-.5h.1c.4 0 .7.2.9.4l.7-.2h.1c.3 0 .5.1.5.4-.1 0-.4 0-.4.1 0 .2.3.3.5.3h.2c.5 0 1.7-.8 2.2-1 .4 0 .8-.3 1.1-.6.1 0 .3 0 .3-.1 0-.2-.4-.4-.5-.5 0-.3.1-.7.4-.9l.6.3c1-.1 2.1-.7 3.1-.8l.3-.4.3.4c0-.7 5.4-2.3 6.9-2.5.1-.1.4-.2.4-.3v-.1c.1 0 .2.1.3.1h.1c.4 0 .8-.5 1.1-.7.1.1.2.4.3.4.1 0 .1-.4.1-.4.5 0 2 0 2.3-.6l.4.4.3-1c.6-.5 1.5-.8 2.2-.9 0-.5.4-.5.7-.5H357.7l1-.5 1-.1 4.5-.8c.2-.5.5-.8 1.1-.8h.2c.7 0 1.4.3 2 .6 0 .2-.2.3-.4.3-.4 0-1.1-.3-1.3-.3-.3 0-.4.2-.4.5h-.3c-.2 0-.5.1-.5.4 0 .3.2.5.5.5H365.4c.2-.1.7-.6 1.1-.6.1 0 .2.1.2.2 1.1-.5 3.5-.2 4.2-1.1l1-.1.2-.4 1.2.2v-1.1l.9-.4 1.1.2c0-.3.2-.5.5-.6.2 0 .3.3.3.5l.9-.9 1.4-.2h.1c.4 0 .4.4.3.8l1-.5-.7-.4c0-.1 0-.4.2-.4s.5.2.6.4c.7-.1.6-1 1.9-1.1 2.4-.3 4.8-.9 7.3-1.2.5 0 .5-.5.5-.9 2.1-.4 4.1-.7 6.1-1.1.2.3.3.7.5 1 1.4.1 2.4 3.2 5.5 3.7l.4 1c2.7.2 5.7 1 8.4 1.3.3 0 1.6.3 2.5.3.5 0 .9-.1.9-.4.4.6 1.1.7 1.8.7.3 0 .7 0 1-.1 0-.2.1-.6.3-.7h.1c.6 0 1.1.5 1.6.6l.8-.9.5.2.4-.5.9.2c.3-.3.8-.6 1.2-.6h.3c.3-.2.8-.7 1.4-.7.2 0 .1.2.1.3 0 .4.2.5.5.5h.1c.8-.1 1.5-.9 2.4-.9.1-.2.6-.6.9-.6.1 0 .2.1.1.3 1.1-.3 2.6-1.2 3.6-1.3.5 0 .1-.6.6-.6h.2c.1-.3.3-.5.6-.5.1 0 .2 0 .3.1l1-.6c.1-.4.4-.5.7-.5h.4l.9-.7.5.1c.2 0 .4-.1.4-.3h.2c.4 0 .2-.8 1-.8l.3-1h.2c.4 0 .6-.5.7-.9l.9-.3c.1-.3.2-.3.4-.3h.5c.2 0 .4-.2.4-.5l.9-.7 1.8-.6.7-.7c.4-1.2 2.2-1.1 2.5-2.3.9-.7 2-1.3 2.8-2.2.3-.1.5-.4.6-.7.6-.6 1.2-1 1.9-1.5.4 0 .8-.4.9-.8h.2c.3 0 .5-.5.5-.8l1.7-1.5h.2c.7-.1.8-1.4 1.6-1.4 1.6-1 2.4-2.8 4-3.9.1-.5.5-.7.6-1.2.4-.1.6-.6.7-1l.7-.3c1-1.5 2-3.5 3.2-4.9V81c0-.3.2-.6.5-.6h.1l.3-1.3.9-.9c.2-.7 1.1-1.1 1.4-2l.8-.9c0 .1 0 .4.1.4.3 0 .3-1.1.3-1.3.1 0 .8-.2.3-.2l.8-.4c0-.5-.3-.3-.3-.7V73h.4c.2 0 .4 0 .4-.3-.1-.2-.2-.4-.2-.6 0-.1.1-.2.2-.2h.1c0 .1-.1.5.1.5.4 0 .6-2 .6-2.2l.5-.3c.2-.6.6-1.3 1.1-1.9.5-1.4 1.4-2.6 1.9-4 .2-.5.8-3.5 1.6-3.5h.1c.6-3.4 1.5-6.9 1.9-10.3l-.2-.7c.1-.6-.3-1.6-.3-2.3 0-.3.1-.8.4-.8h.1l-.4-.2c-.2-.3.1-.6-.1-.9 0-.4.1-.8.1-1.3 0-1.1-1.1-4.3-1-4.6l-.7-.8.1-.4c0-.5-.4-1-.7-1.5v-.2c0-.3-.4-.6-.7-.6l-.8-1.7c-.4-.1-.3-.5-.7-.6v-.1c0-.6-.8 0-.7-.7-.4-.2-1.4-.8-1.2-1.3-.7-1.1-2.3-2.2-3.5-2.6l-.7.1c-.3-.1-.7-.1-1-.3-1-.5-2.3-1.6-3.5-1.7-.4-.1-2.3 0-2.1-.8-1.4-.4-2.2-.6-3.3-.6h-1.4c-1.1.1-2.5-.3-3.8-.3zm-30.5 10.2h-.9c.5-.1 1.1-.4 1.7-.7.1-.8.7-.1.8-.8.1 0 .4.1.4.2 0 .2-.4.5-.5.5l-.1.1c-.3.1-1.6.2-1.4.7zm-3.2 1.3c-.2 0-.2-.3-.2-.4l.3-.1h.3l-.3.3-.1.2zm-3.7 1.8c.4-.5.9-1.1 1.6-1.2h.2c.1 0 .2 0 .2.1l-.1.5c-.4 0-.3.3-.7.3h-.2l-1 .3zm16.2 2.8c-.1 0-.2-.1-.3-.2h.5c0 .1-.1.2-.2.2zm10.1 6.1c.2-.7 1.4-.7 1.6-1.8l1.9-.8c.1-.7 1.6-.9 1.8-1.6l2-.7-.6-.7.4-.3 1.4.6c.2-.1.5-.1.7-.1.3 0 .6 0 .8.1l.5-.3.8.6c.1-.2.3-.3.6-.4l.3.1.2.7c.5.2.8.3 1 .3.3 0 .2-.3.6-.3.3 0 2.4 1.2 2.8 1.4.1-.2.2-.4.5-.5h.1c.8 0 1.5 1.6 1.8 2.3-.5 2.3-1.2 4.2-1.8 6.4-.2.8-.9 5.8-1.8 5.8-.1.4-.5 2.4-1.1 2.4h-.1l-.9 2.1c-.6.4-.9 1.1-1.1 1.8v.1c0 .3-.1.7-.4.7h-.1c-.1.4-.3 1-.6 1.2-.1.5-.6.8-.7 1.3-.4.6-.6 1.3-1.1 1.9.1.2.3.4.3.7 0 .1-.1.2-.3.2l-1.6 3.1c.2 0 .3.1.3.3v.2l-.5.4-2.1 2.9h-.4-.1c-.4 0-.2-.5-.2-.9 0 0-.1-.2-.2-.2-.3 0-.6.9-.6 1.1l-.8.8h-.1c-.2 0-.2.3-.2.4 0 .2-.1.3-.3.3l-.3.8h-.7c0-.1-.1-.4-.3-.4-.1 0-.2.4-.2.4h-.1c-.7.1-1.3 1.3-1.9 1.3h-.1c-.3.2-3.1 2.9-3.7 2.9-.4.3-1.1 1.3-1.7 1.5-.3.4-1.2 1.5-1.8 1.5l-.8.3c-.6.6-1.7 1.2-2.2 1.9h-.9l-1.9 1.1-1.4 1.9c-.5-.1-.9-.2-1.4-.2h-.2c-.4 0-.5.6-1 .6h-.1c-.9.6-1.9 1.2-2.8 1.7 0 .1-.1.4-.3.4-.2 0-.4-.3-.5-.5-.6-.1-1.4-.3-2.1-.3h-.3l-.8.6-1.6-.1-.3-.8c-.1.1-.3.3-.5.4-.2 0-.1-.3-.1-.4l-1 .3.1-.4c0-.1 0-.1-.1-.1s-.4.3-.5.4c-.1-.5-.1-.9-.1-1.4 0-.9-.8-1.2-.6-2.1h-.1c-1.2 0-.2-1.8-.2-2.5 0-.1-.1-.3-.3-.4l-.3-.9.6-.9c.5-.3.5-1.1.7-1.5l-.3-.7c.1-1.2.8-2.2 1-3.3.3-.7 1-1.9 1.6-2.3l.3-1.1c.3 0 .5-.5.6-.8.3-.3.8-.9.9-1.4l.5-.2c1.7-2.6 3.1-5.2 5.3-7.4 0-.3 2.4-1.7 2.6-3.1h.1c.8-.1 1-1.5 1.6-1.5.7-.4 3.7-3.6 4.9-4.4.3-.5.9-1.5 1.6-1.5 0-.2 3.2-2.7 3.4-3.3.7-1 2.5-1.7 3.5-2.3.2-.5 1.4-1 1.9-1.1.1-.5 1.4-1 1.9-1.1.2-.1.6-.5.6-.8 0-.2-.3-.3-.4-.3l-.6.5-1.1-.4v-.2c0-.1 0-.1-.1-.1-.3-.3-.6 0-.7.1zm-29.5-5.3l-.3-.1.1-.1h.1c.1 0 .2 0 .3.1l-.2.1zm-2.4.7c.1 0 .3 0 .4-.1l-.2.2c-.1-.1-.3-.1-.4-.1h-.2l.1-.1c.2 0 .2.1.3.1zm-2 1.1l.8-.4-.6.6c-.1-.1-.2-.1-.3-.1h-.1c-.2 0-.5.1-.6.4l-.9.6-.6-.2 1.8-1 .5.1zm-2.8 1.4c-.1 0-.1 0 0 0 .1-.2.1-.2.2-.2-.1 0-.1.1-.2.2zm37 .5c-.1 0-.4-.1-.4-.2l.1-.3c.2 0 .3.2.3.4v.1zm19.6 1.9c-.1 0-.2-.2-.2-.3l.3.1c0 .1-.1.2-.1.2zm-199.2.9c-.2 0-.3-.1-.3-.2h1c-.1.1-.5.2-.7.2zm-2 .2c-.2 0-.4-.1-.4-.2h1.2c0 .1-.4.2-.8.2zm-.9.3c-.1 0-.2-.3-.2-.4l.4.1s0 .3-.2.3zm-9.3.5c-.1 0-.2-.2-.2-.3v-.2l1.1-.1c-.2.2-.6.5-.9.6zm-.9-.1c-.1 0-.2 0-.2-.1s.1-.4.2-.4.1.2.1.3v.2h-.1zm3.5.8c-.1 0-.2-.1-.2-.2h.8c-.1.1-.4.2-.6.2zm206.8 5.3c-.2-.1-.1-.4-.1-.6 0-1.4.4-2.6.6-4l.7.8-.2 1.1c-.5.1-.9 2.3-1 2.7zm-206.7-2.8h-.8c0-.5.4-.2.5-.8h.7c0 .5-.4.1-.4.8zm-2 .1c-.1 0-.2 0-.2-.2l.1-.6.3.8h-.2zm-2.1-.1c.3 0 .4-.3.4-.6h.4c.3 0 .6 0 .6.2-.7.7-1.1.9-1.5.9-.3 0-.7-.1-1.2-.1h-.2c-.5 0-.9.4-1.5.4-.2.2-.5.5-.8.5-.2 0-.3-.1-.3-.3l-.4-.6h.1c.3 0 .4-.5.4-.7l3.1-.3c.2.4.5.6.9.6zm120.1-.1c-.2 0-.2-.3-.2-.4l.4.1c0 .1 0 .3-.2.3zm99.7 1.8c-.3 0-.3-.3-.3-.5 0-.1 0-.4.1-.4.2 0 .2.5.2.6v.3zm-226.4.3c-.4 0-.8-.1-1.1-.2 0-.2.3-.2.4-.2h.1c.3 0 1.2.1 1.2.3 0 .1-.4.1-.4.1h-.2zm219.7 1.3c-.2 0-.3-.3-.3-.4h.1c.2 0 .4.1.4.3-.1.1-.2.1-.2.1zm-51.9 1.4c-.1 0-.1-.6-.1-.7v-.4c.2.1.8.4.8.7 0 .1-.2.1-.3.1h-.3s.1.3-.1.3zm51.7-.1c-.4-.1-.3-.5-.2-.8l.2.8zm-95.7.8l-.8-.2.4-1.1.7.2-.3 1.1zm.8 1.6l-.4-.3c0-.5.3-1.2.5-1.6l.2-.1c.1 0 .1.2.1.3 0 .5-.2 1.1-.4 1.7zm-130.4-1c0-.1 0-.2.1-.2.2 0 .4.3.5.4l-.4.9.7-.2.7.4h-.1c-.3 0-.5.2-.5.5l-2.8.2c-.3.8-2.2.4-2.2.8 0 .2.2.3.4.3h.4c.2 0 .3 0 .3.2s-.3.2-.4.2l-2.9.3h-.3c-.7 0-1.3-.2-2-.2h-.3-.1c-.1 0-.3 0-.3-.2 0-.7 2.7-.1 2.7-1 2.7-.2 2.5-.9 4.8-1.1 1.1-.1.5-1.2 1.4-1.2.1-.1.2-.1.3-.1zm60 .3c-.2 0-.2-.3-.2-.4l.4.1s0 .2-.2.3zm161.7.7l-.4-.1.2-1 .3.3-.1.8zm-52.1.7l.1-.4c.1 0 .1.3.1.4l-.7.9-.1.2c-.2 0-.3-.5-.3-.6 0-.5.2-.6.4-.6.1 0 .3 0 .5.1zm53.7 1c-.5-.1-.3-.6-.2-1l.2 1zm-97 .2c-.2 0-.1-.3-.1-.4.2 0 .3.2.3.4h-.2zm-136.1.7c-.1-.1-.2-.2-.2-.4l.4.1s0 .2-.2.3zm135.8.1c-.1 0-.2-.2-.2-.3.1 0 .2-.1.2-.1.1 0 .2.1.2.2s-.1.2-.2.2zm2.5.2c-.1 0-.1-.2-.1-.3v-.1l.3.1c0 .1-.1.3-.2.3zm-139.5.3l-.6-.4 1.2-.1c.1.3-.4.5-.6.5zm68.1 1.5l-.8-.2.4-1.1.7.2-.3 1.1zm-71.9 0c-.4 0-.4-.4-.4-.8l1.6-.1-.3.9h-.9c.1 0 0 0 0 0zm239.6-.4s.1-.4.2-.4c0 0 .1.4.1.5h-.1c-.5 0-.4.9-.5 1.2h-.1c-.3 0-.4.5-.4.7l-.4.5c-.1.4-.3.9-.7 1.1 0 .2-.2.7-.5.8-.1.6-.8 1-1 1.8 0 .1-.1.3-.2.3s-.1-.5-.1-.5c0-.9 1.9-2.6 1.2-2.8l1.4-.7c0-.7.3-2.5 1.1-2.5zm-167 2l-.4-.3c0-.5.3-1.2.5-1.6l.2-.1c.1 0 .1.2.1.3 0 .5-.2 1.2-.4 1.7zm165.4-.5c-.2 0-.2-.2-.2-.3v-.1h.1c.1 0 .2 0 .2.1v.1c0 .1 0 .2-.1.2zm-5.2 1.6c0-.1.2-1.3.4-1.3 0 .8-.5 1.7-.7 2.5l-.1-.1h-.1c-.2 0-.3.9-.5.9s-.2-.2-.2-.2l.1-.5.5-.8c0-.3.2-.5.5-.5h.1zm-164.3.8c-.2 0-.1-.3-.1-.4.2 0 .3.2.3.4h-.2c.1 0 .1 0 0 0zm-.3.9c-.1 0-.2-.2-.2-.3.1 0 .2-.1.2-.1.1 0 .2.1.2.2.1.1 0 .2-.2.2zm2.5.2c-.1 0-.1-.2-.1-.3v-.1l.3.1c.1.1 0 .3-.2.3zm160.2 1.2l.5-.8c-.1.7-.5.8-.7 1.4l-.9.5.5-.5c.1-.4 0-.7.4-.7 0 0 .1 0 .2.1zm-51.6-.3c-.1 0-.2-.3-.3-.4h.2c.1 0 .2 0 .2.2 0 .1 0 .2-.1.2zm-1.8 2.8c-.3 0-.6-.4-.6-.7 0-.2.3-.2.5-.3.1-.5.5-.9.6-1.4l.7.1c0 .3-1.1 2.3-1.2 2.3zm54.2-1.6c-.2 0-.2-.3-.2-.4.1 0 .1-.1.2-.1s.2.1.2.2-.1.3-.2.3zm3.1.4c-.2 0-.2-.2-.2-.3v-.1l.2-.1c.1 0 .2.1.2.2.1.1 0 .3-.2.3.1 0 0 0 0 0zm-.2.7c-.1 0-.2-.1-.2-.2l.1-.2.3.1c.1.1 0 .3-.2.3zm-60.4 3.9c-.2 0-.5-.1-.5-.4 0-.3.8-.9 1.1-1.1.2-1.1.9-1.1 1.1-2.1l.7.8c-.1.4-.6.8-1 .9l-.4 1.2-1 .7c.1 0 .1 0 0 0zm3.2-1.8c-.2 0-.4-.1-.4-.4v-.5l.1-.1c.1 0 .3.8.3 1zm-40.3 1.7c-.1 0-.3 0-.3-.2v-.5c.1 0 .4.6.4.7h-.1zm93 1.6c-.2 0-.2-.2-.2-.3v-.1l.2-.1c.1 0 .2.1.2.2s-.1.3-.2.3zm-57.8 3.9c.1 0 .2-.4.2-.5.2-1 .7-1.9.9-2.9h.7l-.1.7-.5.8c-.2.6-.6 1.3-.6 2l.6.6-.9 2.1h-.1c-.3 0-.9-.1-.9-.4.3-.4.6-1 .6-1.5 0-.1 0-.3-.1-.3-.2 0-.3.4-.3.5h-1.1c.3-.8.6-1.5.7-2.2.5 0 .7 1.1.9 1.1zm54.8-.4c-.1 0 0-.1 0-.1l.1-.3c.6-.7.9-2 1.8-2 .1 0 .1.1.1.1 0 1.2-.5.6-.6 1.3l-.9.6-.2.4h-.3l-.4.9c-1.1.8-2.3 1.8-3.1 2.9h-.1c-.2 0-.6-.1-.6-.4 0-.4.7-.7 1-.8.4-.3 1.1-.9 1.2-1.6l.4.1c.2 0 .4 0 .5-.3h.1c.5 0 .2-.8.7-.8h.3c.1 0 .1 0 0 0zm-4.8-1.1c.3 0 .4-.3.7-.3l.4.1c-.5.8-1.6 1.5-2.4 2 .1.2.3.5.3.8 0 .2-.2.3-.4.3l-.6.6c-.4 0-.8.4-.9.8l-2.7 1.5c-.1.3-.8 1.1-.2 1.2-.6.8-1.5 1.6-2.4 1.9h-.2c-.4 0-5 3.9-5 3.9l-1.2.4c-.6.7-.7.9-1.7 1l-.6.8c.1 0 .4.1.4.2 0 .2-.9.2-1 .2l-1 .1c-.4.2-.9.6-1 1-.2-.1-.4-.1-.7-.1-.8 0-1.9.3-2.5.5V97c0-.2-.1-.2-.2-.2h-.1c-.3 0-.6.2-.9.3h-.3c-.5 0-1.2-.1-1.8-.1-.8 0-1.6.2-1.7 1H418.5c-.5 0-.5-.2-.5-.7 0-.3-.1-.4-.3-.4-.1 0-.2 0-.3.1l.9-.8c0-.1.1-.1.2-.1h.1c.5 0 1.2.5 1.6.8.5 0 1.1-.3 1.7-.6h-.1c-.1 0-.2 0-.2-.1s.4-.1.5-.2l.7-.2c1-.2 2.1-.2 3.1-.3.4 0-.1-.4-.2-.5.1-.3.2-.6.6-.7.3.1.5.1.8.1h.1c.3 0 .5-.2.6-.5l.8-.2h.1c.2 0 .3-.3.3-.4l-.3-.2s0-.2.1-.2c.3 0 .3.4.5.4.1 0 .2-.2.2-.3.2 0 .8-.3 1.1-.3.1 0 .2 0 .2-.1 0-.2-.5-.6-.7-.7l.4-.9 1.9-.8c.2-.7 1.8-.8 1.9-1.5l1.9-1.1c0-.1 0-.2.1-.2.2 0 .3.4.4.5l-.3.9c-.2.1-.6.4-.6.7 0 .1.2.2.3.2l1.7-1.7.5.1c.4 0 1.7-1.2 1.7-1.6 0-.1-.2-.2-.3-.2l-.8.4.2-1.3 1.9-1.5c0-.2.1-.3.2-.3s.2.1.2.3l.6-.3c.9 0 1.5-.7 1.7-1.5l.5.1c.6 0 .6-.6 1.2-.6h.2c.2-.5.6-.9.7-1.3.1-.1.1-.1.2-.1zm-157.7 2.3c-.1 0-.3 0-.3-.2v-.5c.1 0 .4.6.4.7h-.1zm69.4.6c-.3 0-.4-.2-.4-.5v-.2l.4.7zm-4.8 5.5c-.2-.5-.6-1.4-.6-1.8 0-.5.2-1.1.7-1.1 0-1.1.5-2.1.6-3.3l1.4.6.1 1-.4 1.1h-.1c-.3 0-.4-.2-.6-.3-.1.3-.1.6-.1.9l-.5.7-.1.7c-.9.1 0 .7 0 1.1.1.4-.3.4-.4.4zm92-3.1c.3-.2.5-.8.5-1.1.4-.1 1-.3 1.4-.6-.1.2-.2.6-.4.6h-.1c-.3.3-.9.9-1.4 1.1zm-48.9.2c-.1-.1-.4-.1-.4-.3l.1-.2c.1.1.3.2.3.4v.1zm-40.3 1.2c-.1 0-.2 0-.2-.2H356.3c.1 0 .2 0 .2.2h-.3zm-122.4 1.2c-.2 0-.3-.2-.3-.4l.8.1c0 .1-.2.2-.5.3.1 0 0 0 0 0zm161.5.4c-.5-.2-.3-.4-.2-.8l.2.8zm-169.3.7c-.1 0-.2-.3-.2-.4h.2c.1 0 .2.1.2.2s0 .2-.2.2zm59.6.3c-.3 0-.4-.2-.4-.5v-.2l.4.7c.1 0 0 0 0 0zm-4.7 5.5c-.2-.5-.6-1.4-.6-1.8 0-.5.2-1.1.7-1.1 0-1.1.5-2.1.6-3.3l1.4.6.1 1-.4 1.1h-.1c-.3 0-.4-.2-.6-.3-.1.3-.1.6-.1.9l-.5.7-.1.7c-.9.1 0 .7 0 1.1 0 .3-.3.4-.4.4zm-52.3-5.5c-.2 0-.2-.3-.2-.4h.2c.1 0 .2.1.2.2.1 0 0 .1-.2.2.1 0 .1 0 0 0zm211.1.4c-.2 0-.4 0-.4-.2s.3-.4.5-.6c.1.2.2.4.2.6 0 .1-.1.1-.2.1.1.1 0 .1-.1.1zm-45 2.8l.2-2.4c-.1-.1-.2-.3-.2-.4 0-.2.2-.4.4-.6l.1-.1c.1 0 .1.3.1.3 0 .7-.2 1.5-.3 2.1l.2.4-.5.7zm-170.9-3c-.1 0-.2 0-.2-.1v-.1h.8c0 .1-.4.2-.6.2zm1.3.3c-.1 0-.2 0-.2-.1v-.1h.7c0 .1-.3.2-.5.2zm127 .8c-.2 0-.3-.1-.3-.4 0-.1-.1-.5.1-.5.3 0 1 .4 1 .7 0 .2-.3.2-.6.2h-.1-.1c.1 0 0 0 0 0zm-128.5-.2l-.3-.3.7-.1c0 .3-.2.4-.4.4zm126.1 4.1c-.2 0-.3-.1-.3-.3l.1-1.3c.8-.1.8-1.5.8-2.1l.8.3v1l-.7 1-.2 1c0 .2-.2.4-.5.4.1 0 .1 0 0 0zm-137.9-.1c.2-1.7 2.4-.9 3.5-2 1.6-.1 3.3-1 5-1.3.2.1.5.4.5.6 0 .3-.5.2-.5.4 0 .1.8.6 1 .6l-2.8 1.1-.3.4-.7.1-.2-.6.8-.3v-.2c0-.3-.1-.7-.5-.7h-.1l-.9.5c-.8.1-2.1.8-2.9 1.2l-1.9.2zm-32.1-2.3c-.1 0-.2-.1-.2-.2h.8c-.2.1-.4.2-.6.2zm-1.1.7c-.2 0-.3-.3-.3-.5h.5c.1 0 .2 0 .2.2s-.2.3-.4.3zm105 .3c-.1 0-.2 0-.2-.2H283.7c.1 0 .2 0 .2.2h-.3c.1 0 .1 0 0 0zm149.9.6c-.2 0-.2-.2-.2-.3v-.1l.4.1c.1.1 0 .3-.2.3.1 0 0 0 0 0zm-38.8.4c-.1 0-.2-.2-.2-.3l.4.1c.1.1 0 .2-.2.2zm.1 2.2c-.2 0-.2-.2-.2-.3v-.1h.2c.1 0 .1 0 .1.1.1 0 .1.3-.1.3zm35.2 0c.1-.2.4-.3.7-.4h.2c0 .3-.3.4-.5.5l-.4-.1c0 .2-.1.3-.3.3-.2 0-.2.3-.2.5 0 .3.3.4.5.4h.3l-1 .7c-.1.3-.3.3-.6.3s-.6-.1-.8-.1c-.3.3-.4.8-.5 1.2-.5.3-1.1.5-1.7.6h-.2c-.3 0-.6-.1-.6-.5 0-.1.2-1.1.4-1.1l.9.8v-.2c0-.6 0-.8.6-.9 0 0 .3 0 .3-.1 0-.2-.2-.3-.4-.3-.4 0-.8.2-1 .2-.1 0-.1-.1-.1-.2 0-.8.2-1 .7-1 .2 0 .5.1.8.1.2-.2.5-.4.8-.4.1-.2.4-.2.6-.2h.2c.1-.1.4-.2.5-.3l.8.2zm-150.4.7c-.2 0-.3-.1-.3-.4 0-.1-.1-.5.1-.5.3 0 1 .4 1 .7 0 .2-.3.2-.6.2h-.1-.1zm112.3-.3v.2l.5 1.3c0 .4-.1.7-.2 1-1.3.1-2.7.2-3.9.3-.5 0-1 .3-1.4.6l-1.2.1h-.3c-.2 0-.5 0-.5-.2l.3-.4c.9-.3 2.2-.1 2.3-1.1l-.4-.5c0-.5.5-.5.9-.5H388.3c1.1 0 2.4-.7 3.6-.8zM277.2 101c-.2 0-.3-.1-.3-.3l.1-1.3c.8-.1.8-1.5.8-2.1l.8.3v1l-.7 1-.2 1c0 .3-.2.4-.5.4zm107.6-2.5c-.1 0-.2-.3-.2-.4h.2c.1 0 .2.1.2.2s0 .2-.2.2zm-185.4 1.4c-.2 0-.3-.2-.3-.4l1.5-.2c0 .4-.3.5-.3 1h-.3c0-.3-.1-.4-.3-.4h-.3zm148.5.1c-.1 0-.2-.3-.2-.4l.4.1c0 .1 0 .3-.2.3zm-149.3 1.1c-.2 0-.4-.1-.4-.4v-.3l.8-.2-.1.8c0 .1-.2.1-.3.1zm148.8-.3c-.2 0-.2-.1-.2-.3 0-.1.1-.1.2-.1s.2.3.2.4h-.2zm32.6.7l-.2-.7 1.4.1h.2c.1 0 .3 0 .3.1l-.7.1c-.3.2-.7.4-1 .4zm7 1.2h.1l.6-.7.7-.3h1.2l.9-.5c.2.1.5.2.8.3l.3.6.1 1.1c.3 0 .3.5.3.7.3.1.2.5.1.8-.6 0-1.3-.2-1.9-.2h-.4l-3.3.4c-.1.3-.5.5-.8.5h-.5c-1.1 0-2.4-.2-3.4-.3l1-.6 1.4-.2c.1-.2.4-.5.5-.5.1 0 .2.1.2.4.3 0 .9-.1 1.1-.5.8-.1 2-.7 2.7-1.1v-.1c0-.2-.2-.3-.4-.3h-.1c-.3 0-.7.2-.8.6l-2.6.2c.1-.4.6-.5 1.1-.5.6.1.9.2 1.1.2zm-190-.7c-.4 0-.4-.1-.4-.7l.8-.1v.7c-.1.1-.3.1-.4.1zm180.3.1c-.2 0-.4 0-.4-.2s.2-.4.3-.5c.2.1 1.2.4 1.2.5 0 .1-.8.2-.9.2h-.2zm5.6 1.6c-.4 0-.8 0-1-.1l2.8-.5c.1.5-1 .6-1.8.6zm12.8.8c-.1 0-.3-.1-.4-.1l-.2-.8.1-.4v.1c0 .2.1.4.2.4h.1c0 .3.1.5.2.8zm-23.9-.3c-.2 0-1.2-.3-1.2-.4h.2l1-.4 1.2.1c0 .5-.7.7-1.2.7zm-59.6.6c-.1 0-.2-.3-.2-.4h.2c.1 0 .2.1.2.2s0 .2-.2.2zm126.6 1.6l-.2-.5c.1.1.4.3.4.5h-.2zm-163.4 0c-.1 0-.2-.3-.2-.4l.4.1c0 .1 0 .3-.2.3zm100.8.4c-.2 0-.3 0-.3-.1v-.1h1.2c-.1 0-.6.2-.9.2zm-56.7 1.1h.1c.3 0 .6-.3.6-.6l1.4-.6h.5c.1.3.2.6.2 1-.3.1-.6.4-.1.4h.1c-.2.3-.3.9-.3 1.3-.5 0-.6.4-.5.9l-.2-.2c-.7.2-.7.4-.7 1h-.4c-.8 0-1.5-.2-2.3-.2h-.4l-3.3.4c-.1.3-.5.5-.8.5h-.5c-1.1 0-2.4-.2-3.4-.3l1-.6 1.4-.2c.1-.2.4-.5.5-.5.1 0 .2.1.2.4.3 0 .9-.1 1.1-.5.8-.1 2-.7 2.7-1.1v-.1c0-.2-.2-.3-.4-.3h-.1c-.3 0-.7.2-.8.6l-2.6.2c.1-.4.6-.5 1.1-.5h.9l.6-.7.7-.3h1.2l.9-.5c.6.3 1.1.5 1.6.5zm-44.6-.7c-.2 0-.2-.1-.2-.3 0-.1.1-.1.2-.1s.2.3.2.4h-.2zm162.4.2c-.2 0-.2-.2-.2-.3v-.1l.4.1c0 .1-.1.3-.2.3zm-66.6.1c-.2 0-.2-.3-.2-.4l.4.1c0 .1-.1.3-.2.3zm-63.3.4l-.2-.7 1.4.1h.2c.1 0 .3 0 .3.1l-.7.1c-.2.2-.6.3-1 .4zm61 1.1l-.2-.1c0-.5 4.5-1.3 4.7-1.3l.1.1c0 .1-1.6.4-2.2.6l-.2.5-2.2.2zm-63.6-.5c-.2 0-.4 0-.4-.2s.2-.4.3-.5c.2.1 1.2.4 1.2.5 0 .1-.8.2-.9.2h-.2zm92.3 0c-.2 0-.4-.1-.5-.1.3 0 .6-.1.8-.2v.1c0 .1-.1.2-.2.2h-.1zm-171.6.9c-.1 0-.2-.3-.2-.4.1 0 .1-.1.2-.1s.2.1.2.2 0 .3-.2.3zm141.2.2c-.2 0-.5-.1-.5-.3l1.2-.2c.1.4-.4.5-.7.5zm-56.3.4c-.4 0-.8 0-1-.1l2.8-.5c0 .5-1 .6-1.8.6zm-11.1.5c-.2 0-1.2-.3-1.2-.4h.2l1-.4 1.2.1c0 .5-.8.7-1.2.7zm132.8-.3c-.1 0-.2-.1-.2-.3v-.1h.2c.1 0 .2.1.2.2 0 0-.1.2-.2.2zm-240.7 1.5c-.2 0-.3-.7-.3-.9.1 0 .9.2.9.3 0 .1-.5.1-.5.1s0 .4-.1.5zm237.4.1c-.1 0-.1-.2-.1-.3l.1-.1c.2 0 .3.2.3.4h-.3zm-70.4.2c-.2 0-.2-.3-.2-.4h.1c.1 0 .2.1.2.2s-.1.2-.1.2zm-128 .7c0-.4.4-.5.4-.9.7.1 1.4.2 2.1.2.4 0 .8 0 1.2-.1l.1.4c0 .2-.2.3-.4.3l-1.5.1h-.1c-.4 0-.9-.2-1.5-.2-.1.2-.2.2-.3.2zm196.2-.3l.5-.4-.5.6c0 .1-.1.2-.2.2s-.2-.2-.2-.3c0-.1.1-.1.2-.1h.2zm-123 .7c-.2 0-.3 0-.3-.1v-.1h1.2c0 .1-.5.2-.9.2zm-113.5.2c-.1-.1-.1-.3-.1-.4l.3.1c0 .1-.1.3-.2.3zm38.6.7c-.4 0-.3-.3-.3-.7l.8-.2v.8l-.5.1zm123.1 0c-.4 0-.4-.4-.4-.8.2.1 1.2.5 1.2.6 0 .1-.6.1-.8.2zm-113-.3l-.5-.4 1-.1c0 .3-.3.4-.5.5zm59.4.2c-.2 0-.2-.3-.2-.4l.4.1s-.1.3-.2.3zm-2.3 1.4l-.2-.1c0-.5 4.5-1.3 4.7-1.3l.1.1c0 .1-1.6.4-2.2.6l-.2.5-2.2.2zm76.6-1c-.2 0-.3-.2-.3-.4l.5.1c0 .1-.1.3-.2.3zm-138.6.8l-1.1-.6 1.5-.1-.4.7zm-2 0c-.3 0-.4-.2-.4-.5H231.8c.3 0 .4.1.4.4l-.3.1c.1 0 .1 0 0 0zm137.9 0l-.4-.4h.8c0 .3-.2.4-.4.4zm-120.3.2v-.1.1zm-19.8.4c-.1 0-.2-.3-.2-.4l.4.1c0 .1 0 .3-.2.3zm64.5.3c-.2 0-.5-.1-.5-.3l1.2-.2c0 .3-.5.5-.7.5zm-104.9.2c-.2 0-.2-.3-.2-.4l.3.1c0 .1 0 .3-.1.3zm31.9.2c-.2 0-.3-.2-.3-.4h.2c.1 0 .2 0 .2.2.1.1.1.2-.1.2.1 0 .1 0 0 0zm-1 1.3c-.2 0-.2-.2-.2-.3h.1c.2 0 .4.1.4.3h-.3zm-32.4.9c-.1 0-.5-.5-.6-.7h.1c.4 0 .6.2.6.6 0 0 0 .1-.1.1zm98.1-.2c-.2 0-.2-.3-.2-.4h.1c.1 0 .2.1.2.2s-.1.2-.1.2zm-96.7 1.4c-.1 0-.2-.2-.3-.3 0-.3.1-.7.5-.8l.6-.1-.7.8s0 .3-.1.4zm90.1.5c-.4 0-.4-.4-.4-.8.2.1 1.2.5 1.2.6 0 .1-.7.2-.8.2zm67.9.6c-.3 0-.6 0-.6-.1 0-.2.2-.4.4-.6l.8-.1c.4 0 .8.5 1.3.6h-.1c-.2.1-1.2.2-1.8.2zm-47.3-.2c-.2 0-.3-.2-.3-.4l.5.1c.1.1-.1.3-.2.3zm-2.7.7l-.4-.4h.8c.1.3-.2.4-.4.4zm-73.4 1.5c0-1.1 3.3-1.3 4.4-1.5.1.1.2.3.2.4 0 .2-.1.3-.3.3l-.2.4-.8.1-.4.5-.6.1h-.1c-.3 0-.7-.1-.9-.3h-1.3zm-38.4.1l-.4-.1.1-1.1.4.2-.1 1zm37.8-.1c-.2 0-.4-.1-.4-.3l.1-.5c.2.2.3.5.3.8zm116.7.5c-.1 0-.1 0-.1-.1 0-.2.6-.7.8-.8h.1c.4 0 1.6.1 1.6.2l-2.4.7c.1 0 0 0 0 0zm-120.3 1.5l.2-.6h.3c.3 0 .5-.3.5-.6.2.1 1.6.3 1.6.5-.2.1-.6.2-.9.2-.7 0-1.1.5-1.7.5zm-.7.6c-.2 0-.2-.3-.2-.4.1 0 .1-.1.2-.1s.2.1.2.2-.1.3-.2.3zm-4.1.6c-.1 0-.1-.1 0 0v-.3h.1c.1 0 .2 0 .2.2v.1h-.3zm-9.6 2l-.1-.4c0-.2 2.4-.9 2.9-1.4l.7.5h.2c.3 0 .5.3.5.6l1.5-.1v-.3c0-.3.1-.6.4-.7h.4c.8 0 1.6.2 2.5.2.1 0 .6.3.6.3 0 .1-.2.1-.2.1l-1.5.1c-.2.3-.7.5-1 .5-.5 0-.5.6-1.1.6 0 0-2.6 1-2.8 1-.7.6-3.7 1.3-4.7 1.6-.1-.1-.4-.3-.4-.5s.5-.3.6-.3l1.1-.9h1c.4 0 .7-.7.7-1l-1.3.1zm69.4-.8c-.3 0-.6 0-.6-.1 0-.2.2-.4.4-.6l.8-.1c.4 0 .8.5 1.3.6h-.1c-.1 0-1.1.2-1.8.2zm-70.5.5c-.4 0-.4-.1-.4-.7l.8-.2v.8c-.2.1-.3.1-.4.1zm-3.4.8c.3 0 .6-.3.6-.6l1.8.3-.5.6-.8.4c-.8.1-1.5.5-2.2.6-.4.6-2.4.9-3 1.1l-.3-.8c1.2-.1 2.3-.9 3.6-1l.4-.6h.4zm66.7 1.2c-.1 0-.1 0-.1-.1 0-.2.6-.7.8-.8h.1c.4 0 1.6.1 1.6.2l-2.4.7zm-68.7 2.2c-.2 0-.2-.1-.2-.4.2 0 .4.2.4.4h-.2zm-1.4.2l-.4-.4h.7c0 .2-.2.4-.3.4zm-3.8 1.5c-.2-.1-.9-.5-.9-.7 0-.1.2-.1.2-.1l.5-.8 1.8.3c-.3.1-1.4.7-1.4.8 0 .1.7.1 1.2.2l-1.4.3zm2.8-.1c-.2 0-.2-.2-.2-.3v-.1l.4.1c0 .1-.1.3-.2.3zm-11.4 2.8c-.1 0-.2 0-.2-.2s.3-.4.4-.6l.8-.1h.1c.1 0 .2 0 .2.1 0 .3-1.1.8-1.3.8z"/>
<path d="M461.2 45.5l-.3-.1-.6-.5-.5 1.9.7-.5c.1-.2.7-.6.7-.8z"/></svg>